<svg width="0" height="0" class="hidden">
  <symbol version="1.1" xmlns="http://www.w3.org/2000/svg" viewBox="0 0 512 512" id="more">
    <path d="M0 0 C7.07433317 6.0599502 13.3553009 13.40751562 15.09765625 22.796875 C15.94870445 36.09275925 15.0612588 47.11310054 6.140625 57.7265625 C-2.17577407 66.15427093 -11.05415835 69.82213112 -22.77734375 70.234375 C-33.7810264 69.94763408 -43.07428502 66.67000892 -50.90234375 58.796875 C-59.86660817 48.24245841 -61.97799396 38.29395688 -61.12255859 24.76757812 C-60.01509712 14.85690292 -53.4507872 5.96239752 -45.90234375 -0.203125 C-31.72000904 -9.12578591 -13.91834629 -10.20510327 0 0 Z "  transform="translate(278.90234375,357.203125)"></path>
    <path d="M0 0 C8.14913422 6.11504891 13.74897164 13.80156273 15.8125 23.875 C17.13078154 35.62414814 15.88498723 45.28666705 9 55.125 C2.28679305 63.47023971 -5.77953505 68.80504368 -16.4140625 70.62109375 C-25.37052847 71.4410519 -33.3508884 70.3210776 -41.1875 65.875 C-42.198125 65.318125 -43.20875 64.76125 -44.25 64.1875 C-51.77116781 58.26658066 -58.3980572 50.51810844 -60.1875 40.875 C-61.0385482 27.57911575 -60.15110255 16.55877446 -51.23046875 5.9453125 C-37.44724425 -8.02239111 -16.62991499 -10.7781855 0 0 Z "  transform="translate(278.1875,91.125)"></path>
    <path d="M0 0 C10.24816326 6.36401975 15.88111199 14.26833596 19.6796875 25.6640625 C20.6650206 39.38834499 19.62754068 49.99728424 10.6171875 61.0390625 C3.7505904 68.20571258 -5.45040845 72.69629501 -15.375 73.00805664 C-28.28101184 73.17599348 -37.56868819 70.42980962 -47.12109375 61.27734375 C-55.52770942 51.28795497 -57.15073512 40.47868651 -56.53369141 27.90673828 C-55.60022322 18.09570994 -49.69346538 9.86897292 -42.3203125 3.6640625 C-29.50400393 -4.15308968 -13.91173701 -6.8980635 0 0 Z "  transform="translate(274.3203125,221.3359375)"></path>
  </symbol>
  <symbol version="1.1" xmlns="http://www.w3.org/2000/svg" viewBox="0 0 512 512" id="three-dots">
    <path d="M0 0 C8.34468007 4.97590182 13.53387008 11.86345977 16.109375 21.2578125 C17.10789012 32.35758522 16.45884702 41.9922991 9.359375 51.0703125 C3.70168013 57.1280464 -3.34488592 60.84888618 -11.625 61.59375 C-22.35447774 61.83515993 -31.19802606 60.58332943 -39.359375 52.9609375 C-46.75303791 44.73737365 -48.47252567 36.02335615 -48.203125 25.24609375 C-47.72879865 16.86039919 -44.11592977 9.8548755 -37.890625 4.2578125 C-27.15195714 -3.81766573 -12.32399863 -5.91386512 0 0 Z "  transform="translate(399.890625,226.7421875)"></path>
    <path d="M0 0 C8.34468007 4.97590182 13.53387008 11.86345977 16.109375 21.2578125 C17.10789012 32.35758522 16.45884702 41.9922991 9.359375 51.0703125 C3.70168013 57.1280464 -3.34488592 60.84888618 -11.625 61.59375 C-22.35447774 61.83515993 -31.19802606 60.58332943 -39.359375 52.9609375 C-46.75303791 44.73737365 -48.47252567 36.02335615 -48.203125 25.24609375 C-47.72879865 16.86039919 -44.11592977 9.8548755 -37.890625 4.2578125 C-27.15195714 -3.81766573 -12.32399863 -5.91386512 0 0 Z "  transform="translate(271.890625,226.7421875)"></path>
    <path d="M0 0 C8.34468007 4.97590182 13.53387008 11.86345977 16.109375 21.2578125 C17.10789012 32.35758522 16.45884702 41.9922991 9.359375 51.0703125 C3.70168013 57.1280464 -3.34488592 60.84888618 -11.625 61.59375 C-22.35447774 61.83515993 -31.19802606 60.58332943 -39.359375 52.9609375 C-46.75303791 44.73737365 -48.47252567 36.02335615 -48.203125 25.24609375 C-47.72879865 16.86039919 -44.11592977 9.8548755 -37.890625 4.2578125 C-27.15195714 -3.81766573 -12.32399863 -5.91386512 0 0 Z "  transform="translate(143.890625,226.7421875)"></path>
  </symbol>
  <symbol version="1.1" xmlns="http://www.w3.org/2000/svg" viewBox="0 0 512 512" id="exclamation">
    <path d="M0 0 C0.79680176 0.28713867 1.59360352 0.57427734 2.41455078 0.87011719 C30.08318559 11.01217671 54.9016331 25.98088027 76.640625 45.86328125 C78.68167962 47.71171979 80.76374282 49.48334885 82.875 51.25 C124.46925435 87.75958599 147.54695727 144.30163826 152.75 198.5 C155.9989334 258.01095083 139.62103716 319.33463568 99.55322266 364.63574219 C97.20816107 367.24620902 94.83088355 369.82396875 92.4296875 372.3828125 C90.48217645 374.48061379 88.62911965 376.60309773 86.8125 378.8125 C83.56553483 382.6373149 79.8272147 385.77177277 76 389 C74.59427734 390.2375 74.59427734 390.2375 73.16015625 391.5 C27.06923622 431.8395653 -33.57137993 450.28561925 -94.3125 446.72265625 C-144.86284056 443.05429947 -193.53664957 422.37367377 -230.78125 388.03125 C-232.77015799 386.21041875 -234.80682976 384.47912594 -236.875 382.75 C-278.89234112 345.86904727 -302.67935745 287.96805745 -306.82128906 233.01635742 C-309.22205218 192.49528044 -301.7300437 152.51958581 -284 116 C-283.65743164 115.29423828 -283.31486328 114.58847656 -282.96191406 113.86132812 C-275.40322959 98.5185371 -266.10305555 84.02513147 -255 71 C-254.05312011 69.86871159 -253.10652748 68.73718271 -252.16015625 67.60546875 C-244.04066994 57.95346661 -235.67730805 49.12436138 -225.7890625 41.23828125 C-224.00801742 39.80895515 -222.24980181 38.35038043 -220.5234375 36.85546875 C-161.58725161 -13.77856092 -72.05206239 -26.08755388 0 0 Z M-208.83984375 70.9921875 C-210.86538639 72.87487994 -212.94704391 74.65737061 -215.0625 76.4375 C-249.6516452 106.81519239 -270.11795402 155.96594499 -273.71875 201.21484375 C-277.18714177 254.91933296 -260.23124643 306.30477998 -225 347 C-222.99909133 349.26851569 -220.97606558 351.51528268 -218.9375 353.75 C-218.23197998 354.52839233 -218.23197998 354.52839233 -217.51220703 355.32250977 C-201.22354758 372.92242587 -180.38892088 385.89772078 -158.88183594 396.10644531 C-157.16778285 396.92033145 -155.46228887 397.75218159 -153.7578125 398.5859375 C-136.60681812 406.51145813 -117.68442485 410.73155701 -99 413 C-97.59427734 413.19529297 -97.59427734 413.19529297 -96.16015625 413.39453125 C-45.86952635 419.35313669 5.3578843 402.48837489 44.87890625 371.76171875 C54.6209772 363.95974728 64.10128606 355.69387619 72 346 C72.90088093 344.93475988 73.80193888 343.86966945 74.703125 342.8046875 C86.32836147 328.87601621 95.43974467 313.46680211 103 297 C103.45584473 296.01362549 103.45584473 296.01362549 103.92089844 295.00732422 C112.02975977 277.18427201 116.54530624 258.37349937 119 239 C119.19722656 237.58847656 119.19722656 237.58847656 119.3984375 236.1484375 C124.99929388 188.465471 109.99177415 136.18935677 80.375 98.5 C78.61115937 96.30913075 76.81718932 94.14675692 75 92 C74.28585937 91.15566406 73.57171875 90.31132812 72.8359375 89.44140625 C62.30988148 77.43697157 51.0796479 66.19399811 38 57 C37.42314453 56.58943359 36.84628906 56.17886719 36.25195312 55.75585938 C-37.68352291 3.49527859 -142.26060617 8.97012645 -208.83984375 70.9921875 Z "  transform="translate(333,39)"></path>
    <path d="M0 0 C4.96518679 2.30526529 7.44055733 5.20803937 10 10 C10.57708199 13.52763612 10.54686105 17.00761803 10.51757812 20.57592773 C10.5245874 21.62869904 10.53159668 22.68147034 10.53881836 23.7661438 C10.55639288 27.23889712 10.544776 30.71083243 10.53125 34.18359375 C10.53394525 36.60205745 10.53782795 39.0205201 10.54284668 41.4389801 C10.54874119 46.50540493 10.54018061 51.57154747 10.52148438 56.63793945 C10.49870756 63.1256711 10.51181088 69.61274037 10.53577423 76.10044765 C10.55024358 81.09423289 10.54562068 86.08786168 10.53526306 91.08165169 C10.53259831 93.47341045 10.53585664 95.86518351 10.54518127 98.25692558 C10.5553637 101.60322436 10.53982 104.94845807 10.51757812 108.29467773 C10.52567505 109.27931503 10.53377197 110.26395233 10.54211426 111.27842712 C10.46716053 117.37939318 9.55790047 121.00029116 6 126 C2.03526465 129.3233811 -2.85338177 130.69201804 -7.984375 130.37890625 C-13.36730676 129.36699853 -16.88758305 127.5632143 -20.0838623 123.07167053 C-22.73128917 118.28544657 -22.56165017 113.6541175 -22.51757812 108.29467773 C-22.5245874 107.24015411 -22.53159668 106.18563049 -22.53881836 105.09915161 C-22.55636749 101.62702806 -22.54478673 98.15572503 -22.53125 94.68359375 C-22.53394558 92.26416366 -22.53782855 89.84473462 -22.54284668 87.42530823 C-22.54873741 82.36066346 -22.5401913 77.29630131 -22.52148438 72.23168945 C-22.49868337 65.74276737 -22.5118286 59.25450667 -22.53577423 52.76560879 C-22.55023298 47.77186607 -22.54562596 42.77828 -22.53526306 37.78453255 C-22.53259665 35.39194727 -22.5358625 32.99934772 -22.54518127 30.6067791 C-22.55534897 27.26277899 -22.53984171 23.91984827 -22.51757812 20.57592773 C-22.52567505 19.5892662 -22.53377197 18.60260468 -22.54211426 17.58604431 C-22.47171642 11.87351136 -21.85291819 8.5124085 -18 4 C-12.72867143 -1.00776214 -6.89190982 -0.92775709 0 0 Z "  transform="translate(262,144)"></path>
    <path d="M0 0 C5.74841562 3.32865134 9.60440035 8.15992367 11.6875 14.4375 C12.84433398 22.36485705 11.39064439 28.9281605 6.6875 35.4375 C0.69246541 41.14393336 -5.0475792 41.80441848 -13.015625 41.70703125 C-18.63359236 41.24774245 -22.27794574 39.65498567 -26.09375 35.49609375 C-31.55671932 28.49988539 -32.32331569 22.23459894 -31.3125 13.4375 C-29.27741347 7.46094154 -26.11327462 3.446156 -20.625 0.3125 C-13.83064566 -2.55849785 -6.83178375 -2.99297193 0 0 Z "  transform="translate(266.3125,310.5625)"></path>
  </symbol>



 
  <symbol version="1.1" xmlns="http://www.w3.org/2000/svg" viewBox="0 0 512 512" id="magnifying-glass">
    <path d="M0 0 C0.78567352 -0.00067474 1.57134705 -0.00134949 2.38082886 -0.00204468 C13.89708393 0.01368691 24.90954562 0.4219949 36.125 3.25 C37.21772217 3.50740967 37.21772217 3.50740967 38.33251953 3.77001953 C49.48002905 6.42238252 59.83489948 10.22866014 70.125 15.25 C70.76034668 15.55808594 71.39569336 15.86617187 72.05029297 16.18359375 C84.94251241 22.52284371 96.45860051 30.39525386 106.94140625 40.2421875 C109.1418143 42.31457132 109.1418143 42.31457132 111.70703125 44.296875 C138.71850254 66.11551094 154.85913445 105.56313344 158.91705322 139.133255 C159.53533317 145.42688935 159.37013929 151.80459863 159.375 158.125 C159.37567474 158.91034119 159.37634949 159.69568237 159.37704468 160.50482178 C159.36130076 172.02436764 158.97205105 183.03261885 156.125 194.25 C155.94807617 194.95141113 155.77115234 195.65282227 155.58886719 196.37548828 C150.34627483 216.68940186 141.91696731 236.50938684 129.125 253.25 C130.7977742 257.62661218 134.07591004 260.45221424 137.34716797 263.66748047 C137.98477051 264.30216248 138.62237305 264.93684448 139.27929688 265.59075928 C140.66302921 266.96688721 142.04906707 268.34069988 143.43712997 269.71245956 C145.6358478 271.88563099 147.82824046 274.06500604 150.01907349 276.24612427 C155.46292278 281.66323949 160.9175209 287.06949061 166.37182617 292.47607422 C170.97889855 297.04363973 175.58182915 301.61530366 180.17935562 306.19247818 C182.33563067 308.33581995 184.49785935 310.47302924 186.66036987 312.6100769 C187.98855794 313.93099615 189.31646391 315.25219914 190.64404297 316.57373047 C191.24366852 317.16302338 191.84329407 317.75231628 192.46109009 318.35946655 C198.54046554 324.43730576 202.24138421 329.63293304 202.4375 338.4375 C202.36629802 344.26311655 201.8834036 348.66912027 198.125 353.25 C192.68955084 358.23705194 188.38237777 360.39667037 180.9375 360.5625 C179.85082031 360.59988281 178.76414062 360.63726562 177.64453125 360.67578125 C169.64604788 359.70815119 164.34281282 355.04929253 158.8828125 349.46191406 C158.20864792 348.78833359 157.53448334 348.11475311 156.83988953 347.42076111 C154.63363361 345.21173831 152.44185391 342.98893058 150.25 340.765625 C148.71531389 339.2234716 147.17973706 337.68220414 145.64331055 336.14178467 C141.61658041 332.09983699 137.6020118 328.04601923 133.58990479 323.98956299 C129.48782323 319.84644538 125.37428837 315.71473365 121.26171875 311.58203125 C113.20493122 303.48244126 105.16095265 295.3702579 97.125 287.25 C92.98165454 288.82980853 89.66917499 290.8059672 86 293.3125 C63.93984871 307.87833346 36.78435842 317.19068296 10.2421875 317.48828125 C9.51392258 317.49812042 8.78565765 317.50795959 8.0353241 317.51809692 C-8.27501692 317.69298641 -24.02399488 317.58715383 -39.875 313.25 C-40.74044434 313.01394043 -41.60588867 312.77788086 -42.49755859 312.53466797 C-61.09548869 307.26032356 -78.48919925 298.98167307 -93.875 287.25 C-95.174375 286.26580078 -95.174375 286.26580078 -96.5 285.26171875 C-129.68394366 259.38861268 -151.46902733 222.23678706 -157.41210938 180.47583008 C-158.25814179 173.47682085 -158.11958636 166.41520825 -158.125 159.375 C-158.12567474 158.58932648 -158.12634949 157.80365295 -158.12704468 156.99417114 C-158.11130821 145.47434407 -157.69190695 134.47049453 -154.875 123.25 C-154.62556641 122.17322998 -154.62556641 122.17322998 -154.37109375 121.07470703 C-151.58855329 109.15873516 -147.23853244 98.22782058 -141.875 87.25 C-141.3078125 86.08597656 -140.740625 84.92195313 -140.15625 83.72265625 C-134.21432266 72.1611231 -126.68548098 61.84770514 -117.828125 52.35546875 C-116.23439276 50.63742539 -114.76041074 48.90134665 -113.3125 47.0625 C-85.70459613 15.20722631 -40.96709789 0.03150206 0 0 Z M-88.875 85.25 C-101.77217256 100.92474024 -111.11619587 121.0784841 -113.875 141.25 C-114.03935547 142.38501953 -114.03935547 142.38501953 -114.20703125 143.54296875 C-117.83797199 173.21985769 -110.28578637 204.47621369 -91.875 228.25 C-88.37975699 232.41502176 -84.64800621 236.33766564 -80.875 240.25 C-80.21886719 240.96929687 -79.56273437 241.68859375 -78.88671875 242.4296875 C-59.74173364 262.84553886 -31.0049517 273.0360675 -3.546875 274.5390625 C27.5728013 275.53297686 56.9929375 263.98425738 79.72265625 242.9609375 C102.40206935 221.39145167 115.58838067 192.35402371 116.42529297 160.99243164 C116.62680954 128.10089714 103.70716237 99.01522585 80.9375 75.6875 C59.73428842 54.5640805 30.40665984 43.2092342 0.625 42.875 C-34.70839957 43.27154037 -65.71135611 59.00368661 -88.875 85.25 Z " fill="#000000" transform="translate(233.875,75.75)"></path>
  </symbol>
</svg>
</svg>