<svg width="0" height="0" class="hidden">
  <symbol version="1.1" xmlns="http://www.w3.org/2000/svg" viewBox="0 0 512 512" id="telegram">
    <path d="M0 0 C1.01790619 0.00215515 2.03581238 0.0043103 3.08456421 0.00653076 C17.69363523 0.05620146 32.02575853 0.30709809 46.375 3.3125 C47.34985352 3.51117676 48.32470703 3.70985352 49.32910156 3.91455078 C97.7109774 14.03517194 141.69928269 35.9516877 177.375 70.3125 C178.3640332 71.26068604 178.3640332 71.26068604 179.37304688 72.22802734 C188.86130305 81.37247479 197.6012044 90.66984009 205.375 101.3125 C206.23306152 102.46355017 207.09113451 103.61459177 207.94921875 104.765625 C213.98736829 112.95680614 219.34595521 121.47054105 224.375 130.3125 C224.73948242 130.94430176 225.10396484 131.57610352 225.47949219 132.22705078 C247.08534998 169.97532572 256.85198095 212.74189997 256.6875 255.9375 C256.68534485 256.95540619 256.6831897 257.97331238 256.68096924 259.02206421 C256.63129854 273.63113523 256.38040191 287.96325853 253.375 302.3125 C253.07698486 303.77478027 253.07698486 303.77478027 252.77294922 305.26660156 C242.65232806 353.6484774 220.7358123 397.63678269 186.375 433.3125 C185.74287598 433.97185547 185.11075195 434.63121094 184.45947266 435.31054688 C175.31502521 444.79880305 166.01765991 453.5387044 155.375 461.3125 C154.22394983 462.17056152 153.07290823 463.02863451 151.921875 463.88671875 C143.73224019 469.92427396 135.22961724 475.30707302 126.375 480.3125 C125.66778809 480.7146875 124.96057617 481.116875 124.23193359 481.53125 C101.09654164 494.5566741 75.92537591 503.30551461 49.9375 508.625 C49.21860596 508.77235596 48.49971191 508.91971191 47.7590332 509.0715332 C33.08339502 511.86090125 18.55831162 512.66142619 3.64770508 512.62817383 C0.70811513 512.6250221 -2.2304558 512.64854926 -5.16992188 512.67382812 C-18.54306192 512.71848737 -31.43916711 511.51301542 -44.625 509.3125 C-46.33055054 509.03031616 -46.33055054 509.03031616 -48.07055664 508.74243164 C-91.33802759 500.97044532 -132.38793216 480.98345309 -165.625 452.3125 C-166.37007813 451.67828125 -167.11515625 451.0440625 -167.8828125 450.390625 C-181.38779833 438.57948485 -194.05918743 425.82889772 -204.625 411.3125 C-205.48149066 410.16255169 -206.33826433 409.01281411 -207.1953125 407.86328125 C-213.23534209 399.67315742 -218.61867614 391.16870382 -223.625 382.3125 C-224.0271875 381.60528809 -224.429375 380.89807617 -224.84375 380.16943359 C-237.8691741 357.03404164 -246.61801461 331.86287591 -251.9375 305.875 C-252.08485596 305.15610596 -252.23221191 304.43721191 -252.3840332 303.6965332 C-255.35789088 288.05024391 -255.99800362 272.57681954 -255.9375 256.6875 C-255.93534485 255.66959381 -255.9331897 254.65168762 -255.93096924 253.60293579 C-255.88129854 238.99386477 -255.63040191 224.66174147 -252.625 210.3125 C-252.42632324 209.33764648 -252.22764648 208.36279297 -252.02294922 207.35839844 C-241.90232806 158.9765226 -219.9858123 114.98821731 -185.625 79.3125 C-184.99287598 78.65314453 -184.36075195 77.99378906 -183.70947266 77.31445312 C-174.56502521 67.82619695 -165.26765991 59.0862956 -154.625 51.3125 C-153.47394983 50.45443848 -152.32290823 49.59636549 -151.171875 48.73828125 C-142.98224019 42.70072604 -134.47961724 37.31792698 -125.625 32.3125 C-124.91778809 31.9103125 -124.21057617 31.508125 -123.48193359 31.09375 C-100.34654164 18.0683259 -75.17537591 9.31948539 -49.1875 4 C-48.46860596 3.85264404 -47.74971191 3.70528809 -47.0090332 3.5534668 C-31.36274391 0.57960912 -15.88931954 -0.06050362 0 0 Z " fill="#26A5E5" transform="translate(255.625,-0.3125)"></path>
    <path d="M0 0 C4.17632266 4.45474417 4.20335672 8.81771311 4.14697266 14.63769531 C3.85779833 21.25315858 3.00224667 27.80795529 2.1875 34.375 C2.00309587 35.89499035 1.81893461 37.41501018 1.63500977 38.93505859 C-0.23983054 54.3194237 -2.19312896 69.67096245 -5.25390625 84.87109375 C-5.92589345 88.38209905 -6.42228197 91.90866358 -6.9152832 95.44897461 C-7.8866187 102.2974388 -8.96696193 109.12222561 -10.1015625 115.9453125 C-10.39771957 117.73591095 -10.39771957 117.73591095 -10.69985962 119.56268311 C-12.89230647 132.79012124 -15.12106343 146.01144724 -17.36218262 159.23071289 C-17.96237305 162.77763734 -18.55840258 166.32523488 -19.15332031 169.87304688 C-20.00709165 174.95287851 -20.8795518 180.02913121 -21.76824951 185.10296631 C-22.08445829 186.92245878 -22.3949132 188.74296251 -22.69903564 190.56451416 C-26.88608488 215.55850907 -26.88608488 215.55850907 -35 224.875 C-40.33677523 228.6400656 -46.84764647 228.02646822 -53 227 C-63.46414135 223.5612539 -72.29644875 216.46474898 -81.15625 210.125 C-87.2137823 205.8114304 -93.39071734 201.68935596 -99.58786011 197.58050537 C-102.79161923 195.45598311 -105.99115472 193.32511306 -109.19140625 191.1953125 C-110.48843288 190.33234004 -111.78547068 189.46938437 -113.08251953 188.60644531 C-113.72731262 188.17738892 -114.37210571 187.74833252 -115.03643799 187.30627441 C-116.35179385 186.43122402 -117.66734755 185.55647093 -118.98309326 184.68200684 C-122.86423685 182.10189656 -126.73979246 179.51375594 -130.60791016 176.91415405 C-131.81023515 176.10805162 -133.01444983 175.30475927 -134.22070312 174.50454712 C-151.00065354 163.36767086 -151.00065354 163.36767086 -154 156 C-154.14894855 147.21203535 -149.38859733 142.58663224 -143.59375 136.453125 C-139.21257829 131.99082048 -134.68001032 127.77446666 -129.9296875 123.7109375 C-127.15892418 121.25426881 -124.597071 118.60640023 -122 115.96875 C-119.43694772 113.44574541 -116.72654176 111.12437183 -114 108.78125 C-111.91662922 106.9257479 -109.95718793 104.98776899 -108 103 C-105.56099918 100.52340379 -103.09257578 98.17969143 -100.4375 95.9375 C-95.537066 91.737128 -91.0589491 87.11029045 -86.54272461 82.50561523 C-83.01175558 78.92642286 -79.39047173 75.58064267 -75.54223633 72.34643555 C-73.5492252 70.60645512 -71.82849169 68.70892447 -70.125 66.6875 C-69.26261719 65.67236328 -69.26261719 65.67236328 -68.3828125 64.63671875 C-67.92648437 64.09660156 -67.47015625 63.55648437 -67 63 C-66.67 62.67 -66.34 62.34 -66 62 C-65.95919217 60.00041636 -65.95745644 57.99954746 -66 56 C-71.48447936 55.44054116 -74.72132136 57.21327814 -79.140625 60.16796875 C-79.83101868 60.61472458 -80.52141235 61.06148041 -81.23272705 61.52177429 C-83.5000324 62.99774827 -85.75128243 64.49587711 -88 66 C-88.75740479 66.50404358 -89.51480957 67.00808716 -90.29516602 67.52740479 C-95.23914188 70.82325885 -100.15962796 74.15297177 -105.07345581 77.49356079 C-125.98671452 91.70589713 -147.06720055 105.65722235 -168.20681763 119.52986145 C-173.70821733 123.14222208 -179.18629446 126.78668376 -184.64086914 130.46948242 C-195.71777829 137.65577482 -208.19489319 137.397636 -220.9375 135.375 C-224.18910801 134.603432 -227.38087815 133.73249192 -230.57324219 132.74511719 C-233.48957952 131.8496784 -236.42022965 131.00909263 -239.3515625 130.1640625 C-241.65176375 129.4868227 -243.9512424 128.80712392 -246.25 128.125 C-247.32717285 127.80982422 -248.4043457 127.49464844 -249.51416016 127.16992188 C-269.09107251 121.18683857 -269.09107251 121.18683857 -274 115 C-274.6875 111.75 -274.6875 111.75 -274 108 C-268.53640476 100.09028532 -257.48654189 96.69317661 -249 93 C-247.93378418 92.53319824 -246.86756836 92.06639648 -245.76904297 91.58544922 C-238.14351409 88.25094652 -230.50328355 84.95141935 -222.85839844 81.66162109 C-217.04677367 79.160171 -211.24244119 76.64191088 -205.4375 74.125 C-204.25599365 73.61348389 -203.0744873 73.10196777 -201.85717773 72.57495117 C-194.53188149 69.40312033 -187.2108233 66.22169801 -179.8928833 63.03292847 C-155.65034415 52.47013023 -131.40327369 41.93614492 -106.95039368 31.86820984 C-101.79975401 29.74683969 -96.6564053 27.60843543 -91.515625 25.46328735 C-54.29469138 9.93343286 -54.29469138 9.93343286 -38.3125 4 C-36.78484009 3.43188599 -36.78484009 3.43188599 -35.22631836 2.85229492 C-10.76840339 -6.0303059 -10.76840339 -6.0303059 0 0 Z " fill="#FDFEFE" transform="translate(371,157)"></path>
  </symbol>
  <symbol version="1.1" xmlns="http://www.w3.org/2000/svg" viewBox="0 0 512 512" id="discord">
    <path d="M0 0 C1.55566406 2.52197266 1.55566406 2.52197266 3.015625 5.6640625 C3.54414063 6.78554687 4.07265625 7.90703125 4.6171875 9.0625 C5.15601563 10.238125 5.69484375 11.41375 6.25 12.625 C6.80429688 13.80835937 7.35859375 14.99171875 7.9296875 16.2109375 C9.29768382 19.13561929 10.65385927 22.06521059 12 25 C12.71615479 24.91435791 13.43230957 24.82871582 14.17016602 24.74047852 C52.4061399 20.25726441 89.78841677 20.7644512 128 25 C128.34256836 24.25314941 128.68513672 23.50629883 129.03808594 22.73681641 C130.59577891 19.360062 132.17259037 15.99258615 133.75 12.625 C134.55824219 10.8615625 134.55824219 10.8615625 135.3828125 9.0625 C136.17558594 7.38027344 136.17558594 7.38027344 136.984375 5.6640625 C137.46616211 4.62717285 137.94794922 3.5902832 138.44433594 2.52197266 C140.15777086 -0.25577102 140.86186012 -1.17735067 144 -2 C147.00732422 -1.72729492 147.00732422 -1.72729492 150.5546875 -0.98046875 C151.19974243 -0.8470105 151.84479736 -0.71355225 152.50939941 -0.5760498 C154.63512791 -0.12949371 156.75497493 0.33965055 158.875 0.8125 C159.60696594 0.9720517 160.33893188 1.13160339 161.09307861 1.29598999 C185.06679329 6.53851203 208.36217151 13.91397185 231.18457031 22.92871094 C233.61475623 23.85341228 236.03722269 24.65828056 238.5234375 25.4140625 C251.5710301 29.74812111 256.65083551 41.66220626 263 53 C264.07147088 54.83960444 265.14688126 56.676921 266.2265625 58.51171875 C269.22398222 63.63487157 272.12382771 68.80805878 275 74 C275.39493652 74.70334473 275.78987305 75.40668945 276.19677734 76.13134766 C299.44215785 117.63879842 314.31338841 164.37392267 321.75 211.25 C322.04801514 213.11096313 322.04801514 213.11096313 322.35205078 215.00952148 C325.39457137 235.06486822 326.30401125 254.87654375 326.20581055 275.15307617 C326.18737849 279.08844413 326.18530294 283.02357738 326.18554688 286.95898438 C326.18063549 289.50521034 326.17480884 292.05143474 326.16796875 294.59765625 C326.16685593 295.75209732 326.1657431 296.90653839 326.16459656 298.09596252 C326.04065609 319.64487703 326.04065609 319.64487703 323 326 C321.36206055 327.5546875 321.36206055 327.5546875 319.38671875 328.875 C318.64478271 329.37829834 317.90284668 329.88159668 317.13842773 330.40014648 C316.32962158 330.92809814 315.52081543 331.4560498 314.6875 332 C313.83937744 332.56468994 312.99125488 333.12937988 312.11743164 333.71118164 C309.42313102 335.49248641 306.71440656 337.24951067 304 339 C303.16404297 339.54253418 302.32808594 340.08506836 301.46679688 340.64404297 C270.32999997 360.7384235 231.20154896 383.33350943 194 390 C189.52396397 385.00087691 185.78712689 379.88282373 182.25 374.1875 C181.73993408 373.37087891 181.22986816 372.55425781 180.7043457 371.71289062 C177.08860909 365.87212842 173.58037154 359.97294395 170.1875 354 C169.74889648 353.24098389 169.31029297 352.48196777 168.85839844 351.69995117 C167.82420036 349.8430184 166.90127035 347.92496149 166 346 C167 343 167 343 168.95507812 341.88427734 C169.80521484 341.5383252 170.65535156 341.19237305 171.53125 340.8359375 C172.47991943 340.44003418 173.42858887 340.04413086 174.40600586 339.63623047 C175.42702393 339.22002441 176.44804199 338.80381836 177.5 338.375 C187.66120698 334.11187826 197.37267095 329.34995198 207 324 C207.21895274 321.94309198 207.21895274 321.94309198 205.78515625 320.60546875 C203.89414948 319.04892577 202.2552972 317.96843184 200 317 C197.9403298 317.22965143 197.9403298 317.22965143 195.890625 318.1015625 C195.10051025 318.39667725 194.31039551 318.69179199 193.49633789 318.99584961 C192.67254639 319.32721924 191.84875488 319.65858887 191 320 C190.19747803 320.3204126 189.39495605 320.6408252 188.56811523 320.97094727 C186.8620794 321.66154523 185.15814597 322.3573536 183.45605469 323.05761719 C110.54289457 352.81441657 29.03340852 351.43230163 -44 323 C-45.2702051 322.43548272 -46.536602 321.86232923 -47.79931641 321.28125 C-48.42687332 320.99564209 -49.05443024 320.71003418 -49.70100403 320.41577148 C-51.45330448 319.60746441 -53.19445455 318.77511159 -54.93481445 317.94140625 C-57.93940753 316.72063999 -57.93940753 316.72063999 -60.75854492 317.74609375 C-63.03212911 319.01797354 -65.05078687 320.26736611 -67 322 C-67 322.66 -67 323.32 -67 324 C-53.91532637 331.03758729 -40.89264129 337.70401325 -27 343 C-27.54260474 347.83211516 -29.05109654 351.60194716 -31.375 355.8125 C-31.72296631 356.45268066 -32.07093262 357.09286133 -32.42944336 357.75244141 C-38.69594463 369.06843565 -45.78016451 380.00539182 -54 390 C-96.58168732 378.96337381 -136.97427062 357.94251348 -173 333 C-173.5563916 332.6179541 -174.1127832 332.2359082 -174.68603516 331.84228516 C-183.81890408 325.54328775 -183.81890408 325.54328775 -185 322 C-186.01450403 313.24882656 -186.16949128 304.4602857 -186.203125 295.66015625 C-186.21013931 294.42736435 -186.21715363 293.19457245 -186.22438049 291.92442322 C-186.24178293 287.97043188 -186.24881383 284.01652148 -186.25 280.0625 C-186.25044186 279.38948853 -186.25088371 278.71647705 -186.25133896 278.02307129 C-186.25816681 258.20179432 -186.10258209 238.62668223 -183 219 C-182.82307617 217.84419434 -182.64615234 216.68838867 -182.46386719 215.49755859 C-175.8547011 173.29135546 -163.40722789 132.56336103 -145 94 C-144.55430664 93.06478516 -144.10861328 92.12957031 -143.64941406 91.16601562 C-136.94370824 77.20231525 -129.64488048 63.7234621 -121.515625 50.53808594 C-120.06982843 48.11693562 -118.74376189 45.66259644 -117.4375 43.1640625 C-111.21438613 31.70314071 -104.15718774 27.31341692 -91.98876953 23.04785156 C-88.79195716 21.92706095 -85.63035544 20.72965529 -82.46484375 19.5234375 C-61.09907088 11.50823948 -39.30356297 5.16021855 -17 0.375 C-15.75871338 0.10268555 -14.51742676 -0.16962891 -13.23852539 -0.45019531 C-12.08731201 -0.68577148 -10.93609863 -0.92134766 -9.75 -1.1640625 C-8.22632813 -1.48044678 -8.22632813 -1.48044678 -6.671875 -1.80322266 C-3.59453127 -2.02986182 -2.44040993 -1.87623614 0 0 Z M-47.859375 177.171875 C-58.325932 190.99995396 -61.37338072 205.97007903 -60 223 C-57.66517823 236.05377626 -50.366891 248.89803172 -39.546875 256.7890625 C-28.38684955 263.7384035 -18.00960442 266.33340087 -4.9453125 263.77734375 C7.34974058 260.5323629 16.67559811 252.01452642 23.53515625 241.5234375 C31.1031259 228.48634845 32.69169916 213.42228815 29.24609375 198.80078125 C24.73630847 184.06378417 16.19001568 173.01146473 2.5859375 165.703125 C-15.06405821 157.76925071 -34.8536523 163.4176215 -47.859375 177.171875 Z M124.32421875 175.484375 C112.53354024 188.24605056 109.30979285 203.02675231 109.86816406 219.82958984 C110.64448098 232.61006658 117.5582975 245.53334423 127 254 C137.8324621 262.11248622 148.27723307 266.17716209 161.875 264.4375 C174.12882944 262.02125194 183.25808549 255.71701711 191 246 C199.49297962 232.75592027 203.18023762 217.59622692 199.86791992 202.16137695 C196.51758215 187.89547611 189.94289592 176.75031893 177.6328125 168.57421875 C159.41552783 157.68168801 139.42905276 161.16205202 124.32421875 175.484375 Z " fill="#5764F2" transform="translate(186,62)"></path>
  </symbol>
  <symbol version="1.1" xmlns="http://www.w3.org/2000/svg" viewBox="0 0 512 512" id="slack">
    <path d="M0 0 C1.17175781 0.5259375 1.17175781 0.5259375 2.3671875 1.0625 C14.71738437 7.21623131 24.55386121 18.32827201 29.15494347 31.31540203 C32.05453345 40.52689624 32.29725729 49.7182703 32.29052734 59.30541992 C32.29652632 60.709639 32.30333496 62.1138548 32.31088257 63.51806641 C32.32841217 67.30144449 32.33323243 71.08473188 32.33451414 74.86814666 C32.33594391 77.24111523 32.34022904 79.61406135 32.34550858 81.98702431 C32.36396683 90.29190132 32.37218462 98.59671449 32.37060547 106.90161133 C32.36940572 114.60024847 32.39048615 122.29860453 32.4220928 129.99717063 C32.448386 136.64218669 32.45896732 143.28711169 32.45769465 149.93217927 C32.45718876 153.88526314 32.46266199 157.83809688 32.48405075 161.79112816 C32.70845713 206.38132734 32.70845713 206.38132734 17.0234375 223.09375 C4.79466896 234.6142887 -9.4499592 239.49408926 -26.078125 239.21484375 C-39.95867281 238.45445517 -52.03185352 232.57659899 -62 223 C-74.20544618 208.91350432 -77.30307151 194.80289489 -77.29052734 176.62451172 C-77.29652421 175.200736 -77.30333239 173.77696351 -77.31088257 172.35319519 C-77.32843555 168.5119088 -77.33323349 164.67071172 -77.33451414 160.8293891 C-77.3359428 158.42074646 -77.34022592 156.01212601 -77.34550858 153.60348892 C-77.363976 145.17542346 -77.37218364 136.74742096 -77.37060547 128.31933594 C-77.36940612 120.50427371 -77.39047618 112.68948855 -77.4220928 104.87449634 C-77.44838392 98.13183689 -77.45896737 91.38926719 -77.45769465 84.64655697 C-77.45718862 80.63421491 -77.46267004 76.62211924 -77.48405075 72.60982895 C-77.50365034 68.82900057 -77.50341237 65.04864807 -77.48901749 61.26780128 C-77.48598422 59.24799368 -77.50245382 57.22818488 -77.51989746 55.20845032 C-77.40808969 38.62284849 -73.28984104 23.44480029 -61.6875 11.125 C-45.5606539 -3.99050151 -20.39616075 -9.71854682 0 0 Z " fill="#4BAF4F" transform="translate(346,4)"></path>
    <path d="M0 0 C1.33820183 -0.00299801 2.6764028 -0.00640201 4.01460266 -0.01017761 C7.62646946 -0.01895785 11.23831253 -0.02135323 14.85018897 -0.0219934 C17.11424295 -0.02270746 19.37829102 -0.02484852 21.64234352 -0.02749062 C29.56234745 -0.03672525 37.48233462 -0.04082799 45.40234375 -0.04003906 C52.74984532 -0.03943923 60.09727325 -0.04997742 67.44475621 -0.06578273 C73.78141326 -0.07892103 80.11804644 -0.08422031 86.45471698 -0.08358365 C90.22660437 -0.08333045 93.99842626 -0.08608217 97.77029991 -0.0967617 C101.32364201 -0.10654896 104.87685744 -0.10645034 108.43020439 -0.09924507 C110.33111064 -0.09772568 112.23201717 -0.10597163 114.13290405 -0.11468506 C131.402036 -0.05263635 146.32704338 2.40160035 159.5324707 14.14526367 C160.20922852 14.6944043 160.88598633 15.24354492 161.58325195 15.80932617 C170.32518249 23.51580474 176.70779896 36.5102211 177.5324707 48.14526367 C177.61239258 49.19842773 177.69231445 50.2515918 177.7746582 51.33666992 C178.37869614 67.2370804 173.49461996 80.17091594 163.4699707 92.27026367 C154.04473452 102.36305452 141.30824875 108.68052355 127.48509789 109.27669144 C125.85754539 109.28115343 125.85754539 109.28115343 124.19711304 109.28570557 C122.31756927 109.29427078 122.31756927 109.29427078 120.40005493 109.30300903 C119.02410899 109.30425417 117.64816293 109.30537931 116.2722168 109.30639648 C114.81298702 109.31102948 113.35375844 109.31605478 111.89453125 109.32144165 C107.93966193 109.33452336 103.98480956 109.3410026 100.02992201 109.34545231 C97.55433522 109.34839054 95.07875298 109.35249679 92.60316849 109.35695648 C84.84400689 109.37062174 77.08485579 109.38029253 69.325683 109.38415837 C60.39453643 109.38863357 51.46354333 109.40616052 42.5324434 109.43515897 C35.61244377 109.45684084 28.69248711 109.46686615 21.7724539 109.46819949 C17.64731853 109.46924309 13.5223276 109.47505506 9.39722824 109.4930191 C5.51148244 109.50961223 1.62598792 109.5116014 -2.25978088 109.5028801 C-3.67702792 109.50211563 -5.0942891 109.50637344 -6.51150131 109.51633835 C-23.89426552 109.63128343 -37.44311209 105.61869829 -50.18237305 93.48510742 C-61.82797931 81.56080289 -65.7593973 68.58471414 -65.78442383 52.28271484 C-65.57679444 37.35006063 -59.25772489 25.36221005 -49.15112305 14.53979492 C-34.97667273 1.89214129 -18.27954068 -0.00670202 0 0 Z " fill="#00BCD3" transform="translate(65.467529296875,133.854736328125)"></path>
    <path d="M0 0 C1.36982406 -0.00271773 2.73964666 -0.006283 4.10946655 -0.01062012 C7.79343282 -0.01965445 11.47728572 -0.01623706 15.16125369 -0.00986195 C19.04020894 -0.00475408 22.91915528 -0.00950667 26.79811096 -0.01263428 C33.3099235 -0.01626053 39.82169049 -0.01151065 46.33349609 -0.00195312 C53.83048038 0.00892425 61.32735578 0.00540563 68.82433742 -0.00560594 C75.29352823 -0.01472269 81.76268652 -0.01594262 88.23188168 -0.0107286 C92.08137324 -0.00763231 95.93081388 -0.00713426 99.78030205 -0.01380157 C103.40263639 -0.01963853 107.02483233 -0.0154639 110.64715195 -0.00401306 C112.58757596 -0.00016708 114.52801187 -0.00599786 116.46842957 -0.01226807 C134.60624131 0.07391339 150.04349704 3.88293421 163.58813477 16.50878906 C175.33436099 28.88039307 178.41124513 43.52014879 178.17407227 59.90332031 C177.65886146 74.48480625 170.7241796 86.362008 160.27954102 96.25878906 C150.12237719 104.79814519 137.84608482 109.36267678 124.60324097 109.39923096 C122.73631844 109.40779617 122.73631844 109.40779617 120.8316803 109.41653442 C119.46517954 109.41777956 118.09867868 109.4189047 116.73217773 109.41992188 C115.28280004 109.42455493 113.83342355 109.42958024 112.38404846 109.43496704 C108.4560378 109.44804821 104.52804419 109.45452789 100.60001516 109.4589777 C98.14117933 109.46191603 95.68234807 109.4660223 93.22351456 109.47048187 C85.51667869 109.48414701 77.80985339 109.49381785 70.10300624 109.49768376 C61.23241977 109.50215889 52.36198781 109.51968555 43.49144828 109.54868436 C36.61815738 109.57036708 29.74490973 109.58039159 22.87158501 109.58172488 C18.7743949 109.58276842 14.67735022 109.58857914 10.58019638 109.60654449 C6.7207149 109.62313911 2.86148639 109.62512609 -0.99801826 109.61640549 C-2.40559001 109.6156411 -3.813176 109.61989779 -5.22071266 109.62986374 C-22.68545035 109.74615573 -37.29186675 105.51564669 -50.09936523 93.25878906 C-60.97253136 81.32947145 -65.49235471 67.73116217 -65.31030273 51.69238281 C-64.32111321 35.59057561 -56.53218958 23.00807541 -44.94311523 12.25878906 C-31.93532933 1.32470816 -16.36489077 -0.05279569 0 0 Z " fill="#FF9800" transform="translate(334.099365234375,268.7412109375)"></path>
    <path d="M0 0 C10.24513837 9.69690355 17.03400602 22.66646587 17.65486526 36.91457558 C17.65932726 38.52000504 17.65932726 38.52000504 17.66387939 40.15786743 C17.66958954 41.3940683 17.67529968 42.63026917 17.68118286 43.90393066 C17.68242799 45.26098623 17.68355314 46.6180419 17.68457031 47.97509766 C17.68920342 49.41462327 17.69422874 50.85414766 17.69961548 52.29367065 C17.71269609 56.19482267 17.71917622 60.09595751 17.72362614 63.99712801 C17.72656456 66.43921289 17.73067085 68.88129316 17.73513031 71.3233757 C17.74879532 78.97788585 17.75846621 86.63238535 17.7623322 94.28690684 C17.76680726 103.09693324 17.78433364 111.90680405 17.8133328 120.71678317 C17.83501638 127.54336535 17.84504007 134.36990398 17.84637332 141.19652021 C17.8474168 145.26576507 17.85322624 149.33486348 17.87119293 153.40407181 C17.88778905 157.23728899 17.88977383 161.07025145 17.88105392 164.90349197 C17.88028961 166.30138842 17.88454516 167.69929922 17.89451218 169.09716034 C18.01017055 186.34569044 13.95507367 201.04113765 1.80859375 213.71484375 C-11.13309333 226.08134474 -24.8693205 229.55045489 -42.33203125 229.20703125 C-55.6799348 228.62458607 -68.6743326 221.81411658 -77.734375 212.05859375 C-89.30477359 197.7123372 -91.79371785 181.84764805 -91.73535156 163.89086914 C-91.73806936 162.53089716 -91.74163468 161.17092665 -91.74597168 159.81095886 C-91.75500511 156.15385096 -91.751589 152.49685728 -91.74521351 148.83974767 C-91.74010515 144.98881962 -91.74485836 141.13790053 -91.74798584 137.28697205 C-91.75161196 130.82223783 -91.74686257 124.35754949 -91.73730469 117.89282227 C-91.72642737 110.45036929 -91.72994594 103.00802598 -91.7409575 95.56557566 C-91.75007468 89.14309353 -91.75129397 82.72064415 -91.74608016 76.29815763 C-91.7429841 72.47661161 -91.74248517 68.65511689 -91.74915314 64.8335743 C-91.75499073 61.23750441 -91.75081434 57.64157392 -91.73936462 54.04551888 C-91.73551928 52.11940826 -91.74134887 50.19328565 -91.74761963 48.2671814 C-91.65825465 29.59269341 -88.11123855 15.28506034 -75.15625 1.4140625 C-53.93186385 -18.92313066 -22.11969155 -18.77033763 0 0 Z " fill="#E91D62" transform="translate(225.4765625,283.1015625)"></path>
    <path d="M0 0 C1.90558685 0.00424484 1.90558685 0.00424484 3.84967041 0.00857544 C7.18363491 0.01779266 10.51731089 0.03567577 13.85119629 0.0579834 C17.27056421 0.07865474 20.68996225 0.08762207 24.109375 0.09765625 C30.78653611 0.11957682 37.46356395 0.15294804 44.140625 0.1953125 C44.19175418 7.91419615 44.22653701 15.63303538 44.25048828 23.35205078 C44.26048388 25.97251009 44.27408483 28.59295843 44.29150391 31.21337891 C44.31603751 35.00165533 44.32717288 38.78978302 44.3359375 42.578125 C44.34626007 43.73079865 44.35658264 44.88347229 44.36721802 46.07107544 C44.36952869 63.20438479 41.823901 78.12417434 30.140625 91.1953125 C29.59535156 91.82179688 29.05007812 92.44828125 28.48828125 93.09375 C19.3192438 102.97473624 6.33953592 108.41667224 -6.98046875 109.43359375 C-24.3205215 109.82165147 -37.97459894 104.44760655 -50.53515625 92.67578125 C-61.47983812 80.99532245 -65.32045073 66.98177448 -65.07421875 51.33984375 C-64.5610023 37.43199663 -58.39877255 25.14168094 -48.859375 15.1953125 C-34.4729219 2.55736678 -18.60037806 -0.15910894 0 0 Z " fill="#E91D62" transform="translate(64.859375,268.8046875)"></path>
    <path d="M0 0 C12.8940861 8.82128161 21.77221241 21.10298783 24.79051208 36.58499146 C25.24915213 39.80654442 25.37027282 42.84100076 25.36352539 46.09326172 C25.36341209 47.92448074 25.36341209 47.92448074 25.36329651 49.79269409 C25.35813522 51.09602692 25.35297394 52.39935974 25.34765625 53.7421875 C25.34578901 55.10124662 25.34436655 56.46030642 25.34336853 57.81936646 C25.33956748 61.38018686 25.32975802 64.94096587 25.31866455 68.50177002 C25.30839835 72.14179932 25.30385979 75.78183537 25.29882812 79.421875 C25.28813339 86.55210017 25.27108622 93.68229737 25.25 100.8125 C17.37350557 100.88245383 9.49708588 100.93553908 1.62035751 100.96793652 C-2.03836401 100.98349698 -5.69687077 101.00455566 -9.35546875 101.03881836 C-12.89572975 101.07175991 -16.43578606 101.08942504 -19.97618866 101.09713173 C-21.96338155 101.10525518 -23.95049374 101.12861689 -25.93756104 101.15238953 C-43.38259788 101.15557639 -57.12083462 95.95667439 -69.75 83.8125 C-79.93246292 72.11513205 -84.21045219 57.76158384 -83.6875 42.4375 C-82.22147021 26.14457799 -74.82653124 13.40791579 -62.53125 2.8203125 C-44.34327431 -10.30977108 -19.20523108 -11.37499912 0 0 Z " fill="#00BCD3" transform="translate(217.75,7.1875)"></path>
    <path d="M0 0 C7.87649443 -0.06995383 15.75291412 -0.12303908 23.62964249 -0.15543652 C27.28836401 -0.17099698 30.94687077 -0.19205566 34.60546875 -0.22631836 C38.14572975 -0.25925991 41.68578606 -0.27692504 45.22618866 -0.28463173 C47.21338155 -0.29275518 49.20049374 -0.31611689 51.18756104 -0.33988953 C67.48255549 -0.3428663 81.81943082 4.07476212 93.75 15.52734375 C102.23618552 24.85330805 108.36502796 37.30055926 109 50 C109.05027344 50.65742188 109.10054688 51.31484375 109.15234375 51.9921875 C109.82541653 66.69209691 104.46245397 80.52574936 94.75 91.375 C85.60918929 101.10428825 73.01436111 107.68138552 59.55859375 108.23828125 C49.69496799 108.45109598 41.10121257 108.2763039 32 104 C31.21753906 103.649375 30.43507813 103.29875 29.62890625 102.9375 C17.08567433 96.67675339 7.91785693 85.71945646 2.82421875 72.8125 C0.18168028 63.79530712 -0.27204541 55.27070755 -0.1953125 45.8984375 C-0.1924826 44.58082428 -0.18965271 43.26321106 -0.18673706 41.90567017 C-0.17917444 38.43691129 -0.1595913 34.9683253 -0.1373291 31.49963379 C-0.1167099 27.94639422 -0.10770131 24.39312616 -0.09765625 20.83984375 C-0.07633681 13.89315905 -0.04229233 6.94658787 0 0 Z " fill="#FF9800" transform="translate(269,404)"></path>
    <path d="M0 0 C0.61359375 0.41636719 1.2271875 0.83273438 1.859375 1.26171875 C11.64502441 8.73562071 18.1588553 20.96843884 20.578125 32.8359375 C22.77057176 49.27928818 19.89605054 64.51349078 9.7734375 77.95703125 C0.24877343 89.00866528 -11.50016166 95.92725379 -26 98 C-28.09228997 98.08283851 -30.18683702 98.11786963 -32.28076172 98.11352539 C-33.5015744 98.11344986 -34.72238708 98.11337433 -35.98019409 98.11329651 C-37.28352692 98.10813522 -38.58685974 98.10297394 -39.9296875 98.09765625 C-41.28874662 98.09578901 -42.64780642 98.09436655 -44.00686646 98.09336853 C-47.56768686 98.08956748 -51.12846587 98.07975802 -54.68927002 98.06866455 C-58.32929932 98.05839835 -61.96933537 98.05385979 -65.609375 98.04882812 C-72.73960017 98.03813339 -79.86979737 98.02108622 -87 98 C-87.09323215 89.73235889 -87.16403168 81.46494233 -87.20724869 73.19690323 C-87.2280048 69.35650129 -87.25609877 65.51646253 -87.30175781 61.67626953 C-87.34564916 57.96092987 -87.36922681 54.24593654 -87.37950897 50.53035736 C-87.38682366 49.1223481 -87.40110434 47.71435491 -87.42292023 46.30649567 C-87.67130773 29.59190117 -82.80133925 16.49428079 -71.39453125 4.29296875 C-67.89919998 0.9458897 -64.19850237 -1.61585044 -60 -4 C-59.319375 -4.38929688 -58.63875 -4.77859375 -57.9375 -5.1796875 C-39.31437703 -15.14596815 -16.93405212 -11.69396956 0 0 Z " fill="#4CAE50" transform="translate(491,145)"></path>
  </symbol>
  <symbol version="1.1" xmlns="http://www.w3.org/2000/svg" viewBox="0 0 512 512" id="menu">
    <path d="M0 0 C0.78733249 -0.00350607 1.57466498 -0.00701215 2.38585603 -0.01062447 C5.02819321 -0.01993982 7.67031005 -0.0150148 10.3126564 -0.01015663 C12.224617 -0.01389282 14.13657608 -0.01849422 16.04853272 -0.02388728 C21.30601822 -0.03613656 26.56344017 -0.03585453 31.82093668 -0.03349853 C37.48979711 -0.03309085 43.15863704 -0.04412485 48.82748795 -0.05361366 C59.93531498 -0.0702353 71.04312079 -0.07572374 82.15095922 -0.07683842 C91.17914776 -0.07778836 100.20732928 -0.08189594 109.23551559 -0.08823967 C130.66104944 -0.10298834 152.08657636 -0.11528906 173.51211548 -0.11424255 C174.5399138 -0.11419582 174.5399138 -0.11419582 175.58847572 -0.11414814 C179.06133 -0.11398192 182.53418428 -0.11378384 186.00703856 -0.11357872 C186.69675656 -0.11353883 187.38647455 -0.11349894 188.09709309 -0.11345784 C189.49187127 -0.11337697 190.88664946 -0.11329337 192.28142764 -0.11320706 C213.9797099 -0.11198167 235.67792963 -0.1269924 257.376194 -0.15435219 C281.75581637 -0.18508031 306.13538724 -0.2022589 330.51503205 -0.20042574 C343.42283991 -0.19976146 356.33057727 -0.20527051 369.23836899 -0.22678185 C380.22828888 -0.24497942 391.21810631 -0.24935265 402.20803472 -0.235763 C407.81532483 -0.22922617 413.4224183 -0.22914214 419.02968979 -0.2464695 C424.16440101 -0.26217338 429.29875922 -0.25936382 434.4334617 -0.24190123 C436.28943879 -0.23882544 438.14544205 -0.24248548 440.00138828 -0.25362138 C451.87730192 -0.32014993 462.37913744 0.02445451 471.51193619 8.55414391 C478.9055991 16.77770775 480.62508685 25.49172525 480.35568619 36.26898766 C479.88135984 44.65468221 476.26849096 51.6602059 470.04318619 57.25726891 C463.16414474 62.43030808 456.72814482 64.5634816 448.08637238 64.51453781 C447.29903988 64.51804389 446.51170739 64.52154996 445.70051634 64.52516228 C443.05817917 64.53447763 440.41606232 64.52955261 437.77371597 64.52469444 C435.86175537 64.52843063 433.9497963 64.53303203 432.03783965 64.53842509 C426.78035416 64.55067437 421.52293221 64.55039234 416.2654357 64.54803634 C410.59657526 64.54762866 404.92773534 64.55866266 399.25888443 64.56815147 C388.15105739 64.58477311 377.04325158 64.59026155 365.93541315 64.59137623 C356.90722462 64.59232617 347.8790431 64.59643375 338.85085678 64.60277748 C317.42532294 64.61752615 295.99979602 64.62982687 274.5742569 64.62878036 C273.54645858 64.62873363 273.54645858 64.62873363 272.49789665 64.62868595 C269.02504237 64.62851973 265.55218809 64.62832165 262.07933381 64.62811653 C261.38961582 64.62807664 260.69989783 64.62803675 259.98927929 64.62799565 C258.5945011 64.62791478 257.19972292 64.62783118 255.80494474 64.62774487 C234.10666248 64.62651948 212.40844274 64.64153021 190.71017838 64.66889 C166.330556 64.69961812 141.95098514 64.71679671 117.57134032 64.71496356 C104.66353246 64.71429927 91.7557951 64.71980832 78.84800339 64.74131966 C67.8580835 64.75951723 56.86826607 64.76389047 45.87833765 64.75030081 C40.27104754 64.74376398 34.66395408 64.74367995 29.05668259 64.76100731 C23.92197137 64.77671119 18.78761315 64.77390163 13.65291068 64.75643905 C11.79693359 64.75336325 9.94093033 64.75702329 8.08498409 64.7681592 C-3.79092954 64.83468774 -14.29276506 64.4900833 -23.42556381 55.96039391 C-30.81922672 47.73683006 -32.53871448 39.02281256 -32.26931381 28.24555016 C-31.79498746 19.8598556 -28.18211858 12.85433191 -21.95681381 7.25726891 C-15.07777236 2.08422974 -8.64177244 -0.04894379 0 0 Z "  transform="translate(31.95681381225586,383.74273109436035)"></path>
    <path d="M0 0 C0.78733249 -0.00350607 1.57466498 -0.00701215 2.38585603 -0.01062447 C5.02819321 -0.01993982 7.67031005 -0.0150148 10.3126564 -0.01015663 C12.224617 -0.01389282 14.13657608 -0.01849422 16.04853272 -0.02388728 C21.30601822 -0.03613656 26.56344017 -0.03585453 31.82093668 -0.03349853 C37.48979711 -0.03309085 43.15863704 -0.04412485 48.82748795 -0.05361366 C59.93531498 -0.0702353 71.04312079 -0.07572374 82.15095922 -0.07683842 C91.17914776 -0.07778836 100.20732928 -0.08189594 109.23551559 -0.08823967 C130.66104944 -0.10298834 152.08657636 -0.11528906 173.51211548 -0.11424255 C174.5399138 -0.11419582 174.5399138 -0.11419582 175.58847572 -0.11414814 C179.06133 -0.11398192 182.53418428 -0.11378384 186.00703856 -0.11357872 C186.69675656 -0.11353883 187.38647455 -0.11349894 188.09709309 -0.11345784 C189.49187127 -0.11337697 190.88664946 -0.11329337 192.28142764 -0.11320706 C213.9797099 -0.11198167 235.67792963 -0.1269924 257.376194 -0.15435219 C281.75581637 -0.18508031 306.13538724 -0.2022589 330.51503205 -0.20042574 C343.42283991 -0.19976146 356.33057727 -0.20527051 369.23836899 -0.22678185 C380.22828888 -0.24497942 391.21810631 -0.24935265 402.20803472 -0.235763 C407.81532483 -0.22922617 413.4224183 -0.22914214 419.02968979 -0.2464695 C424.16440101 -0.26217338 429.29875922 -0.25936382 434.4334617 -0.24190123 C436.28943879 -0.23882544 438.14544205 -0.24248548 440.00138828 -0.25362138 C451.87730192 -0.32014993 462.37913744 0.02445451 471.51193619 8.55414391 C478.9055991 16.77770775 480.62508685 25.49172525 480.35568619 36.26898766 C479.88135984 44.65468221 476.26849096 51.6602059 470.04318619 57.25726891 C463.16414474 62.43030808 456.72814482 64.5634816 448.08637238 64.51453781 C447.29903988 64.51804389 446.51170739 64.52154996 445.70051634 64.52516228 C443.05817917 64.53447763 440.41606232 64.52955261 437.77371597 64.52469444 C435.86175537 64.52843063 433.9497963 64.53303203 432.03783965 64.53842509 C426.78035416 64.55067437 421.52293221 64.55039234 416.2654357 64.54803634 C410.59657526 64.54762866 404.92773534 64.55866266 399.25888443 64.56815147 C388.15105739 64.58477311 377.04325158 64.59026155 365.93541315 64.59137623 C356.90722462 64.59232617 347.8790431 64.59643375 338.85085678 64.60277748 C317.42532294 64.61752615 295.99979602 64.62982687 274.5742569 64.62878036 C273.54645858 64.62873363 273.54645858 64.62873363 272.49789665 64.62868595 C269.02504237 64.62851973 265.55218809 64.62832165 262.07933381 64.62811653 C261.38961582 64.62807664 260.69989783 64.62803675 259.98927929 64.62799565 C258.5945011 64.62791478 257.19972292 64.62783118 255.80494474 64.62774487 C234.10666248 64.62651948 212.40844274 64.64153021 190.71017838 64.66889 C166.330556 64.69961812 141.95098514 64.71679671 117.57134032 64.71496356 C104.66353246 64.71429927 91.7557951 64.71980832 78.84800339 64.74131966 C67.8580835 64.75951723 56.86826607 64.76389047 45.87833765 64.75030081 C40.27104754 64.74376398 34.66395408 64.74367995 29.05668259 64.76100731 C23.92197137 64.77671119 18.78761315 64.77390163 13.65291068 64.75643905 C11.79693359 64.75336325 9.94093033 64.75702329 8.08498409 64.7681592 C-3.79092954 64.83468774 -14.29276506 64.4900833 -23.42556381 55.96039391 C-30.81922672 47.73683006 -32.53871448 39.02281256 -32.26931381 28.24555016 C-31.79498746 19.8598556 -28.18211858 12.85433191 -21.95681381 7.25726891 C-15.07777236 2.08422974 -8.64177244 -0.04894379 0 0 Z " transform="translate(31.95681381225586,223.74273109436035)"></path>
    <path d="M0 0 C0.78733249 -0.00350607 1.57466498 -0.00701215 2.38585603 -0.01062447 C5.02819321 -0.01993982 7.67031005 -0.0150148 10.3126564 -0.01015663 C12.224617 -0.01389282 14.13657608 -0.01849422 16.04853272 -0.02388728 C21.30601822 -0.03613656 26.56344017 -0.03585453 31.82093668 -0.03349853 C37.48979711 -0.03309085 43.15863704 -0.04412485 48.82748795 -0.05361366 C59.93531498 -0.0702353 71.04312079 -0.07572374 82.15095922 -0.07683842 C91.17914776 -0.07778836 100.20732928 -0.08189594 109.23551559 -0.08823967 C130.66104944 -0.10298834 152.08657636 -0.11528906 173.51211548 -0.11424255 C174.5399138 -0.11419582 174.5399138 -0.11419582 175.58847572 -0.11414814 C179.06133 -0.11398192 182.53418428 -0.11378384 186.00703856 -0.11357872 C186.69675656 -0.11353883 187.38647455 -0.11349894 188.09709309 -0.11345784 C189.49187127 -0.11337697 190.88664946 -0.11329337 192.28142764 -0.11320706 C213.9797099 -0.11198167 235.67792963 -0.1269924 257.376194 -0.15435219 C281.75581637 -0.18508031 306.13538724 -0.2022589 330.51503205 -0.20042574 C343.42283991 -0.19976146 356.33057727 -0.20527051 369.23836899 -0.22678185 C380.22828888 -0.24497942 391.21810631 -0.24935265 402.20803472 -0.235763 C407.81532483 -0.22922617 413.4224183 -0.22914214 419.02968979 -0.2464695 C424.16440101 -0.26217338 429.29875922 -0.25936382 434.4334617 -0.24190123 C436.28943879 -0.23882544 438.14544205 -0.24248548 440.00138828 -0.25362138 C451.87730192 -0.32014993 462.37913744 0.02445451 471.51193619 8.55414391 C478.9055991 16.77770775 480.62508685 25.49172525 480.35568619 36.26898766 C479.88135984 44.65468221 476.26849096 51.6602059 470.04318619 57.25726891 C463.16414474 62.43030808 456.72814482 64.5634816 448.08637238 64.51453781 C447.29903988 64.51804389 446.51170739 64.52154996 445.70051634 64.52516228 C443.05817917 64.53447763 440.41606232 64.52955261 437.77371597 64.52469444 C435.86175537 64.52843063 433.9497963 64.53303203 432.03783965 64.53842509 C426.78035416 64.55067437 421.52293221 64.55039234 416.2654357 64.54803634 C410.59657526 64.54762866 404.92773534 64.55866266 399.25888443 64.56815147 C388.15105739 64.58477311 377.04325158 64.59026155 365.93541315 64.59137623 C356.90722462 64.59232617 347.8790431 64.59643375 338.85085678 64.60277748 C317.42532294 64.61752615 295.99979602 64.62982687 274.5742569 64.62878036 C273.54645858 64.62873363 273.54645858 64.62873363 272.49789665 64.62868595 C269.02504237 64.62851973 265.55218809 64.62832165 262.07933381 64.62811653 C261.38961582 64.62807664 260.69989783 64.62803675 259.98927929 64.62799565 C258.5945011 64.62791478 257.19972292 64.62783118 255.80494474 64.62774487 C234.10666248 64.62651948 212.40844274 64.64153021 190.71017838 64.66889 C166.330556 64.69961812 141.95098514 64.71679671 117.57134032 64.71496356 C104.66353246 64.71429927 91.7557951 64.71980832 78.84800339 64.74131966 C67.8580835 64.75951723 56.86826607 64.76389047 45.87833765 64.75030081 C40.27104754 64.74376398 34.66395408 64.74367995 29.05668259 64.76100731 C23.92197137 64.77671119 18.78761315 64.77390163 13.65291068 64.75643905 C11.79693359 64.75336325 9.94093033 64.75702329 8.08498409 64.7681592 C-3.79092954 64.83468774 -14.29276506 64.4900833 -23.42556381 55.96039391 C-30.81922672 47.73683006 -32.53871448 39.02281256 -32.26931381 28.24555016 C-31.79498746 19.8598556 -28.18211858 12.85433191 -21.95681381 7.25726891 C-15.07777236 2.08422974 -8.64177244 -0.04894379 0 0 Z " transform="translate(31.95681381225586,63.74273109436035)"></path>
  </symbol>
  <symbol version="1.1" xmlns="http://www.w3.org/2000/svg" viewBox="0 0 512 512" id="x-menu">
    <path d="M0 0 C2.44277372 2.21695489 4.75677546 4.54400343 7.0625 6.90234375 C8.01588257 7.86352867 8.01588257 7.86352867 8.98852539 8.84413147 C10.99724954 10.8704779 12.99909226 12.9034374 15 14.9375 C17.00176531 16.96710795 19.00507038 18.99513432 21.01147461 21.02015686 C22.25215988 22.27286328 23.49016949 23.52822824 24.72485352 24.78684998 C27.52290502 27.61672652 30.35373775 30.33022392 33.39538574 32.89736938 C39.62360941 38.32506554 45.37934231 44.24826936 51.20898438 50.09545898 C52.53012965 51.41688673 53.85149596 52.73809354 55.17306519 54.05909729 C58.74083538 57.62658185 62.30552483 61.19713018 65.86964989 64.76825595 C69.60209669 68.50697527 73.33739602 72.24284249 77.0723877 75.97901917 C84.13607434 83.04580766 91.19720908 90.11514028 98.25742006 97.18540102 C106.29900038 105.23817814 114.34343741 113.28809894 122.38811016 121.33778656 C138.92857699 137.8886918 155.46547099 154.44316297 172 171 C176.89043764 166.92775313 181.48226192 162.65440885 185.96260071 158.13746643 C186.62714506 157.47165981 187.29168941 156.80585318 187.97637147 156.1198706 C190.18626511 153.90463097 192.3925468 151.68582938 194.59887695 149.46704102 C196.18933618 147.87138445 197.78004084 146.27597249 199.37097168 144.68078613 C202.78911071 141.2527286 206.20578141 137.82321664 209.6213932 134.39264107 C215.02728073 128.96363153 220.43809716 123.53955272 225.84989929 118.11643982 C233.440939 110.50892876 241.03129385 102.90073691 248.61987305 95.29077148 C249.34120594 94.56740995 249.34120594 94.56740995 250.07711121 93.82943504 C257.86820456 86.01616519 265.65543768 78.19905667 273.44170211 70.38097502 C281.45276325 62.33746083 289.46972545 54.29986555 297.49143571 46.26696914 C302.86783857 40.88248587 308.23761435 35.49150791 313.60257494 30.09562504 C316.94807787 26.73406693 320.29990755 23.37887316 323.65354156 20.02542877 C325.20166728 18.47489014 326.7472315 16.92178888 328.28996086 15.36588097 C342.21030052 1.33165518 354.84253825 -10.15619181 375.5 -10.3125 C387.91941107 -10.33257989 397.03413731 -7.51050522 407 0 C407.86625 0.5775 408.7325 1.155 409.625 1.75 C418.75388276 10.39841525 424.35952177 22.51599543 425.203125 35.0078125 C425.43331562 50.31548861 421.34037628 62.6330092 410.79713559 73.75283849 C407.08447208 77.55847682 403.31100946 81.30051378 399.52978516 85.0378418 C397.83326579 86.73294921 396.1378498 88.42916153 394.44345093 90.12638855 C390.33468847 94.23643272 386.21464512 98.33490189 382.08932741 102.42832377 C377.28542963 107.19632581 372.49582825 111.97858385 367.70699851 116.76171181 C359.1681077 125.28968734 350.61813523 133.80646102 342.06103516 142.31616211 C333.75371203 150.57751781 325.45171067 158.8441625 317.15673828 167.11791992 C316.64455138 167.6287932 316.13236448 168.13966648 315.60465677 168.66602077 C313.03493417 171.2292177 310.46531509 173.79251836 307.89574742 176.3558706 C286.6131858 197.58668542 265.31238581 218.7991215 244 240 C245.7767024 243.80336086 247.98641782 246.23542865 250.97012329 249.21736145 C251.48071521 249.73036779 251.99130713 250.24337412 252.51737154 250.77192611 C254.22902526 252.48921405 255.94773216 254.19926229 257.66650391 255.90942383 C258.8956048 257.13959774 260.1242726 258.3702045 261.35253906 259.60121155 C264.69125463 262.94477784 268.03619364 266.28205399 271.38240099 269.61812043 C274.88666868 273.11360187 278.38566052 276.61435708 281.88534546 280.11442566 C287.76830406 285.99644727 293.65512398 291.87458179 299.54443359 297.75024414 C306.34137777 304.53149531 313.1331144 311.31792573 319.92184889 318.10739499 C327.15860122 325.34482467 334.39916463 332.57843243 341.64083815 339.81093764 C343.7212831 341.88925724 345.80102201 343.96828111 347.88060379 346.04746437 C351.15976618 349.32561676 354.44148686 352.60118743 357.72514343 355.87483788 C358.92560811 357.07239916 360.12524813 358.27078779 361.32397079 359.47009277 C366.87217035 365.0199664 372.41988919 370.51573878 378.38943863 375.61850262 C380.43330088 377.37167416 382.36687225 379.21955712 384.28540039 381.10839844 C385.02299088 381.83315369 385.76058136 382.55790894 386.52052307 383.30462646 C387.28847702 384.06519348 388.05643097 384.8257605 388.84765625 385.609375 C389.66318466 386.41683167 390.47871307 387.22428833 391.31895447 388.05621338 C393.03221549 389.75572764 394.74399153 391.45674008 396.4543457 393.15917969 C398.19044157 394.88373733 399.93099947 396.60381489 401.67602539 398.31933594 C404.22241718 400.8227881 406.75504748 403.33947932 409.28515625 405.859375 C410.05513443 406.61184509 410.82511261 407.36431519 411.61842346 408.1395874 C422.97857327 419.54498932 429.32023995 431.83807315 429.5 448 C429.34723617 461.72455695 425.4042349 472.16912702 415.8984375 482.22265625 C405.1257571 492.40531352 392.43040648 496.08435724 377.82421875 495.9765625 C361.96803333 495.17900587 349.27462417 488.95546717 338.22970581 477.71072388 C337.514707 476.99914277 336.7997082 476.28756166 336.06304276 475.55441749 C333.69373856 473.19164888 331.33892347 470.8149712 328.98388672 468.43798828 C327.27885965 466.73183181 325.5729491 465.02655785 323.8662262 463.32209778 C319.73052882 459.18742627 315.60407267 455.04370039 311.48166291 450.89578386 C306.6804459 446.06586307 301.86783309 441.24736387 297.05452706 436.42949532 C288.47250761 427.83874146 279.89944169 419.23911049 271.33203125 410.63378906 C263.01415428 402.27914386 254.69204768 393.9287491 246.36425781 385.58398438 C245.85013481 385.06881048 245.33601181 384.55363659 244.80630933 384.02285136 C242.22684039 381.43816193 239.64728851 378.85355529 237.06769538 376.2689898 C215.69892264 354.85881281 194.34484258 333.43403579 173 312 C168.05075473 316.14710881 163.40643821 320.46276144 158.86776733 325.05235291 C158.18492192 325.73857729 157.5020765 326.42480168 156.7985388 327.13182074 C154.52653933 329.41615469 152.25818414 331.70407317 149.98974609 333.99194336 C148.35491792 335.63688351 146.71981973 337.28155534 145.08447266 338.92597961 C141.56991726 342.4606034 138.05669273 345.99654292 134.54432297 349.53333855 C128.98348279 355.13165587 123.4161174 360.72345614 117.84707642 366.31361389 C116.89628563 367.268074 115.94549726 368.22253652 114.99471128 369.17700142 C113.55409619 370.62316932 112.11347195 372.06932811 110.67282753 373.51546679 C105.25081283 378.95816425 99.82930459 384.40136567 94.40869141 389.84545898 C93.91363667 390.34265308 93.41858194 390.83984718 92.90852554 391.35210777 C84.89214962 399.40370498 76.88498443 407.46440757 68.88072924 415.52805202 C60.64360896 423.8257657 52.39493005 432.1118652 44.13599455 440.38786608 C39.50707659 445.02743807 34.88374459 449.6722828 30.27344894 454.33036613 C25.93449721 458.71412929 21.58156733 463.08351833 17.2177887 467.44256401 C15.62473428 469.03884919 14.0367761 470.64024032 12.45453262 472.24724197 C-0.46188385 485.35647636 -12.00474498 495.08250267 -31.22216797 495.38037109 C-46.33242918 495.35300194 -58.71470588 493.77974272 -70.15234375 482.96484375 C-80.95166419 471.56220932 -83.6165866 459.20516259 -83.3125 443.96875 C-82.26647124 420.8515143 -60.90416411 404.75312497 -45.6965332 389.58300781 C-44.07895262 387.96570987 -42.46159333 386.34819056 -40.84443665 384.73046875 C-36.48795821 380.37370536 -32.12842043 376.02001529 -27.76829553 371.66690159 C-23.19945443 367.10434451 -18.6334765 362.53892387 -14.06718445 357.97381592 C-6.4136717 350.32305042 1.24158005 342.67402962 8.89819336 335.02636719 C16.77860845 327.15515493 24.6579548 319.28287532 32.53588867 311.40917969 C33.02286599 310.92246509 33.5098433 310.4357505 34.01157751 309.93428698 C36.45500549 307.4921642 38.89841272 305.05002064 41.34180963 302.60786676 C61.55798996 282.40202462 81.77783013 262.19984766 102 242 C97.85391135 237.05129087 93.53893677 232.40988681 88.94764709 227.87449646 C88.26142271 227.19235661 87.57519832 226.51021676 86.86817926 225.80740601 C84.58384669 223.53773665 82.29592201 221.27172298 80.00805664 219.00561523 C78.36310874 217.37241765 76.71843712 215.73894175 75.07402039 214.10520935 C71.53934295 210.59398326 68.00339592 207.0840423 64.46666145 203.57488823 C58.86791534 198.01840735 53.27622027 192.45486378 47.68638611 186.88941956 C46.73192471 185.93918655 45.7774622 184.98895467 44.82299858 184.03872389 C42.89116175 182.11540985 40.95936464 180.19205591 39.02758873 178.26868069 C34.07043006 173.33313502 29.11289465 168.39796824 24.15454102 163.46362305 C23.40874987 162.72143441 23.40874987 162.72143441 22.64789223 161.96425206 C14.59768184 153.95360804 6.53661703 145.95396637 -1.52805202 137.95788204 C-9.82763589 129.72828139 -18.11366176 121.4852007 -26.38786608 113.23008305 C-31.02617059 108.60372926 -35.6705566 103.98387983 -40.33036613 99.379179 C-44.71633943 95.04485953 -49.08545931 90.6942292 -53.44256401 86.33089638 C-55.03797338 84.73898957 -56.63933317 83.15301883 -58.24724197 81.5737381 C-71.27092988 68.77130614 -80.73898755 56.70014233 -81.375 37.8125 C-81.15291597 23.84896685 -75.7962174 11.01885871 -66 1 C-46.17053901 -15.14025894 -20.07492716 -16.12857396 0 0 Z " transform="translate(83,14)"></path>
  </symbol>
</svg>