<svg width="0" height="0" class="hidden">
  <symbol version="1.1" xmlns="http://www.w3.org/2000/svg" viewBox="0 0 512 512" id="like">
    <path d="M0 0 C11.68066169 6.21742307 17.86584985 15.36689781 21.90234375 27.7734375 C33.99969672 71.70909753 21.95384507 122.17585109 13.453125 165.84375 C13.32103134 166.52644455 13.18893768 167.2091391 13.05284119 167.91252136 C12.50550199 170.68621445 11.89547409 173.31357773 11 176 C11.5970789 175.99723462 12.19415779 175.99446924 12.80932999 175.99162006 C27.3842251 175.92516638 41.95911123 175.87562555 56.53412247 175.84456348 C63.58269974 175.82914015 70.63117545 175.8081382 77.6796875 175.77368164 C84.48780015 175.74041634 91.29580744 175.72312299 98.10399628 175.71536827 C100.69538783 175.70984513 103.28677393 175.69905997 105.87812042 175.68280983 C109.52075949 175.6608852 113.16296914 175.6580394 116.80566406 175.65942383 C117.8659079 175.648638 118.92615173 175.63785217 120.01852417 175.6267395 C135.7788907 175.69113203 148.37465491 180.88970403 159.78125 191.71875 C169.81091026 202.0309359 174.77574046 214.30076397 175.375 228.625 C175.18510444 239.12351143 172.28518552 249.93968196 167 259 C168.17755859 260.01707031 168.17755859 260.01707031 169.37890625 261.0546875 C180.4507087 270.78659029 188.67742209 280.95750945 191 296 C192.114226 314.55825592 188.32669388 328.61113364 176 343 C174.45760962 344.32022488 172.87420921 345.59434309 171.25 346.8125 C170.05117188 347.71935547 170.05117188 347.71935547 168.828125 348.64453125 C168.22484375 349.09183594 167.6215625 349.53914063 167 350 C167.61488281 351.34191406 167.61488281 351.34191406 168.2421875 352.7109375 C175.16477105 368.10823419 177.45051748 382.53123213 172 399 C167.09843319 410.88385572 158.86172054 421.46453041 147 427 C147.95607137 431.23260762 149.52988296 435.19480093 151.0625 439.24609375 C155.23144652 451.49237414 154.06606977 466.49137252 148.5234375 478.08984375 C140.85489016 491.97376622 130.01919821 502.09659055 114.80831909 507.0365448 C108.26767697 508.63042589 101.54118159 508.2872397 94.85205078 508.2746582 C93.31984714 508.27901175 91.78764567 508.28419703 90.25544739 508.29014587 C86.10291956 508.30350536 81.95048299 508.30411594 77.79793787 508.30158257 C74.30387718 508.30050679 70.80983447 508.30541375 67.31577766 508.310188 C59.03635097 508.32128127 50.75696959 508.32172723 42.47753906 508.31567383 C34.02786093 508.3096886 25.57835161 508.32180485 17.12870228 508.3432439 C9.8151083 508.3610963 2.50156678 508.36682324 -4.81204808 508.36360615 C-9.1524641 508.36182378 -13.49276089 508.36411004 -17.83315659 508.37832069 C-35.08933341 508.42986774 -52.21446066 508.16878962 -69.41064453 506.62573242 C-70.09304128 506.56476777 -70.77543804 506.50380311 -71.47851348 506.44099104 C-98.41441934 503.9713924 -125.00064678 498.53299337 -151.125 491.625 C-152.10049805 491.36928223 -153.07599609 491.11356445 -154.08105469 490.85009766 C-161.12044735 488.94019383 -168.01990075 486.69358699 -174.93310547 484.37255859 C-176.38861061 483.88555733 -176.38861061 483.88555733 -177.8735199 483.38871765 C-180.24938897 482.59359261 -182.62486887 481.79732609 -185 481 C-185.36657879 446.18826582 -185.64833227 411.37697377 -185.81704527 376.56372495 C-185.83705551 372.44962533 -185.85776477 368.3355295 -185.87890625 364.22143555 C-185.88310322 363.40242652 -185.88730018 362.58341749 -185.89162433 361.73959001 C-185.96116271 348.49463395 -186.08726656 335.25079403 -186.23444474 322.00649915 C-186.3843068 308.40680683 -186.4729893 294.80769719 -186.50541592 281.2072131 C-186.5273238 272.82065581 -186.59638455 264.43725327 -186.72666347 256.05166783 C-186.81153814 250.29370692 -186.8367382 244.53736568 -186.81602204 238.77882532 C-186.80580961 235.45847617 -186.8297616 232.14801773 -186.9072876 228.82790947 C-187.37169602 207.90720415 -187.37169602 207.90720415 -181.50265503 201.61388206 C-178.21354214 198.69012559 -174.70529736 196.32421371 -170.90003777 194.12652147 C-168.30208868 192.58621239 -166.01188334 190.7339343 -163.6875 188.8125 C-162.92050781 188.20148438 -162.15351563 187.59046875 -161.36328125 186.9609375 C-157.65785912 183.88635584 -154.12594888 180.62955093 -150.5859375 177.3671875 C-148.42317894 175.38738132 -146.23022723 173.46502037 -144 171.5625 C-136.09150465 164.67707489 -128.66624429 157.09173049 -122 149 C-120.75283203 147.49373047 -120.75283203 147.49373047 -119.48046875 145.95703125 C-114.55472862 139.90822936 -109.95211611 133.69952853 -105.75 127.125 C-105.18671997 126.26358398 -105.18671997 126.26358398 -104.61206055 125.38476562 C-95.26154323 110.33972456 -89.90526358 92.52613901 -83.6875 76.0625 C-80.14603556 66.70020724 -76.58489454 57.34574859 -73 48 C-72.56125549 46.84924988 -72.12251099 45.69849976 -71.67047119 44.51287842 C-70.38299422 41.14798864 -69.07868757 37.79009957 -67.76953125 34.43359375 C-67.39253586 33.44174576 -67.01554047 32.44989777 -66.62712097 31.42799377 C-59.89924509 14.3574521 -50.58827208 4.27186006 -34 -3 C-23.57869107 -6.47376964 -9.67036817 -4.72512679 0 0 Z " 
    transform="translate(321,4)"></path>
    <path d="M0 0 C0 83.82 0 167.64 0 254 C-96 254 -96 254 -102 251 C-106.87408768 245.59898392 -107.14862834 242.042162 -107.14717102 234.95428467 C-107.15084771 234.00534151 -107.1545244 233.05639836 -107.1583125 232.07869935 C-107.16938082 228.87895825 -107.1731985 225.67924959 -107.17700195 222.47949219 C-107.18326421 220.19339392 -107.18991079 217.90729668 -107.19691467 215.62120056 C-107.21434612 209.3959116 -107.22488218 203.17063033 -107.2331202 196.94532299 C-107.23826559 193.05870364 -107.24434151 189.17208671 -107.25063133 185.28546906 C-107.26750393 174.52642424 -107.28213896 163.76738315 -107.28938007 153.00832748 C-107.29129 150.21567534 -107.29321033 147.42302321 -107.29516602 144.63037109 C-107.29564976 143.93626272 -107.2961335 143.24215434 -107.2966319 142.52701238 C-107.30493239 131.28261921 -107.33026908 120.03833241 -107.36274669 108.79398569 C-107.39581258 97.25193976 -107.4134956 85.70996388 -107.41702431 74.16786885 C-107.41937858 67.6864749 -107.42838808 61.20524902 -107.45348549 54.72389984 C-107.47671204 48.62704955 -107.48102114 42.53047867 -107.47072411 36.43359566 C-107.47022732 34.19465012 -107.47658945 31.95569108 -107.49028015 29.71678734 C-107.50791567 26.66207091 -107.50093357 23.60836623 -107.48774719 20.5536499 C-107.49871644 19.66590024 -107.50968568 18.77815057 -107.52098733 17.8634994 C-107.46397718 12.39996998 -106.5679298 9.37753033 -103 5 C-102.5875 4.4225 -102.175 3.845 -101.75 3.25 C-74.13679797 -16.47371574 -33.93396365 0 0 0 Z " transform="translate(107,224)"></path>
  </symbol>
</svg>




 