<svg width="0" height="0" class="hidden">
  <symbol version="1.1" xmlns="http://www.w3.org/2000/svg" viewBox="0 0 512 512" id="up-right-arrow">
    <path d="M0 0 C1.80421654 -0.00668677 1.80421654 -0.00668677 3.6448819 -0.01350862 C4.98647957 -0.01341932 6.32807723 -0.01322946 7.66967487 -0.01294994 C9.08961965 -0.01624865 10.50956349 -0.01997424 11.92950612 -0.02409142 C15.84082755 -0.03411876 19.75213363 -0.03782939 23.6634661 -0.04048073 C27.87833632 -0.04438161 32.09319437 -0.05396009 36.30805683 -0.0626936 C46.49158003 -0.08246408 56.67510424 -0.09252493 66.85864183 -0.10142139 C71.6528039 -0.10580331 76.44696487 -0.11117036 81.24112606 -0.11641026 C97.1755316 -0.13342308 113.10993644 -0.14791764 129.04434967 -0.155159 C133.1802257 -0.15706893 137.31610172 -0.15898926 141.45197773 -0.16094494 C142.99392839 -0.16167055 142.99392839 -0.16167055 144.56702957 -0.16241082 C161.22247412 -0.17071257 177.87784688 -0.1960517 194.53326007 -0.22852562 C211.62822272 -0.26158514 228.72314888 -0.27960675 245.81814367 -0.28280324 C255.41829842 -0.28496935 265.01834848 -0.29373288 274.6184721 -0.31926441 C282.7937885 -0.34095629 290.96897478 -0.34902929 299.1443167 -0.33929763 C303.31545421 -0.33474853 307.48632318 -0.3366744 311.65742397 -0.35605907 C315.47776603 -0.37366028 319.29764303 -0.37271808 323.11798982 -0.35716178 C325.15095459 -0.35365526 327.18392408 -0.36983469 329.21682137 -0.38676625 C337.26895463 -0.32993811 343.34844315 0.26204724 349.3238039 6.16937733 C349.77884296 6.83840076 350.23388203 7.5074242 350.70271015 8.19672108 C351.17579609 8.86832264 351.64888203 9.5399242 352.1363039 10.23187733 C354.26870166 13.8252258 354.39242383 16.78508596 354.39943123 20.87180424 C354.40388907 22.07523196 354.40834692 23.27865969 354.41293985 24.51855493 C354.41285055 25.8608416 354.41266069 27.20312827 354.41238117 28.54541492 C354.41567987 29.96607239 354.41940546 31.38672892 354.42352265 32.80738425 C354.43354995 36.72063629 354.43726061 40.633873 354.43991196 44.54713607 C354.44381281 48.76403217 354.45339126 52.98091611 354.46212482 57.19780445 C354.4818947 67.38577175 354.49195579 77.57374005 354.50085261 87.76172173 C354.50523437 92.55750698 354.51060144 97.35329113 354.51584148 102.14907551 C354.53285375 118.08777226 354.54734868 134.02646833 354.55459023 149.96517277 C354.55650017 154.10208862 354.55842049 158.23900447 354.56037617 162.3759203 C354.56085991 163.40414971 354.56134365 164.43237913 354.56184205 165.49176702 C354.57014519 182.15435363 354.59548691 198.81686851 354.62795684 215.47942379 C354.66100921 232.58003168 354.67903731 249.68060308 354.68223447 266.78124309 C354.68440118 276.38527832 354.69317342 285.98920894 354.71869564 295.59321308 C354.74037769 303.7711199 354.74846535 311.9488967 354.73872886 320.126829 C354.73417699 324.2998678 354.73612168 328.4726382 354.7554903 332.64564037 C354.77307169 336.466547 354.77216552 340.28698841 354.75659301 344.10789964 C354.75308071 346.14359185 354.76928061 348.17928866 354.78619748 350.21491361 C354.72933625 358.25854054 354.02051785 362.99246114 348.5191164 369.06000233 C347.96095234 369.51761951 347.40278828 369.9752367 346.82771015 370.44672108 C346.27212421 370.91722889 345.71653828 371.3877367 345.1441164 371.87250233 C339.23554684 375.8402112 333.16017424 375.84254639 326.26521015 375.13422108 C320.15034839 373.43508312 315.59099872 369.49361284 312.26521015 364.13422108 C309.75385544 358.41640152 309.97571875 352.87208749 309.98673725 346.7448473 C309.98094485 345.59224254 309.97515245 344.43963777 309.96918452 343.25210559 C309.95513929 340.06178541 309.9499556 336.87159346 309.94853592 333.68124723 C309.94483632 330.23753233 309.92967805 326.79386547 309.91592121 323.35017872 C309.89366213 317.38671975 309.87864072 311.42327791 309.86855412 305.45978642 C309.85396014 296.83761659 309.8284213 288.21550641 309.80022283 279.59337161 C309.7547679 265.60407422 309.71814772 251.61476823 309.68708515 237.62543201 C309.65689429 224.03720052 309.62254156 210.44899004 309.58259296 196.86078358 C309.57890064 195.60412945 309.57890064 195.60412945 309.57513373 194.32208838 C309.56275902 190.11918796 309.55030251 185.91628778 309.53780532 181.71338773 C309.43425696 146.85369436 309.34504729 111.9939765 309.26521015 77.13422108 C307.8974793 78.50366067 307.8974793 78.50366067 306.50211751 79.90076572 C266.3266912 120.12618704 226.14940911 160.34975412 185.96262836 200.56383228 C185.35445009 201.17242473 184.74627181 201.78101718 184.11966389 202.40805182 C170.90306701 215.63362692 157.68613624 228.85886831 144.46886136 242.08376585 C137.98734128 248.56902803 131.505895 255.05436396 125.0244875 261.53973866 C124.37950001 262.18511842 123.73451252 262.83049819 123.06997995 263.49543492 C102.15504381 284.4231606 81.24498797 305.35575446 60.33745096 326.29087193 C38.85653644 347.80007186 17.37072077 369.30436392 -4.12129528 390.80247148 C-7.15521222 393.83725291 -10.18907294 396.87209054 -13.22289944 399.90696239 C-14.11857414 400.8029405 -14.11857414 400.8029405 -15.03234328 401.71701918 C-24.6534581 411.34168247 -34.26937522 420.97152272 -43.88337012 430.60329745 C-53.54313884 440.28070987 -63.20833477 449.95267446 -72.87913139 459.61906675 C-78.62821154 465.36586101 -84.37304886 471.11682278 -90.11195431 476.87377817 C-94.39246246 481.16683104 -98.68072104 485.45205219 -102.97210686 489.73423477 C-104.71103635 491.4718913 -106.4474064 493.21211353 -108.18100639 494.95508716 C-110.53043245 497.31648065 -112.88884239 499.66851655 -115.24979877 502.01837349 C-115.92711392 502.70356968 -116.60442907 503.38876587 -117.30226892 504.09472558 C-122.89934045 509.63215811 -127.50392583 512.5626945 -135.60978985 512.57172108 C-141.48771514 512.41703883 -146.13787161 511.98454007 -150.73478985 508.13422108 C-155.88208585 502.51179006 -157.89382852 498.12996078 -158.10978985 490.44672108 C-158.15877422 489.26722889 -158.2077586 488.0877367 -158.25822735 486.87250233 C-157.11518643 478.7091429 -151.06095971 473.02536909 -145.40408134 467.43436909 C-144.30642649 466.33152193 -144.30642649 466.33152193 -143.18659678 465.20639503 C-140.73447717 462.74633932 -138.27181177 460.29712481 -135.80905437 457.84772205 C-134.0304342 456.0677935 -132.25247348 454.28720576 -130.47511607 452.50601625 C-126.61031282 448.63590364 -122.74090217 444.77048974 -118.86733532 440.90915012 C-113.10755068 435.1674962 -107.35641604 429.41723587 -101.60700641 423.66519525 C-91.93460669 413.98885669 -82.25524769 404.31950818 -72.57189274 394.6541338 C-62.98518995 385.08518649 -53.40159968 375.51313947 -43.82214069 365.93694019 C-43.22635528 365.34136099 -42.63056986 364.7457818 -42.01673034 364.13215474 C-38.99101176 361.10745117 -35.9653486 358.08269217 -32.93970678 355.05791181 C-11.51305888 333.63756393 9.92053497 312.22417874 31.35822773 290.81488514 C52.18369162 270.01697753 73.00599976 249.21591877 93.82404804 228.41058826 C94.78672766 227.44850052 94.78672766 227.44850052 95.76885535 226.46697665 C102.21397756 220.02581002 108.65903572 213.5845793 115.10404695 207.14330162 C128.2330957 194.02186137 141.36257193 180.90084889 154.49230671 167.7800951 C155.0959805 167.17683318 155.69965428 166.57357127 156.32162122 165.95202868 C196.62899011 125.67225839 236.94635379 85.40249234 277.26521015 45.13422108 C276.67328072 45.13324427 276.08135129 45.13226746 275.4714846 45.13126105 C240.39075853 45.07299201 205.31009858 44.99919749 170.22944951 44.9052348 C166.01749307 44.8939666 161.80553629 44.88282815 157.59357929 44.87176991 C156.75505271 44.86956622 155.91652614 44.86736254 155.05258966 44.86509208 C141.47438945 44.82971742 127.89618929 44.80485424 114.31796008 44.78387406 C100.3859665 44.76211335 86.45403273 44.72906035 72.52209002 44.68551952 C63.92498363 44.65900746 55.32795178 44.64130881 46.73080654 44.63487504 C40.83582583 44.62961979 34.94093891 44.61339822 29.04600846 44.58855542 C25.64467298 44.57454506 22.24350538 44.56536784 18.84213924 44.56921291 C15.15284185 44.57086067 11.46406461 44.55420772 7.77483845 44.53294849 C6.70187187 44.53779607 5.62890529 44.54264365 4.52342457 44.54763812 C-3.9818966 44.46662157 -9.87006956 42.63598584 -16.2230711 36.78265858 C-21.02212718 31.54957934 -21.28753101 25.89365756 -21.0746336 19.06390858 C-20.19419471 11.4739182 -16.33297595 7.28125313 -10.6371336 2.48187733 C-7.15325841 0.01383433 -4.13811528 0.00709922 0 0 Z "  transform="translate(157.73478984832764,-0.13422107696533203)"></path>
  </symbol>
 <symbol version="1.1" xmlns="http://www.w3.org/2000/svg" viewBox="0 0 512 512" id="check-mark">
    <path d="M0 0 C5.4521357 2.53134872 6.4759981 4.71399714 10 10 C10 16.93 10 23.86 10 31 C68.08 31 126.16 31 186 31 C186 24.07 186 17.14 186 10 C191.17241379 2.24137931 191.17241379 2.24137931 196 0 C201.5997712 -0.75381535 206.33499991 -0.77303575 211.5 1.625 C215.89818117 5.80327211 218.23208389 9.03511857 218.390625 15.1796875 C218.36425232 17.07852048 218.31686153 18.9771613 218.25 20.875 C218.23195313 21.84953125 218.21390625 22.8240625 218.1953125 23.828125 C218.14841734 26.21977807 218.08280907 28.60936597 218 31 C218.95664551 30.98428955 219.91329102 30.9685791 220.89892578 30.95239258 C224.51830298 30.8972459 228.13764487 30.86334897 231.75732422 30.83520508 C233.31077358 30.82030811 234.86418235 30.79998349 236.41748047 30.77368164 C260.73499323 30.37284352 281.45686774 37.02394502 299.21484375 54.1953125 C305.43248002 60.45655071 310.19320334 66.87353496 314.25 74.6875 C314.72614746 75.58505005 314.72614746 75.58505005 315.21191406 76.50073242 C322.98454994 92.2850679 322.57439646 108.23763783 322.51757812 125.44335938 C322.52080766 128.20938916 322.5299885 130.97539249 322.53881836 133.7414093 C322.55650909 140.44411516 322.5528061 147.14664081 322.5411678 153.84935343 C322.53209625 159.30178012 322.53092546 164.75415666 322.53526306 170.20658875 C322.53587599 170.98565278 322.53648893 171.76471682 322.53712043 172.56738886 C322.53839947 174.1505509 322.53969632 175.73371292 322.5410108 177.31687492 C322.55238892 192.12639273 322.53934652 206.93581113 322.51780933 221.74531263 C322.49994086 234.42417091 322.50304575 247.10288264 322.52148438 259.78173828 C322.54294019 274.54198378 322.55129054 289.30214238 322.53903532 304.06240129 C322.53776126 305.6394046 322.53650378 307.21640792 322.53526306 308.79341125 C322.53433741 309.95697282 322.53433741 309.95697282 322.53339306 311.14404067 C322.52995425 316.58340915 322.5357366 322.02272204 322.54518127 327.46208191 C322.5564552 334.10020078 322.55324887 340.73813071 322.5320583 347.37622821 C322.52161951 350.75651377 322.51949209 354.1362282 322.53065491 357.51655006 C322.58083213 374.26173798 322.23856336 389.28051828 314.1875 404.375 C313.66603394 405.37793091 313.66603394 405.37793091 313.1340332 406.40112305 C310.28046487 411.75131986 307.100994 416.51428201 303 421 C302.19949219 421.89203125 301.39898437 422.7840625 300.57421875 423.703125 C287.22992052 437.8391978 268.36132731 447.76445489 248.66147137 448.38031673 C246.35345598 448.39789073 244.04528058 448.39946981 241.73722839 448.38768005 C240.45532334 448.39306559 239.17341829 448.39845113 237.85266763 448.40399987 C234.32857033 448.41834324 230.80470909 448.41424497 227.28059947 448.40683305 C223.46656012 448.40207584 219.65256999 448.41463372 215.83854675 448.42485046 C208.37947027 448.44199457 200.92047818 448.44288755 193.46138712 448.43763756 C187.394383 448.4335861 181.32740371 448.43505097 175.26040077 448.44038582 C173.96214071 448.44150845 173.96214071 448.44150845 172.63765318 448.44265376 C170.87901955 448.44418534 169.12038593 448.44572369 167.36175231 448.44726873 C150.89125177 448.46097812 134.4207988 448.45556728 117.95029936 448.44408352 C102.9070748 448.43415476 87.8639733 448.44708842 72.82076772 448.47101771 C57.34704281 448.49544497 41.87337512 448.50500756 26.39963132 448.49836498 C17.7232803 448.49488056 9.04702385 448.49705323 0.37068748 448.51461601 C-7.01591378 448.52938352 -14.40235389 448.52991441 -21.78895215 448.5125451 C-25.55191488 448.5040696 -29.31459027 448.50180008 -33.07753754 448.51719666 C-50.58950413 448.58376221 -66.55867348 448.62357944 -82.375 440.1875 C-83.04362061 439.83985596 -83.71224121 439.49221191 -84.40112305 439.1340332 C-89.74996286 436.28118864 -94.51942613 433.10515238 -99 429 C-99.90363281 428.17628906 -100.80726562 427.35257812 -101.73828125 426.50390625 C-116.98722924 411.95653368 -125.87480222 393.03989227 -126.4607172 371.94272614 C-126.54610294 365.81352302 -126.53781995 359.68626731 -126.51757812 353.55664062 C-126.52080766 350.79061084 -126.5299885 348.02460751 -126.53881836 345.2585907 C-126.55650909 338.55588484 -126.5528061 331.85335919 -126.5411678 325.15064657 C-126.53209625 319.69821988 -126.53092546 314.24584334 -126.53526306 308.79341125 C-126.53587599 308.01434722 -126.53648893 307.23528318 -126.53712043 306.43261114 C-126.53839947 304.8494491 -126.53969632 303.26628708 -126.5410108 301.68312508 C-126.55238892 286.87360727 -126.53934652 272.06418887 -126.51780933 257.25468737 C-126.49994086 244.57582909 -126.50304575 231.89711736 -126.52148438 219.21826172 C-126.54294019 204.45801622 -126.55129054 189.69785762 -126.53903532 174.93759871 C-126.53776126 173.3605954 -126.53650378 171.78359208 -126.53526306 170.20658875 C-126.53464596 169.43088104 -126.53402886 168.65517333 -126.53339306 167.85595933 C-126.52995425 162.41659085 -126.5357366 156.97727796 -126.54518127 151.53791809 C-126.5564552 144.89979922 -126.55324887 138.26186929 -126.5320583 131.62377179 C-126.52161951 128.24348623 -126.51949209 124.8637718 -126.53065491 121.48344994 C-126.58070032 104.78225195 -126.24156935 89.76102917 -118.25 74.6875 C-117.73566406 73.69169922 -117.73566406 73.69169922 -117.2109375 72.67578125 C-114.12191933 66.88105373 -110.43524717 61.84803255 -106 57 C-105.42121094 56.3296875 -104.84242187 55.659375 -104.24609375 54.96875 C-91.68152903 41.29155644 -72.6539223 31.83287763 -54.03997803 30.90197754 C-48.7971736 30.75938031 -43.5561791 30.81679181 -38.3125 30.875 C-36.72461505 30.88505504 -35.1367239 30.8941764 -33.54882812 30.90234375 C-29.69906275 30.92414557 -25.84960173 30.95853441 -22 31 C-22.0314209 30.09290283 -22.0314209 30.09290283 -22.06347656 29.16748047 C-22.14708945 26.40349229 -22.19880054 23.63977087 -22.25 20.875 C-22.28351563 19.92367187 -22.31703125 18.97234375 -22.3515625 17.9921875 C-22.43331583 12.10594747 -22.01758507 8.63341928 -18 4 C-12.72867143 -1.00776214 -6.89190982 -0.92775709 0 0 Z M-81.8125 79.625 C-93.80371845 93.85114089 -94 108.87079081 -94 127 C32.72 127 159.44 127 290 127 C290 106.86998772 288.96403185 91.10601675 274.51171875 76.1875 C262.0205475 65.30871944 248.70844957 63.52047736 232.8125 63.8125 C231.36915473 63.82758723 229.92579404 63.84126843 228.48242188 63.85351562 C224.98795463 63.88617132 221.49407988 63.93772548 218 64 C217.98598145 64.90709717 217.98598145 64.90709717 217.97167969 65.83251953 C217.91768278 68.5974788 217.83409606 71.36079906 217.75 74.125 C217.73582031 75.07632813 217.72164063 76.02765625 217.70703125 77.0078125 C217.50092244 82.94374615 216.93558967 86.46898902 213 91 C208.03377531 94.54730335 202.9006143 94.84027735 197 94 C191.83034639 92.20605304 189.87638074 89.7939679 187 85 C186.67 78.07 186.34 71.14 186 64 C127.92 64 69.84 64 10 64 C9.67 70.93 9.34 77.86 9 85 C4.14285714 92.28571429 4.14285714 92.28571429 -1 94 C-7.82627542 94.91393109 -12.48727649 94.16266878 -18 90 C-21.93551306 85.29976639 -21.55018046 80.02946559 -21.6875 74.1875 C-21.72166016 73.20845703 -21.75582031 72.22941406 -21.79101562 71.22070312 C-21.87319858 68.81391655 -21.94244433 66.40748055 -22 64 C-26.17677912 63.89955022 -30.35287985 63.82780601 -34.53051758 63.78027344 C-35.945356 63.76041606 -37.36011531 63.73332034 -38.7746582 63.69824219 C-55.60761897 63.29190874 -69.79088714 67.26220614 -81.8125 79.625 Z M-94 160 C-94.04125 194.051875 -94.0825 228.10375 -94.125 263.1875 C-94.14320801 273.92821045 -94.16141602 284.6689209 -94.18017578 295.73510742 C-94.18686582 305.38681729 -94.18686582 305.38681729 -94.19088745 315.03852844 C-94.19274613 319.32797832 -94.20022277 323.61737839 -94.21115112 327.90681458 C-94.22493146 333.38880775 -94.22897081 338.87072913 -94.22614455 344.35273802 C-94.22673502 346.35803429 -94.23066391 348.36333323 -94.23843026 350.36861455 C-94.3119664 370.29118109 -93.42477473 387.20571524 -78.8984375 402.1640625 C-65.92436208 414.40462129 -51.16138076 416.15809327 -34.07159424 416.13371277 C-32.30972342 416.1371111 -32.30972342 416.1371111 -30.51225924 416.14057809 C-27.27402737 416.14578997 -24.03583068 416.14656698 -20.79759598 416.14538372 C-17.29644631 416.14517875 -13.79530477 416.15070759 -10.29415894 416.15544128 C-3.44296688 416.16372762 3.40821657 416.16649521 10.25941321 416.16705366 C15.8316475 416.16752978 21.40387897 416.16958928 26.97611237 416.17275429 C42.79429503 416.18155533 58.61247092 416.18617452 74.43065605 416.18542381 C75.70828208 416.18536388 75.70828208 416.18536388 77.01171875 416.18530273 C78.29091501 416.18524141 78.29091501 416.18524141 79.59595361 416.18517885 C93.41204437 416.18477253 107.22810786 416.19434005 121.04419073 416.2084411 C135.24992626 416.22282478 149.45564851 416.22971019 163.6613915 416.22884732 C171.62899634 416.22851605 179.59657258 416.23123281 187.56417084 416.24202538 C194.34846016 416.25115662 201.13270792 416.25328415 207.91700074 416.24651595 C211.37380775 416.24326396 214.83053514 416.24314593 218.28733444 416.2518692 C222.04617981 416.25961989 225.80481855 416.25492384 229.56365967 416.24723816 C230.64024676 416.25238172 231.71683385 416.25752529 232.8260448 416.26282471 C250.0058987 416.18563597 263.65794995 413.04336268 276.1640625 400.8984375 C287.4902324 388.89354581 290.17969761 374.9985075 290.12025452 359.02122498 C290.12111053 358.16620392 290.12196655 357.31118286 290.12284851 356.43025208 C290.12449201 353.58165341 290.11899922 350.7331147 290.11352539 347.88452148 C290.1132188 345.80086551 290.11335298 343.71720943 290.11389065 341.6335535 C290.1141158 336.06904029 290.10833273 330.50454871 290.10128021 324.94004059 C290.09557244 319.71267124 290.09531639 314.48530708 290.09460449 309.25793457 C290.08936352 293.98445353 290.07540231 278.71097649 290.0625 263.4375 C290.041875 229.303125 290.02125 195.16875 290 160 C163.28 160 36.56 160 -94 160 Z "  transform="translate(158,32)"></path>
    <path d="M0 0 C4.0436828 3.32069585 6.55977494 6.16179647 7.34765625 11.46484375 C7.3940625 12.95757812 7.3940625 12.95757812 7.44140625 14.48046875 C7.49296875 15.4653125 7.54453125 16.45015625 7.59765625 17.46484375 C5.85807814 26.12131577 -2.91731174 32.88011477 -8.91601562 38.86254883 C-9.902631 39.85352024 -10.8888305 40.84490583 -11.87464905 41.83666992 C-14.53310127 44.50842076 -17.19782675 47.17382705 -19.86420631 49.83766389 C-22.09525584 52.06763847 -24.32331012 54.30059418 -26.55143118 56.53349417 C-31.80750855 61.80063294 -37.06885435 67.06246755 -42.33349609 72.32104492 C-47.75681471 77.73831238 -53.17086351 83.16472024 -58.58051443 88.59563333 C-63.23684759 93.26959057 -67.898976 97.93771137 -72.56575632 102.60123748 C-75.3481519 105.38182294 -78.12829247 108.16457087 -80.90281677 110.95301247 C-83.50960338 113.57238757 -86.12356512 116.18438533 -88.74316216 118.79094696 C-90.15682553 120.20112434 -91.56310523 121.61869161 -92.96913147 123.03648376 C-93.81853806 123.87887604 -94.66794464 124.72126831 -95.54309082 125.58918762 C-96.27457588 126.32084043 -97.00606094 127.05249323 -97.75971222 127.80631733 C-101.76827966 131.16146662 -105.73904595 133.15944841 -110.99609375 133.16796875 C-111.78886719 133.18730469 -112.58164063 133.20664062 -113.3984375 133.2265625 C-119.96572867 132.00182538 -124.6903097 127.53744462 -129.22167969 122.93969727 C-129.79334366 122.37168396 -130.36500763 121.80367065 -130.95399475 121.21844482 C-132.82443624 119.35604913 -134.68388448 117.4831024 -136.54296875 115.609375 C-137.8480604 114.30376414 -139.15367189 112.99867272 -140.45977783 111.69407654 C-143.18773695 108.96602797 -145.91047854 106.23291047 -148.62939453 103.49584961 C-152.10999862 99.99252578 -155.60160329 96.50041875 -159.09695053 93.01181126 C-161.79110179 90.32100481 -164.48023406 87.62522846 -167.16779327 84.92783928 C-168.45344312 83.63834856 -169.74043415 82.35019356 -171.02880096 81.06341743 C-172.8285509 79.26403935 -174.62165016 77.45828559 -176.41308594 75.65063477 C-176.94299637 75.12320175 -177.4729068 74.59576874 -178.01887512 74.05235291 C-182.75298815 69.24985214 -185.48727989 65.64133889 -185.49609375 58.79296875 C-185.35668575 53.62853601 -184.66390338 50.62810078 -181.05859375 46.73046875 C-180.35734375 45.96734375 -179.65609375 45.20421875 -178.93359375 44.41796875 C-174.83266799 42.01090363 -170.79306635 41.35308325 -166.05859375 41.73046875 C-160.9925912 43.57964081 -157.79270198 45.50059783 -153.94946289 49.38549805 C-153.49002289 49.84435394 -153.03058289 50.30320984 -152.55722046 50.77597046 C-151.05970137 52.27624865 -149.57681069 53.79012731 -148.09375 55.3046875 C-147.0508824 56.35502524 -146.00712085 57.40447606 -144.96250916 58.45307922 C-142.22954358 61.20124022 -139.50881031 63.96120243 -136.79052734 66.72387695 C-134.00897529 69.54651365 -131.215915 72.35771247 -128.42382812 75.16992188 C-122.95748178 80.67903143 -117.50401914 86.20067081 -112.05859375 91.73046875 C-108.82089467 90.30927506 -106.68559374 88.59606907 -104.20793152 86.08666992 C-103.45527512 85.32953705 -102.70261871 84.57240417 -101.92715454 83.79232788 C-101.11096649 82.96109406 -100.29477844 82.12986023 -99.45385742 81.2734375 C-98.15311531 79.96108627 -98.15311531 79.96108627 -96.82609558 78.6222229 C-94.94257874 76.72104419 -93.06093489 74.8181932 -91.1819973 72.9125061 C-88.20830527 69.89739513 -85.22534193 66.89157389 -82.24055481 63.88745117 C-73.75504064 55.34440286 -65.2795865 46.79146148 -56.8190918 38.22363281 C-52.14451546 33.48991323 -47.46097791 28.76525008 -42.76749784 24.05027103 C-39.80038592 21.0685471 -36.84467776 18.07610214 -33.89695966 15.07521057 C-31.62529617 12.76920305 -29.33715297 10.47964305 -27.05151367 8.1875 C-26.24139832 7.35626617 -25.43128296 6.52503235 -24.59661865 5.66860962 C-17.86141563 -1.03134735 -9.13695845 -5.63474667 0 0 Z " transform="translate(345.05859375,254.26953125)"></path>
  </symbol>
  <symbol version="1.1" xmlns="http://www.w3.org/2000/svg" viewBox="0 0 512 512" id="monitor">
    <path d="M0 0 C0.84330817 -0.00205263 1.68661635 -0.00410527 2.55547932 -0.0062201 C5.41221257 -0.01192369 8.26889812 -0.01042874 11.1256361 -0.00901413 C13.1820747 -0.01159584 15.23851279 -0.01460846 17.29495019 -0.01801753 C22.97016625 -0.02611355 28.64536969 -0.02787854 34.32059085 -0.028615 C40.431823 -0.03046104 46.54304851 -0.03800607 52.65427685 -0.04475021 C66.72579533 -0.05906203 80.79730966 -0.0648624 94.86883368 -0.06944216 C101.81916408 -0.07177645 108.76949365 -0.07537891 115.7198234 -0.07913754 C139.50140381 -0.09197416 163.28298376 -0.10269347 187.06456757 -0.10614014 C188.55801197 -0.10636177 190.05145638 -0.10658356 191.54490079 -0.10680549 C193.0419973 -0.10702613 194.53909382 -0.10724661 196.03619033 -0.10746694 C199.03973504 -0.10790949 202.04327975 -0.10835661 205.04682446 -0.10880661 C205.79153139 -0.108916 206.53623833 -0.10902539 207.30351214 -0.1091381 C231.45761388 -0.11276976 255.61168563 -0.12869337 279.76577588 -0.15199697 C305.28993775 -0.17657749 330.81408248 -0.19031214 356.33825654 -0.19150805 C359.13866183 -0.19167952 361.93906711 -0.19189495 364.73947239 -0.19214249 C365.42903436 -0.19219826 366.11859634 -0.19225402 366.82905413 -0.19231148 C377.93947635 -0.19346346 389.04986787 -0.20449789 400.16027972 -0.21902954 C411.32187881 -0.23337602 422.48343896 -0.23638892 433.6450483 -0.22858956 C439.69519145 -0.22467053 445.74523098 -0.22567352 451.79536152 -0.23964691 C457.32898556 -0.25231093 462.86242732 -0.25125474 468.39605083 -0.2390562 C470.40279793 -0.23708612 472.40955762 -0.24023748 474.41628698 -0.24890056 C477.13510985 -0.25989887 479.85327866 -0.25257244 482.57208252 -0.24050903 C483.35894413 -0.24810423 484.14580574 -0.25569942 484.95651165 -0.26352477 C489.46132045 -0.22010169 492.45506728 0.23704222 495.97480297 3.13142776 C498.17588811 6.25180654 498.22747418 8.97265576 498.23486519 12.72935677 C498.24193078 13.87617452 498.24899637 15.02299227 498.25627607 16.20456207 C498.25386099 17.46504902 498.2514459 18.72553598 498.24895763 20.02421951 C498.25340951 21.37633312 498.25872339 22.72844411 498.26482636 24.08055127 C498.27902269 27.79966647 498.28066934 31.51869818 498.28022945 35.2378366 C498.2818762 39.24747943 498.29493995 43.2570877 498.30642223 47.26671219 C498.32928127 56.03519308 498.33719362 64.80364978 498.34224868 73.57215643 C498.34550426 79.04577591 498.35202584 84.51938835 498.35925007 89.99300385 C498.37881616 105.14424984 498.39522065 120.29548929 498.3981266 135.44674873 C498.39831417 136.41647537 498.39850174 137.386202 498.398695 138.38531429 C498.39906125 140.35122689 498.39942495 142.31713948 498.39978611 144.28305207 C498.39996892 145.25894867 498.40015173 146.23484526 498.40034008 147.24031448 C498.4006109 148.70594315 498.4006109 148.70594315 498.4008872 150.20118047 C498.40443022 166.03992359 498.43146057 181.87853086 498.46883797 197.71722685 C498.50689486 213.97374815 498.52628388 230.23020199 498.52658612 246.48676884 C498.52717123 255.6162624 498.53569818 264.74559387 498.56458378 273.87504578 C498.58906254 281.64748283 498.59640428 289.41969866 498.58133625 297.19216381 C498.57415321 301.15856874 498.57508419 305.12453652 498.59774685 309.09089279 C498.61829457 312.72183795 498.61577703 316.35200872 498.59487201 319.9829451 C498.58970913 321.91892654 498.60918892 323.85492523 498.62953371 325.79080665 C498.5382749 335.18722885 498.5382749 335.18722885 495.56138229 338.8906002 C491.38034697 342.51275055 488.28897371 342.27474554 482.96522331 342.26285553 C482.12360351 342.26490816 481.28198371 342.2669608 480.41486028 342.26907563 C477.5638704 342.27477918 474.71292833 342.27328427 471.86193371 342.27186966 C469.80961991 342.27445137 467.75730661 342.27746399 465.70499402 342.28087306 C460.04117952 342.28896905 454.37737768 342.29073407 448.71355808 342.29147053 C442.61459598 342.29331657 436.51564052 342.3008616 430.41668224 342.30760574 C416.37342403 342.32191754 402.33016998 342.32771792 388.28690623 342.33229769 C381.35052805 342.33463199 374.41415071 342.33823444 367.47777318 342.34199307 C343.74391303 342.35482969 320.01005335 342.36554899 296.2761898 342.36899567 C294.78574298 342.3692173 293.29529616 342.36943908 291.80484935 342.36966102 C290.31075783 342.36988166 288.81666631 342.37010214 287.32257479 342.37032247 C284.32505906 342.37076502 281.32754332 342.37121214 278.33002758 342.37166214 C277.21520944 342.37182623 277.21520944 342.37182623 276.07786972 342.37199363 C251.97226976 342.37562529 227.86669986 342.39154889 203.76111141 342.4148525 C178.2881781 342.43943305 152.81526197 342.45316767 127.34231645 342.45436358 C124.54752814 342.45453505 121.75273985 342.45475048 118.95795155 342.45499802 C118.26977272 342.45505379 117.5815939 342.45510955 116.87256117 342.45516701 C105.78445491 342.45631899 94.69637943 342.46735339 83.60828357 342.48188507 C72.46908861 342.4962316 61.32993267 342.49924442 50.19072744 342.49144509 C44.15273581 342.48752608 38.114848 342.48852897 32.07686901 342.50250244 C26.55434739 342.51516656 21.03200841 342.51411018 15.50948731 342.50191173 C13.50677786 342.49994167 11.50405581 342.50309293 9.50136413 342.51175609 C6.78798664 342.52275459 4.0752645 342.51542784 1.36190605 342.50336456 C0.57664879 342.51095976 -0.20860848 342.51855495 -1.01766142 342.5263803 C-5.53105236 342.48278842 -8.45717307 341.95800851 -12.02519703 339.13142776 C-14.28479721 335.7420275 -14.27686223 334.59450223 -14.28246593 330.62251854 C-14.28891483 329.47010835 -14.29536372 328.31769816 -14.30200803 327.13036644 C-14.29891083 325.85850263 -14.29581362 324.58663882 -14.29262257 323.27623367 C-14.29635726 321.91602128 -14.30095805 320.55581103 -14.30635321 319.19560421 C-14.31862111 315.44949147 -14.31831831 311.70346778 -14.31596446 307.95733953 C-14.31555725 303.920435 -14.32658627 299.88355939 -14.3360796 295.84666824 C-14.35271127 287.93453191 -14.35819012 280.02242537 -14.35930435 272.11027302 C-14.36025379 265.68065315 -14.36435886 259.25104314 -14.3707056 252.82142639 C-14.38832384 234.60308978 -14.39754355 216.38477675 -14.39604466 198.16643156 C-14.39596474 197.18373285 -14.39588483 196.20103413 -14.3958025 195.18855667 C-14.39572074 194.20466185 -14.39563898 193.22076704 -14.39555474 192.20705722 C-14.39474165 176.25766444 -14.4138836 160.30836605 -14.44207923 144.35900058 C-14.4707839 127.99290512 -14.48462086 111.62685573 -14.48289168 95.26073444 C-14.48222694 86.06812803 -14.48775566 76.87562058 -14.50924778 67.6830368 C-14.52742781 59.85676856 -14.53183317 52.03064413 -14.51822893 44.20436396 C-14.51168315 40.20979737 -14.51163967 36.21550693 -14.52893543 32.22096634 C-14.54460074 28.56545264 -14.54187035 24.91043552 -14.52436717 21.25493442 C-14.5198194 19.30326692 -14.53500583 17.35158441 -14.55084646 15.3999759 C-14.54164887 14.24235021 -14.53245127 13.08472452 -14.52297497 11.89201927 C-14.5234097 10.89308242 -14.52384444 9.89414557 -14.52429235 8.8649379 C-13.88606902 5.3694334 -12.44851554 3.6804023 -10.02519703 1.13142776 C-6.864717 -0.44881225 -3.47025978 -0.00773478 0 0 Z M7.97480297 22.13142776 C7.97480297 120.47142776 7.97480297 218.81142776 7.97480297 320.13142776 C162.41480297 320.13142776 316.85480297 320.13142776 475.97480297 320.13142776 C475.97480297 221.79142776 475.97480297 123.45142776 475.97480297 22.13142776 C321.53480297 22.13142776 167.09480297 22.13142776 7.97480297 22.13142776 Z "  transform="translate(14.02519702911377,83.86857223510742)"></path>
    <path d="M0 0 C11.95877983 10.2187006 21.01565227 24.95121233 22.375 40.875 C22.98559856 51.26283999 22.74957411 60.92658024 19.375 70.875 C19.10816406 71.72191406 18.84132813 72.56882812 18.56640625 73.44140625 C12.79027641 89.84561499 -0.35608587 101.49919667 -15.625 108.875 C-33.3532427 116.01582884 -51.54294349 115.70424274 -69.09765625 108.4375 C-84.887588 100.60840392 -96.53524083 87.40434631 -102.625 70.875 C-107.09536198 57.14075535 -107.22411484 42.57322565 -102.625 28.875 C-102.3465625 28.01519531 -102.068125 27.15539062 -101.78125 26.26953125 C-99.42750329 19.72570959 -95.83766735 14.37179183 -91.625 8.875 C-90.98304688 8.03324219 -90.34109375 7.19148438 -89.6796875 6.32421875 C-67.11139443 -20.57752984 -26.3222253 -20.1609288 0 0 Z M-68.625 17.875 C-69.924375 19.0196875 -69.924375 19.0196875 -71.25 20.1875 C-78.90751897 28.85258726 -84.61764462 39.65979155 -83.94140625 51.5703125 C-82.22027665 64.10693555 -77.61164385 74.77450161 -67.625 82.875 C-59.08657891 89.17115747 -48.3753812 93.30309492 -37.625 91.875 C-25.24240077 89.80548481 -15.70440742 84.53677984 -7.625 74.875 C-4.65680125 70.72964685 -4.65680125 70.72964685 -3.625 65.875 C-6.33281936 65.43411948 -9.04113057 64.99685595 -11.75 64.5625 C-12.58934082 64.42714844 -13.42868164 64.29179687 -14.29345703 64.15234375 C-19.05777633 63.39663017 -23.82215864 62.70818387 -28.609375 62.11328125 C-29.59147949 61.98928955 -30.57358398 61.86529785 -31.58544922 61.73754883 C-33.49734182 61.49972335 -35.41044101 61.27136553 -37.32470703 61.0534668 C-42.0544054 60.45998186 -45.79017697 59.94285842 -49.625 56.875 C-52.16695906 53.06206141 -52.43718862 50.27597003 -51.625 45.875 C-49.90453555 41.61324451 -47.72385828 37.64244833 -45.5 33.625 C-44.35063404 31.49529248 -43.20219361 29.3650852 -42.0546875 27.234375 C-41.4884668 26.19345703 -40.92224609 25.15253906 -40.33886719 24.08007812 C-37.65787521 19.06639398 -35.13442643 13.97624169 -32.625 8.875 C-44.98124343 4.75625219 -59.29648176 9.34989481 -68.625 17.875 Z M-12.625 19.875 C-15.64195736 24.84105697 -18.63201612 29.8211029 -21.5 34.875 C-21.90992188 35.596875 -22.31984375 36.31875 -22.7421875 37.0625 C-23.77096304 38.83866566 -23.77096304 38.83866566 -23.625 40.875 C-12.24 42.36 -12.24 42.36 -0.625 43.875 C-1.84982782 34.07637744 -5.01471075 26.36612906 -12.625 19.875 Z "  transform="translate(425.625,153.125)"></path>
    <path d="M0 0 C3.6578218 2.03993908 5.66946174 3.50419262 8 7 C8.19778355 9.67217472 8.27824139 12.24042847 8.26742554 14.91316223 C8.27195665 15.72820258 8.27648776 16.54324293 8.28115618 17.38298148 C8.29385183 20.12362349 8.29217649 22.8640681 8.29052734 25.60473633 C8.29650942 27.56586463 8.30331422 29.52699058 8.31088257 31.4881134 C8.32858359 36.82289177 8.33323971 42.15760601 8.33451414 47.4924109 C8.3364111 51.94322569 8.34376638 56.39402548 8.35085833 60.84483451 C8.36715589 71.34521313 8.37202608 81.84555745 8.37060547 92.34594727 C8.36940404 103.18241994 8.39050309 114.01869344 8.4220928 124.85511571 C8.44823493 134.15371636 8.45897361 143.45225188 8.45769465 152.750889 C8.45718436 158.30670744 8.46290441 163.86234899 8.48405075 169.41813087 C8.50339804 174.6441804 8.50358155 179.86988371 8.48901749 185.09594536 C8.48692385 187.01398854 8.4916632 188.93205319 8.5037384 190.85005951 C8.51915873 193.46907683 8.50990434 196.08689562 8.49447632 198.70588684 C8.50476344 199.46455309 8.51505057 200.22321934 8.52564943 201.00487548 C8.4589999 206.12646011 7.24283539 209.06027675 4 213 C0.28546768 214.85726616 -3.95579425 214.58501089 -8 214 C-10.82424288 211.80977082 -12.41508603 210.16982793 -14 207 C-14.10650208 204.39384131 -14.15221122 201.8138893 -14.15390015 199.20709229 C-14.1582824 198.39290636 -14.16266465 197.57872043 -14.1671797 196.7398622 C-14.18059475 193.99616888 -14.18675262 191.25250769 -14.19287109 188.50878906 C-14.20076992 186.54780938 -14.20903874 184.58683117 -14.21765137 182.62585449 C-14.24389659 176.17245883 -14.25918138 169.7190566 -14.2734375 163.265625 C-14.27879613 161.04624171 -14.28417363 158.82685847 -14.28956985 156.60747528 C-14.31120214 147.37709745 -14.32993976 138.14672139 -14.34119225 128.91632462 C-14.35743682 115.6768261 -14.39062312 102.43762084 -14.44759309 89.19823289 C-14.48626232 79.89541562 -14.50582136 70.59267688 -14.51111281 61.28978133 C-14.51477036 55.73053254 -14.52683467 50.17159635 -14.55921555 44.61243439 C-14.58924293 39.38226065 -14.59562694 34.15258951 -14.58383179 28.92234802 C-14.58361061 27.00267923 -14.59195228 25.08298748 -14.60948563 23.16339874 C-14.63212641 20.54193942 -14.62390669 17.92231043 -14.60800171 15.30084229 C-14.6218838 14.54149391 -14.63576588 13.78214554 -14.65006864 12.99978662 C-14.59190706 9.10806659 -14.03560899 6.55995823 -11.64949989 3.54369736 C-7.92038918 -0.0364987 -5.05013454 -0.49511123 0 0 Z "  transform="translate(248,148)"></path>
    <path d="M0 0 C1.10768421 -0.00573832 1.10768421 -0.00573832 2.23774588 -0.01159257 C4.70728631 -0.02189496 7.17659303 -0.0179357 9.64614868 -0.01396179 C11.41875931 -0.01830982 13.19136805 -0.02349327 14.963974 -0.02944946 C19.77599911 -0.04284156 24.58794568 -0.04341785 29.39998579 -0.04088616 C33.41835908 -0.0398165 37.43671647 -0.04469974 41.45508635 -0.04949158 C50.93626635 -0.0605877 60.41740673 -0.06102372 69.89859009 -0.05497742 C79.67623616 -0.04893787 89.45373832 -0.06124793 99.23135984 -0.08254749 C107.62896211 -0.10016747 116.02651859 -0.10616418 124.42413867 -0.10290974 C129.43834064 -0.10109723 134.45243999 -0.1037298 139.46662521 -0.11762428 C144.18296707 -0.13020428 148.89908477 -0.12825685 153.6154232 -0.11521339 C155.34437447 -0.11284837 157.07334153 -0.11557966 158.8022747 -0.12383652 C161.16670082 -0.13431224 163.53037592 -0.12619716 165.89477539 -0.11352539 C166.57523654 -0.12089968 167.2556977 -0.12827396 167.95677888 -0.13587171 C172.90915592 -0.08022408 176.24054508 1.02938316 180.57437134 3.26069641 C183.05332911 6.13948609 183.53150295 7.92387336 184.01187134 11.69819641 C183.4872168 15.97038334 182.37060959 18.01101412 179.57437134 21.26069641 C175.47395687 23.43204676 171.59924829 23.54611331 167.05935669 23.52139282 C166.31132231 23.52521837 165.56328794 23.52904392 164.79258585 23.53298539 C162.29073935 23.54328882 159.78912349 23.53932835 157.28726196 23.53535461 C155.49170215 23.53970251 153.69614419 23.54488592 151.90058899 23.55084229 C147.02671694 23.56423387 142.15292243 23.56481087 137.27903557 23.56227899 C133.21076727 23.56120958 129.14251468 23.56609178 125.07424974 23.57088441 C115.47808692 23.58197973 105.88196325 23.58241658 96.28579712 23.57637024 C86.38314382 23.57032682 76.48063248 23.58265077 66.57800341 23.60394031 C58.07682402 23.62154545 49.57568988 23.62755946 41.07449293 23.62430257 C35.99663909 23.62248813 30.91888655 23.62514202 25.84104919 23.63901711 C21.06726006 23.65157345 16.29369265 23.64967217 11.519907 23.63660622 C9.76753986 23.63423625 8.01515722 23.63699012 6.26280785 23.64522934 C3.87140862 23.65566298 1.48075808 23.64762389 -0.91061401 23.63491821 C-1.60468275 23.6422925 -2.29875148 23.64966678 -3.0138526 23.65726453 C-8.29852866 23.59815808 -11.36191333 22.11092395 -15.23812866 18.63569641 C-17.1044018 14.90315014 -17.08202234 11.34492376 -16.42562866 7.26069641 C-12.58507347 0.57528553 -7.20335573 -0.03974728 0 0 Z " transform="translate(172.42562866210938,445.7393035888672)"></path>
    <path d="M0 0 C2.47525289 1.65017832 3.55657616 2.47780157 5 5 C5.76762821 9.37634021 5.67209286 13.72304579 5.63110352 18.15625 C5.63624451 19.50847308 5.64352716 20.86068947 5.65278625 22.21289062 C5.67128623 25.8783555 5.65837137 29.54309213 5.63869596 33.20852661 C5.62229613 37.04722931 5.63112419 40.88588638 5.63621521 44.72460938 C5.6407347 51.17069109 5.62487552 57.61648249 5.59692383 64.0625 C5.56487234 71.51133919 5.56488798 78.95965482 5.5821386 86.40853119 C5.59801129 93.57881728 5.59126542 100.74891172 5.57420158 107.91918945 C5.56733518 110.96855786 5.56835924 114.01777245 5.57574654 117.06713867 C5.58341696 120.65916755 5.5712596 124.25060177 5.54389763 127.8425293 C5.53374402 129.78692259 5.54318851 131.73138734 5.55322266 133.67578125 C5.5404982 134.83658203 5.52777374 135.99738281 5.5146637 137.19335938 C5.51185678 138.19991577 5.50904985 139.20647217 5.50615788 140.24353027 C4.86209705 143.75100148 3.43350274 145.44236893 1 148 C-2.71710563 149.85855282 -6.95277281 149.57908439 -11 149 C-14.34625024 146.47323961 -15.67977847 144.96066458 -17 141 C-17.0988345 139.19952755 -17.13928869 137.39561888 -17.14717102 135.592453 C-17.15790398 133.90802849 -17.15790398 133.90802849 -17.16885376 132.1895752 C-17.17154266 130.95678833 -17.17423157 129.72400146 -17.17700195 128.45385742 C-17.18357315 127.15607864 -17.19014435 125.85829987 -17.19691467 124.52119446 C-17.21793715 120.2159651 -17.22831477 115.91073545 -17.23828125 111.60546875 C-17.24232936 110.12251581 -17.2464463 108.63956305 -17.25063133 107.15661049 C-17.26967835 100.18981525 -17.28391088 93.22303058 -17.2922433 86.25621432 C-17.30201689 78.21747819 -17.32834139 70.17901732 -17.36874419 62.14037818 C-17.39891213 55.92456174 -17.41371277 49.70882418 -17.41702431 43.49293596 C-17.41937389 39.78147909 -17.42832188 36.07031647 -17.45348549 32.35893822 C-17.48111375 28.21722476 -17.47693306 24.07612593 -17.4699707 19.93432617 C-17.48278076 18.707612 -17.49559082 17.48089783 -17.50878906 16.2170105 C-17.4699123 9.88252277 -17.39627186 5.75067308 -13 1 C-9.03610479 -1.53248861 -4.369246 -1.64674234 0 0 Z "  transform="translate(208,213)"></path>
    <path d="M0 0 C0.94762711 -0.00852997 1.89525421 -0.01705994 2.87159729 -0.02584839 C4.42083641 -0.02448883 4.42083641 -0.02448883 6.00137329 -0.02310181 C7.64102303 -0.03317764 7.64102303 -0.03317764 9.313797 -0.04345703 C12.93186981 -0.06247458 16.5497575 -0.06636312 20.1678772 -0.06851196 C22.6812752 -0.07493714 25.19467244 -0.08166529 27.70806885 -0.08868408 C32.97886355 -0.10066616 38.24961121 -0.10444953 43.52041626 -0.10317993 C49.60534337 -0.10197877 55.68991564 -0.12307698 61.77475297 -0.15466726 C67.6363145 -0.18400982 73.49773598 -0.191155 79.35936356 -0.18996048 C81.84965082 -0.19232145 84.33994068 -0.20117271 86.83018112 -0.21662521 C90.31332615 -0.23621524 93.79555738 -0.23047379 97.27871704 -0.21841431 C98.30749466 -0.22965332 99.33627228 -0.24089233 100.39622498 -0.25247192 C106.33862144 -0.2001774 109.73092158 0.32691496 114.2694397 4.26742554 C116.85980317 7.68199558 116.70052711 11.10024724 116.2694397 15.26742554 C113.19251662 20.80588708 113.19251662 20.80588708 110.2694397 22.26742554 C108.72246557 22.37034954 107.1711651 22.41121512 105.62080383 22.42132568 C104.1508345 22.43422638 104.1508345 22.43422638 102.65116882 22.4473877 C101.57217819 22.45164764 100.49318756 22.45590759 99.38150024 22.46029663 C97.68135773 22.47256287 97.68135773 22.47256287 95.9468689 22.4850769 C92.18330419 22.50995919 88.41977723 22.52645324 84.65615845 22.54086304 C83.37342356 22.54618671 82.09068867 22.55151039 80.76908302 22.55699539 C75.37923505 22.57822997 69.98939942 22.5973601 64.59952068 22.60861778 C56.87565336 22.62485662 49.15228912 22.65803249 41.42861146 22.71501863 C35.34280477 22.75838912 29.25719545 22.77436287 23.17124367 22.78075027 C20.58242014 22.78748024 17.99360444 22.80274717 15.40488243 22.82664108 C11.78471735 22.85815156 8.16582815 22.85834992 4.54556274 22.85092163 C3.47264481 22.86732697 2.39972687 22.8837323 1.29429626 22.90063477 C-5.98528773 22.83937142 -5.98528773 22.83937142 -9.87281799 19.85595703 C-12.83009702 15.73535868 -13.15694943 13.3840951 -12.7305603 8.26742554 C-9.58840629 2.31977687 -6.69090881 0.027288 0 0 Z " transform="translate(331.7305603027344,339.7325744628906)"></path>
    <path d="M0 0 C0.98135422 -0.00997513 1.96270844 -0.01995026 2.97380066 -0.03022766 C4.04919601 -0.03089233 5.12459137 -0.03155701 6.23257446 -0.03224182 C7.36614883 -0.04056534 8.49972321 -0.04888885 9.66764832 -0.0574646 C13.42581589 -0.08161757 17.1838101 -0.09034309 20.94204712 -0.09693909 C23.54895074 -0.10590104 26.15585382 -0.1150228 28.76275635 -0.1242981 C34.23203174 -0.14166755 39.70126281 -0.1485245 45.17056274 -0.15138245 C51.48901541 -0.15501757 57.80698227 -0.18491037 64.12528646 -0.22678703 C70.2063116 -0.26567618 76.28710053 -0.27697526 82.36824417 -0.2781086 C84.95426697 -0.28232103 87.54028981 -0.29479596 90.12623215 -0.31562614 C93.74153899 -0.34243028 97.35550081 -0.33774649 100.97085571 -0.32521057 C102.57787605 -0.34746201 102.57787605 -0.34746201 104.21736145 -0.37016296 C111.48576595 -0.29826171 111.48576595 -0.29826171 115.37237549 2.68661499 C118.33207173 6.80680158 118.57745995 9.16548726 118.23110962 14.27415466 C116.40291972 18.50785758 114.40647603 20.38764221 110.23110962 22.27415466 C106.617203 22.72439629 103.02369611 22.69411947 99.38565063 22.6782074 C97.74578186 22.68850227 97.74578186 22.68850227 96.07278442 22.69900513 C92.46006268 22.7173018 88.847774 22.71343137 85.23501587 22.70774841 C82.72304645 22.71230881 80.21107828 22.71761395 77.69911194 22.72363281 C72.43426573 22.73256955 67.1695319 22.73036812 61.9046936 22.72019958 C55.8271118 22.70872038 49.74997138 22.72279258 43.67244774 22.74959606 C37.81567114 22.77445466 31.95906588 22.77692598 26.10224724 22.7704792 C23.61475834 22.77032579 21.12726101 22.77638607 18.63980293 22.78877068 C15.16152237 22.80364813 11.6842133 22.79302617 8.20596313 22.77586365 C6.66515327 22.7903656 6.66515327 22.7903656 5.09321594 22.80516052 C-0.84267801 22.74383139 -4.23407668 22.20794777 -8.76889038 18.27415466 C-11.35533502 14.86475036 -11.13392153 11.43550977 -10.76889038 7.27415466 C-8.33282704 2.05401893 -5.75783435 0.03137157 0 0 Z " transform="translate(329.7688903808594,297.72584533691406)"></path>
    <path d="M0 0 C2.93423195 1.79646854 4.47205355 2.9441071 6 6 C6.10076826 7.53436803 6.13941368 9.07301816 6.14717102 10.610672 C6.15432632 11.5822374 6.16148163 12.5538028 6.16885376 13.55480957 C6.17288712 15.15926941 6.17288712 15.15926941 6.17700195 16.79614258 C6.18357315 17.91981735 6.19014435 19.04349213 6.19691467 20.20121765 C6.21668035 23.9323228 6.22831698 27.66338766 6.23828125 31.39453125 C6.24235678 32.66623358 6.2464323 33.93793591 6.25063133 35.24817467 C6.26935102 41.28325755 6.28391425 47.3183159 6.2922433 53.35342008 C6.30201539 60.31908579 6.32833357 67.2844337 6.36874419 74.24998742 C6.40254568 80.28346845 6.41438851 86.3167952 6.41844749 92.35037804 C6.42332788 94.91685836 6.43498281 97.48333493 6.45348549 100.04975319 C6.47775328 103.63865276 6.47693414 107.22671786 6.4699707 110.81567383 C6.48278076 111.87924103 6.49559082 112.94280823 6.50878906 114.03860474 C6.45772125 121.24612883 6.45772125 121.24612883 4.09562683 125.13652039 C0.36944212 128.4499296 -2.66924479 128.38738876 -7.515625 128.359375 C-10 128 -10 128 -13.0625 125.625 C-15.58046187 122.21356779 -16.12578396 120.63100027 -16.14717102 116.47198486 C-16.15432632 115.51869293 -16.16148163 114.565401 -16.16885376 113.58322144 C-16.17154266 112.53385406 -16.17423157 111.48448669 -16.17700195 110.40332031 C-16.18357315 109.30075897 -16.19014435 108.19819763 -16.19691467 107.06222534 C-16.21668128 103.40085793 -16.22831782 99.7395316 -16.23828125 96.078125 C-16.24235678 94.82973595 -16.2464323 93.58134689 -16.25063133 92.29512787 C-16.26935225 86.36950397 -16.28391456 80.44389319 -16.2922433 74.51824689 C-16.30201056 67.68219947 -16.3283154 60.8464763 -16.36874419 54.01054311 C-16.40257171 48.08708045 -16.41439076 42.163697 -16.41844749 36.24013519 C-16.42332414 33.72192944 -16.43496857 31.20372742 -16.45348549 28.68558502 C-16.47778809 25.1615458 -16.47692761 21.63835488 -16.4699707 18.11425781 C-16.48278076 17.07298737 -16.49559082 16.03171692 -16.50878906 14.95889282 C-16.46593103 9.00544866 -16.00099637 5.52074514 -12 1 C-8.30274625 -0.84862688 -4.03538558 -0.47587094 0 0 Z " transform="translate(122,234)"></path>
    <path d="M0 0 C3.52787301 1.95657197 5.70285021 4.10855063 7 8 C7.10692311 10.87411028 7.1572646 13.72432523 7.16113281 16.59887695 C7.16609772 17.4772522 7.17106262 18.35562744 7.17617798 19.26062012 C7.19079666 22.16984844 7.19760127 25.07902222 7.203125 27.98828125 C7.20887688 30.00986228 7.21463461 32.03144329 7.22039795 34.05302429 C7.23090723 38.2940598 7.23675032 42.53507635 7.24023438 46.77612305 C7.24571767 52.20681463 7.26974256 57.63725531 7.29820633 63.06786823 C7.31684319 67.24491606 7.32203888 71.42190359 7.32357025 75.59898949 C7.32659514 77.60083576 7.33461815 79.60268101 7.34775543 81.60448647 C7.36483701 84.40749746 7.36293043 87.20989732 7.35644531 90.01293945 C7.3656601 90.83757187 7.37487488 91.66220428 7.3843689 92.51182556 C7.34900047 97.3993835 6.73994061 100.78235638 4 105 C-0.23552856 107.82368571 -4.02477314 107.66653757 -9 107 C-11.93423195 105.20353146 -13.47205355 104.0558929 -15 101 C-15.11959498 98.03660324 -15.17841024 95.09601648 -15.19287109 92.1315918 C-15.20104858 91.212742 -15.20922607 90.29389221 -15.21765137 89.34719849 C-15.24252148 86.29787859 -15.25902498 83.24860528 -15.2734375 80.19921875 C-15.27876118 79.15920023 -15.28408485 78.11918171 -15.28956985 77.04764748 C-15.31630767 71.54357261 -15.3356811 66.03952047 -15.35009766 60.53540039 C-15.36675268 54.84547393 -15.41153613 49.15612588 -15.4624691 43.46641827 C-15.49609616 39.09553854 -15.5076701 34.72479691 -15.51332474 30.35379982 C-15.5200491 28.25619902 -15.53530175 26.15860769 -15.55921555 24.06113243 C-15.59077396 21.1258035 -15.59091782 18.19204528 -15.58349609 15.2565918 C-15.59990143 14.38939011 -15.61630676 13.52218842 -15.63320923 12.62870789 C-15.58760571 8.22471072 -15.4321436 6.54048439 -12.58853149 2.98396301 C-8.52236035 -0.13252723 -5.07314071 -0.85650427 0 0 Z "  transform="translate(164,255)"></path>
    <path d="M0 0 C4.11681799 2.36498055 5.67062956 4.51588215 7 9 C7.30215251 12.44667859 7.30405915 15.88155559 7.30078125 19.33984375 C7.30506638 20.33955704 7.3093515 21.33927032 7.31376648 22.36927795 C7.31949966 24.47982019 7.32001751 26.59038218 7.31567383 28.70092773 C7.31251451 31.92270749 7.33598392 35.14356809 7.36132812 38.36523438 C7.36360134 40.41926968 7.36430451 42.47330744 7.36328125 44.52734375 C7.372491 45.48688461 7.38170074 46.44642548 7.39118958 47.43504333 C7.34855847 53.62468633 6.56831976 58.03655412 2.375 62.875 C-1.39176554 64.65925736 -4.92198594 64.76903725 -9 64 C-12.57052209 62.06658451 -14.69451966 59.91644101 -16 56 C-16.10150269 54.44655893 -16.14834158 52.88922064 -16.16113281 51.33251953 C-16.17554413 49.91557297 -16.17554413 49.91557297 -16.19024658 48.47000122 C-16.19449646 47.45122894 -16.19874634 46.43245667 -16.203125 45.3828125 C-16.20882507 44.33350555 -16.21452515 43.28419861 -16.22039795 42.20309448 C-16.22984686 39.98224903 -16.2363815 37.76138956 -16.24023438 35.54052734 C-16.24994208 32.14525888 -16.28096784 28.75059518 -16.3125 25.35546875 C-16.31902995 23.19792026 -16.32428045 21.04036744 -16.328125 18.8828125 C-16.3404718 17.86808868 -16.3528186 16.85336487 -16.36553955 15.80789185 C-16.34570051 9.5216447 -15.66089502 5.96792136 -11.375 1.1875 C-7.64245373 -0.67877314 -4.08422735 -0.65639368 0 0 Z "  transform="translate(79,298)"></path>
  </symbol>
  <symbol version="1.1" xmlns="http://www.w3.org/2000/svg" viewBox="0 0 512 512" id="close">
    <path d="M0 0 C1.13824219 -0.03996094 2.27648437 -0.07992188 3.44921875 -0.12109375 C13.24514761 1.29530446 19.883845 7.28522401 26.60134888 14.12507629 C27.47968978 14.99914507 28.35803068 15.87321385 29.26298797 16.77376956 C31.67815711 19.18216617 34.08168725 21.60117046 36.48081303 24.02548492 C39.07823502 26.64461567 41.69021285 29.24916199 44.30039978 31.8555603 C48.81398718 36.36653327 53.31837128 40.886528 57.81653214 45.41288185 C64.32001591 51.95710059 70.83735729 58.48737445 77.35810064 65.01439031 C87.93865119 75.60586838 98.50800103 86.20845052 109.0703125 96.81811523 C119.32712743 107.12086572 129.58921081 117.41832145 139.85839844 127.70874023 C140.49200126 128.34365667 141.12560408 128.97857312 141.77840699 129.63272945 C144.9572216 132.81806951 148.13613979 136.00330618 151.31510949 139.18849146 C177.66365096 165.58881789 203.99401837 192.00720851 230.3125 218.4375 C233.494387 217.03219716 235.62516234 215.37035752 238.07202339 212.91010571 C238.80881706 212.17421064 239.54561074 211.43831557 240.30473149 210.68012065 C241.10724902 209.86836684 241.90976654 209.05661303 242.73660278 208.22026062 C243.59459437 207.36045005 244.45258596 206.50063948 245.3365773 205.61477405 C247.71760659 203.22677946 250.09405657 200.83438561 252.46874285 198.44009316 C255.03097077 195.85895665 257.59904439 193.28364876 260.16651917 190.70773315 C264.6159884 186.24224927 269.0620532 181.77339914 273.50610733 177.30252647 C280.53397659 170.23273879 287.5716367 163.17274275 294.61080933 156.11421204 C297.01961749 153.69852375 299.42834955 151.28275959 301.83704948 148.86696339 C302.43903285 148.26320837 303.04101622 147.65945334 303.66124151 147.03740272 C310.51394243 140.16420517 317.36431013 133.28868399 324.21386719 126.41235352 C324.84000179 125.78377635 325.4661364 125.15519919 326.11124478 124.50757424 C336.25138844 114.32744822 346.38557681 104.14140868 356.51845516 93.95405187 C366.92594278 83.49109226 377.34307904 73.0378028 387.76834285 62.59255534 C394.19567622 56.15216051 400.61490991 49.70389975 407.02388732 43.24523733 C411.4199339 38.81642117 415.82506243 34.39677512 420.23736496 29.98415454 C422.78072899 27.44002557 425.31986384 24.89202648 427.84806633 22.3328228 C430.59397319 19.55343671 433.35923383 16.79382392 436.12649536 14.03569031 C436.91562856 13.23062866 437.70476176 12.42556702 438.51780808 11.59610957 C444.45281653 5.72989625 450.65703316 1.27587856 459 -0.2265625 C466.76478479 -0.13499664 473.01423184 0.62117729 479.3125 5.4375 C484.92529168 11.23738473 487.59564107 17.01661606 487.75 25.125 C487.78996094 26.26324219 487.82992187 27.40148437 487.87109375 28.57421875 C486.45469554 38.37014761 480.46477599 45.008845 473.62492371 51.72634888 C472.31382054 53.04386023 472.31382054 53.04386023 470.97623044 54.38798797 C468.56783383 56.80315711 466.14882954 59.20668725 463.72451508 61.60581303 C461.10538433 64.20323502 458.50083801 66.81521285 455.8944397 69.42539978 C451.38346673 73.93898718 446.863472 78.44337128 442.33711815 82.94153214 C435.79289941 89.44501591 429.26262555 95.96235729 422.73560969 102.48310064 C412.14413162 113.06365119 401.54154948 123.63300103 390.93188477 134.1953125 C380.62913428 144.45212743 370.33167855 154.71421081 360.04125977 164.98339844 C359.40634333 165.61700126 358.77142688 166.25060408 358.11727055 166.90340699 C354.93193049 170.0822216 351.74669382 173.26113979 348.56150854 176.44010949 C322.16118211 202.78865096 295.74279149 229.11901837 269.3125 255.4375 C270.71780284 258.619387 272.37964248 260.75016234 274.83989429 263.19702339 C275.57578936 263.93381706 276.31168443 264.67061074 277.06987935 265.42973149 C277.88163316 266.23224902 278.69338697 267.03476654 279.52973938 267.86160278 C280.38954995 268.71959437 281.24936052 269.57758596 282.13522595 270.4615773 C284.52322054 272.84260659 286.91561439 275.21905657 289.30990684 277.59374285 C291.89104335 280.15597077 294.46635124 282.72404439 297.04226685 285.29151917 C301.50775073 289.7409884 305.97660086 294.1870532 310.44747353 298.63110733 C317.51726121 305.65897659 324.57725725 312.6966367 331.63578796 319.73580933 C334.05147625 322.14461749 336.46724041 324.55334955 338.88303661 326.96204948 C339.48679163 327.56403285 340.09054666 328.16601622 340.71259728 328.78624151 C347.58579483 335.63894243 354.46131601 342.48931013 361.33764648 349.33886719 C362.28051223 350.2780691 362.28051223 350.2780691 363.24242576 351.23624478 C373.42255178 361.37638844 383.60859132 371.51057681 393.79594813 381.64345516 C404.25890774 392.05094278 414.7121972 402.46807904 425.15744466 412.89334285 C431.59783949 419.32067622 438.04610025 425.73990991 444.50476267 432.14888732 C448.93357883 436.5449339 453.35322488 440.95006243 457.76584546 445.36236496 C460.30997443 447.90572899 462.85797352 450.44486384 465.4171772 452.97306633 C468.19656329 455.71897319 470.95617608 458.48423383 473.71430969 461.25149536 C474.51937134 462.04062856 475.32443298 462.82976176 476.15389043 463.64280808 C482.02010375 469.57781653 486.47412144 475.78203316 487.9765625 484.125 C487.88499664 491.88978479 487.12882271 498.13923184 482.3125 504.4375 C476.51261527 510.05029168 470.73338394 512.72064107 462.625 512.875 C461.48675781 512.91496094 460.34851563 512.95492187 459.17578125 512.99609375 C449.37985239 511.57969554 442.741155 505.58977599 436.02365112 498.74992371 C435.14531022 497.87585493 434.26696932 497.00178615 433.36201203 496.10123044 C430.94684289 493.69283383 428.54331275 491.27382954 426.14418697 488.84951508 C423.54676498 486.23038433 420.93478715 483.62583801 418.32460022 481.0194397 C413.81101282 476.50846673 409.30662872 471.988472 404.80846786 467.46211815 C398.30498409 460.91789941 391.78764271 454.38762555 385.26689936 447.86060969 C374.68634881 437.26913162 364.11699897 426.66654948 353.5546875 416.05688477 C343.29787257 405.75413428 333.03578919 395.45667855 322.76660156 385.16625977 C322.13299874 384.53134333 321.49939592 383.89642688 320.84659301 383.24227055 C317.6677784 380.05693049 314.48886021 376.87169382 311.30989051 373.68650854 C284.96134904 347.28618211 258.63098163 320.86779149 232.3125 294.4375 C229.130613 295.84280284 226.99983766 297.50464248 224.55297661 299.96489429 C223.81618294 300.70078936 223.07938926 301.43668443 222.32026851 302.19487935 C221.11649222 303.41251007 221.11649222 303.41251007 219.88839722 304.65473938 C219.03040563 305.51454995 218.17241404 306.37436052 217.2884227 307.26022595 C214.90739341 309.64822054 212.53094343 312.04061439 210.15625715 314.43490684 C207.59402923 317.01604335 205.02595561 319.59135124 202.45848083 322.16726685 C198.0090116 326.63275073 193.5629468 331.10160086 189.11889267 335.57247353 C182.09102341 342.64226121 175.0533633 349.70225725 168.01419067 356.76078796 C165.60538251 359.17647625 163.19665045 361.59224041 160.78795052 364.00803661 C160.18596715 364.61179163 159.58398378 365.21554666 158.96375849 365.83759728 C152.11105757 372.71079483 145.26068987 379.58631601 138.41113281 386.46264648 C137.78499821 387.09122365 137.1588636 387.71980081 136.51375522 388.36742576 C126.37361156 398.54755178 116.23942319 408.73359132 106.10654484 418.92094813 C95.69905722 429.38390774 85.28192096 439.8371972 74.85665715 450.28244466 C68.42932378 456.72283949 62.01009009 463.17110025 55.60111268 469.62976267 C51.2050661 474.05857883 46.79993757 478.47822488 42.38763504 482.89084546 C39.84427101 485.43497443 37.30513616 487.98297352 34.77693367 490.5421772 C32.03102681 493.32156329 29.26576617 496.08117608 26.49850464 498.83930969 C25.70937144 499.64437134 24.92023824 500.44943298 24.10719192 501.27889043 C18.17218347 507.14510375 11.96796684 511.59912144 3.625 513.1015625 C-4.13978479 513.00999664 -10.38923184 512.25382271 -16.6875 507.4375 C-22.30029168 501.63761527 -24.97064107 495.85838394 -25.125 487.75 C-25.16496094 486.61175781 -25.20492188 485.47351563 -25.24609375 484.30078125 C-23.82969554 474.50485239 -17.83977599 467.866155 -10.99992371 461.14865112 C-10.12585493 460.27031022 -9.25178615 459.39196932 -8.35123044 458.48701203 C-5.94283383 456.07184289 -3.52382954 453.66831275 -1.09951508 451.26918697 C1.51961567 448.67176498 4.12416199 446.05978715 6.7305603 443.44960022 C11.24153327 438.93601282 15.761528 434.43162872 20.28788185 429.93346786 C26.83210059 423.42998409 33.36237445 416.91264271 39.88939031 410.39189936 C50.48086838 399.81134881 61.08345052 389.24199897 71.69311523 378.6796875 C81.99586572 368.42287257 92.29332145 358.16078919 102.58374023 347.89160156 C103.21865667 347.25799874 103.85357312 346.62439592 104.50772945 345.97159301 C107.69306951 342.7927784 110.87830618 339.61386021 114.06349146 336.43489051 C140.46381789 310.08634904 166.88220851 283.75598163 193.3125 257.4375 C191.90719716 254.255613 190.24535752 252.12483766 187.78510571 249.67797661 C187.04921064 248.94118294 186.31331557 248.20438926 185.55512065 247.44526851 C184.74336684 246.64275098 183.93161303 245.84023346 183.09526062 245.01339722 C182.23545005 244.15540563 181.37563948 243.29741404 180.48977405 242.4134227 C178.10177946 240.03239341 175.70938561 237.65594343 173.31509316 235.28125715 C170.73395665 232.71902923 168.15864876 230.15095561 165.58273315 227.58348083 C161.11724927 223.1340116 156.64839914 218.6879468 152.17752647 214.24389267 C145.10773879 207.21602341 138.04774275 200.1783633 130.98921204 193.13919067 C128.57352375 190.73038251 126.15775959 188.32165045 123.74196339 185.91295052 C123.13820837 185.31096715 122.53445334 184.70898378 121.91240272 184.08875849 C115.03920517 177.23605757 108.16368399 170.38568987 101.28735352 163.53613281 C100.65877635 162.90999821 100.03019919 162.2838636 99.38257424 161.63875522 C89.20244822 151.49861156 79.01640868 141.36442319 68.82905187 131.23154484 C58.36609226 120.82405722 47.9128028 110.40692096 37.46755534 99.98165715 C31.02716051 93.55432378 24.57889975 87.13509009 18.12023733 80.72611268 C13.69142117 76.3300661 9.27177512 71.92493757 4.85915454 67.51263504 C2.31502557 64.96927101 -0.23297352 62.43013616 -2.7921772 59.90193367 C-5.57156329 57.15602681 -8.33117608 54.39076617 -11.08930969 51.62350464 C-12.29690216 50.43980484 -12.29690216 50.43980484 -13.52889043 49.23219192 C-19.39510375 43.29718347 -23.84912144 37.09296684 -25.3515625 28.75 C-25.25999664 20.98521521 -24.50382271 14.73576816 -19.6875 8.4375 C-13.88761527 2.82470832 -8.10838394 0.15435893 0 0 Z "  transform="translate(24.6875,-0.4375)"></path>
  </symbol>
  <symbol version="1.1" xmlns="http://www.w3.org/2000/svg" viewBox="0 0 512 512" id="alarm">
    <path d="M0 0 C11.77308257 10.38532521 23.10014573 21.47991987 31.95874023 34.4921875 C32.42586426 35.17442383 32.89298828 35.85666016 33.37426758 36.55957031 C50.42659329 61.77506657 61.4083102 89.37267442 65.95874023 119.4921875 C66.13308594 120.56146484 66.30743164 121.63074219 66.48706055 122.73242188 C67.00670033 126.8744781 67.15559395 130.91285277 67.19702148 135.08203125 C67.20681534 135.89520813 67.21660919 136.70838501 67.22669983 137.54620361 C67.39860614 155.53442853 67.24540248 172.91194509 62.95874023 190.4921875 C62.64525635 191.82056641 62.64525635 191.82056641 62.32543945 193.17578125 C55.93069967 219.57863196 43.83732213 244.23745615 26.95874023 265.4921875 C26.5141748 266.05244629 26.06960938 266.61270508 25.61157227 267.18994141 C14.86039764 280.58864679 2.86171488 292.38958774 -11.04125977 302.4921875 C-11.61537598 302.91064941 -12.18949219 303.32911133 -12.78100586 303.76025391 C-29.0522984 315.45824066 -46.96805846 324.39817594 -66.04125977 330.4921875 C-66.78972168 330.73163086 -67.53818359 330.97107422 -68.30932617 331.21777344 C-79.72211663 334.78690027 -91.19647546 336.94432243 -103.04125977 338.4921875 C-103.98743164 338.62496094 -104.93360352 338.75773437 -105.90844727 338.89453125 C-154.07168213 344.51101072 -205.09267267 329.30406805 -243.04125977 299.4921875 C-279.54444023 270.50520934 -303.55787163 231.91170043 -314.04125977 186.4921875 C-314.310271 185.36731934 -314.310271 185.36731934 -314.5847168 184.21972656 C-317.41939699 171.78316541 -317.34876175 159.11902171 -317.41625977 146.4296875 C-317.42429626 145.587547 -317.43233276 144.74540649 -317.44061279 143.87774658 C-317.55268183 128.37184447 -315.9713718 113.11109988 -311.85375977 98.1171875 C-311.64509277 97.34938965 -311.43642578 96.5815918 -311.22143555 95.79052734 C-297.44990042 47.00528194 -265.25149938 4.60919711 -221.04125977 -20.5078125 C-219.91977539 -21.16136719 -218.79829102 -21.81492187 -217.64282227 -22.48828125 C-149.05802157 -61.46141748 -59.33970562 -50.8330632 0 0 Z M-228.04125977 39.4921875 C-228.92555664 40.31203125 -229.80985352 41.131875 -230.72094727 41.9765625 C-258.43005126 68.50822582 -273.25906248 106.72324087 -274.39282227 144.72387695 C-274.7897924 184.20173007 -259.4062781 220.55104523 -233.04125977 249.4921875 C-232.00678711 250.65041016 -232.00678711 250.65041016 -230.95141602 251.83203125 C-210.37663435 273.67052312 -182.02528436 287.18691458 -153.04125977 293.4921875 C-151.94555664 293.73839844 -150.84985352 293.98460937 -149.72094727 294.23828125 C-112.6802706 300.96873002 -72.27102559 291.62672587 -41.37475586 270.34423828 C-7.73944292 246.27393664 15.35924559 211.30008536 22.31811523 170.37890625 C28.20673451 132.59359925 19.44906561 93.84175168 -2.23266602 62.3046875 C-7.10606409 55.65991516 -12.38460978 49.4782597 -18.04125977 43.4921875 C-19.21881836 42.20054687 -19.21881836 42.20054687 -20.42016602 40.8828125 C-47.6556224 12.10886469 -85.29616633 -0.49342617 -124.04125977 -2.5078125 C-163.41705919 -2.5078125 -199.62095125 12.58644088 -228.04125977 39.4921875 Z "  transform="translate(381.041259765625,130.5078125)"></path>
    <path d="M0 0 C5.42146814 4.79886137 8.32781861 8.91037542 10 16 C10.13997592 18.66673684 10.1921595 21.21332721 10.12841797 23.87207031 C10.10930383 25.43328783 10.0902536 26.99450613 10.07125854 28.5557251 C10.05760128 29.37367805 10.04394402 30.19163101 10.02987289 31.03437042 C9.96505732 35.40940541 9.9607972 39.78471912 9.9453125 44.16015625 C9.92178355 49.70838769 9.88083994 55.2548745 9.77734375 60.80224609 C9.69493373 65.30444611 9.67191647 69.80365573 9.68716812 74.30654144 C9.68223282 76.01137846 9.65602065 77.71630406 9.60717392 79.4204483 C9.15301079 89.6366941 9.15301079 89.6366941 13.61529541 98.43981934 C16.51848575 101.29622997 19.68664104 103.63996728 23 106 C24.38985802 107.1912133 25.7691368 108.39523196 27.125 109.625 C28.05505859 110.43130859 28.05505859 110.43130859 29.00390625 111.25390625 C32.24171853 114.08619996 35.42292208 116.9808869 38.60546875 119.875 C40.64622247 121.68604409 42.73343804 123.37493083 44.875 125.0625 C49.36006212 128.95379503 51.60613245 132.98711625 52.37890625 138.8984375 C52.6339716 145.43140153 51.98554409 150.69416731 48 156 C43.01383673 160.98616327 37.69089752 164.09329357 30.5625 164.375 C20.07692864 163.86307817 14.54451351 158.25071828 7.38378906 151.32324219 C5.59708241 149.61471183 3.74695818 147.98927973 1.875 146.375 C-1.11397458 143.78290171 -4.06321535 141.15113994 -7 138.5 C-9.98062721 135.81016569 -12.97245233 133.13689636 -16 130.5 C-16.63292969 129.94570313 -17.26585937 129.39140625 -17.91796875 128.8203125 C-19.47862649 127.455835 -21.04462845 126.09746601 -22.61328125 124.7421875 C-23.50402344 123.96101563 -24.39476562 123.17984375 -25.3125 122.375 C-26.13363281 121.66085937 -26.95476562 120.94671875 -27.80078125 120.2109375 C-32.28396712 115.70386254 -34.10277828 111.25388319 -34.15390015 104.97970581 C-34.16250061 104.18931412 -34.17110107 103.39892242 -34.17996216 102.58457947 C-34.18422211 101.72635086 -34.18848206 100.86812225 -34.19287109 99.98388672 C-34.20104858 99.07277634 -34.20922607 98.16166595 -34.21765137 97.22294617 C-34.24245614 94.20853321 -34.25901079 91.19416726 -34.2734375 88.1796875 C-34.27876118 87.14774387 -34.28408485 86.11580025 -34.28956985 85.0525856 C-34.31628286 79.58812453 -34.33566181 74.12368613 -34.35009766 68.65917969 C-34.36342371 64.14692861 -34.39125488 59.63513115 -34.43212891 55.12304688 C-34.48156353 49.66540212 -34.50623224 44.20816806 -34.51332474 38.75030899 C-34.52001876 36.67637778 -34.53519231 34.60245507 -34.55921555 32.52865219 C-34.79072682 11.33041292 -34.79072682 11.33041292 -29 4 C-26.68359375 1.74609375 -26.68359375 1.74609375 -24.4375 0.4375 C-23.69371094 -0.01753906 -22.94992188 -0.47257813 -22.18359375 -0.94140625 C-15.14904954 -4.35171302 -6.67846539 -4.08701454 0 0 Z "  transform="translate(268,173)"></path>
    <path d="M0 0 C5.69306468 3.3446755 9.56747213 8.19009719 11.625 14.4375 C12.53247661 21.49682387 12.01243082 27.68640825 7.625 33.4375 C2.49483322 38.85504127 -3.55646021 43.05575378 -9.609375 47.3671875 C-13.30007076 50.12999647 -16.66810221 53.17299796 -20.05078125 56.30078125 C-22.07369426 58.16050128 -24.14159885 59.92687636 -26.25 61.6875 C-28.78517497 63.86785332 -31.06851623 66.16635139 -33.29296875 68.65625 C-33.81197754 69.23600586 -34.33098633 69.81576172 -34.86572266 70.41308594 C-35.88854651 71.56777432 -36.90061767 72.73210783 -37.89990234 73.90722656 C-42.00997252 78.56207164 -46.11762987 80.97096054 -52.40234375 81.87109375 C-59.97574299 81.88125939 -65.49299915 81.09420616 -71.125 75.7890625 C-75.39217641 71.09106539 -77.65052513 66.70041113 -77.8125 60.25 C-77.85246094 59.39019531 -77.89242187 58.53039062 -77.93359375 57.64453125 C-76.09521734 47.08993664 -68.83578533 40.15819905 -61.4375 33 C-60.39511087 31.97582282 -59.35287559 30.95148902 -58.31079102 29.92700195 C-51.06470236 22.85323205 -43.61974642 16.32088701 -35.375 10.4375 C-34.11351383 9.50665599 -32.85313636 8.57430799 -31.59375 7.640625 C-30.33453224 6.71711306 -29.07414805 5.79518905 -27.8125 4.875 C-26.95386353 4.24694458 -26.95386353 4.24694458 -26.07788086 3.60620117 C-18.302309 -1.93887257 -9.08466913 -4.07847381 0 0 Z " transform="translate(135.375,62.5625)"></path>
    <path d="M0 0 C0.97582031 -0.02835938 1.95164062 -0.05671875 2.95703125 -0.0859375 C10.26358245 0.95659339 16.08236261 5.47638261 21.8125 9.875 C22.5048877 10.40270996 23.19727539 10.93041992 23.91064453 11.47412109 C34.43088608 19.56568974 44.24407131 28.23579624 53.75 37.5 C54.51231934 38.22783691 55.27463867 38.95567383 56.06005859 39.70556641 C61.80587479 45.40790213 66.18194154 51.41591046 67.81640625 59.4765625 C67.63006628 66.55748137 66.484645 71.86690023 61.5390625 77.12890625 C56.57692758 81.62516387 52.16199666 83.66104854 45.375 83.75 C44.39917969 83.77835937 43.42335938 83.80671875 42.41796875 83.8359375 C34.09556939 82.64846093 29.23541121 77.85948609 23.875 71.75 C22.55770521 70.30193655 21.23738364 68.85662081 19.9140625 67.4140625 C19.27629883 66.71700195 18.63853516 66.01994141 17.98144531 65.30175781 C10.44436779 57.20668217 1.73162146 50.69740395 -7.1171875 44.1328125 C-19.87412193 34.64391775 -19.87412193 34.64391775 -21.8125 27.375 C-22.65630096 20.25075649 -22.19385529 14.22961803 -17.8125 8.375 C-12.64281929 2.87455773 -7.67119503 0.10053991 0 0 Z "  transform="translate(386.8125,60.625)"></path>
  </symbol>
  <symbol version="1.1" xmlns="http://www.w3.org/2000/svg" viewBox="0 0 512 512" id="timer">
    <path d="M0 0 C1.80766846 0.02199463 1.80766846 0.02199463 3.65185547 0.04443359 C53.37294733 1.07795821 101.98666906 21.08964399 139.4375 53.4375 C140.34757812 54.21738281 141.25765625 54.99726562 142.1953125 55.80078125 C144.65816132 57.96666276 147.05745399 60.18094694 149.4375 62.4375 C149.93314453 62.90591309 150.42878906 63.37432617 150.93945312 63.85693359 C159.28483145 71.79923927 166.56956378 80.19855198 173.4375 89.4375 C173.8612793 89.99518066 174.28505859 90.55286133 174.72167969 91.12744141 C181.9796633 100.68666887 187.91499079 110.79092137 193.4375 121.4375 C193.82824707 122.18628418 194.21899414 122.93506836 194.62158203 123.70654297 C210.75755245 155.02373272 217.89299818 189.07712579 217.75 224.125 C217.74726578 225.51638687 217.74726578 225.51638687 217.74447632 226.93588257 C217.70018673 240.31638645 217.31653862 253.32311712 214.4375 266.4375 C214.26057617 267.28924805 214.08365234 268.14099609 213.90136719 269.01855469 C207.65473882 298.76286284 196.19371108 327.62698025 178.4375 352.4375 C177.75171875 353.39785156 177.0659375 354.35820312 176.359375 355.34765625 C163.81124255 372.47721116 149.3888286 388.56744669 132.4375 401.4375 C131.51106689 402.15389648 131.51106689 402.15389648 130.56591797 402.88476562 C103.99365134 423.32790824 73.39849867 436.92028002 40.75 444.1875 C39.41606201 444.48575684 39.41606201 444.48575684 38.05517578 444.79003906 C23.4227063 447.88480769 9.03381193 448.84778418 -5.875 448.8125 C-6.74590271 448.81195618 -7.61680542 448.81141235 -8.51409912 448.81085205 C-66.91015984 448.64416999 -122.15088489 425.67547736 -163.97021484 384.98291016 C-165.33778763 383.6555971 -166.72380336 382.34733314 -168.11328125 381.04296875 C-174.66999908 374.76575577 -180.10603948 367.6634544 -185.5625 360.4375 C-186.28695312 359.48488281 -187.01140625 358.53226562 -187.7578125 357.55078125 C-213.3838922 323.1314389 -230.35991031 278.97078051 -230.80078125 235.7578125 C-230.8105751 234.9557135 -230.82036896 234.1536145 -230.83045959 233.32720947 C-231.43840087 170.53258857 -211.59827384 115.38508242 -169 68.890625 C-164.31765288 64.17826284 -161.0682292 61.30040877 -154.375 61.125 C-148.80187244 61.1979467 -145.93409588 61.95806654 -141.5625 65.4375 C-137.79624429 70.26603296 -136.95047087 73.99355106 -137.25390625 80.08984375 C-138.0999335 86.52607635 -141.88471649 89.89771758 -146.33203125 94.19921875 C-178.26391124 126.24294421 -196.75426626 174.35906802 -196.89233398 219.16333008 C-196.88853459 220.79639252 -196.88271989 222.42945138 -196.875 224.0625 C-196.87251251 224.90332123 -196.87002502 225.74414246 -196.86746216 226.61044312 C-196.81031222 239.10163726 -196.49150952 251.23857774 -193.5625 263.4375 C-193.22387939 264.87077637 -193.22387939 264.87077637 -192.87841797 266.33300781 C-180.50559399 317.18044818 -150.24278306 360.07895419 -105.59619141 387.65185547 C-86.52895164 399.13344518 -66.27510386 406.71137545 -44.5625 411.4375 C-43.77858887 411.61539062 -42.99467773 411.79328125 -42.18701172 411.9765625 C-19.09303618 417.0207071 8.42454293 416.67468495 31.4375 411.4375 C32.21222656 411.26589355 32.98695313 411.09428711 33.78515625 410.91748047 C76.40200736 401.22474543 115.29135272 377.85004024 142.4375 343.4375 C143.55511719 342.02791016 143.55511719 342.02791016 144.6953125 340.58984375 C170.23715179 307.52784621 183.65412935 266.75007259 183.6875 225.125 C183.68817474 224.36805847 183.68884949 223.61111694 183.68954468 222.83123779 C183.67252677 210.79114697 183.01545111 199.23365622 180.4375 187.4375 C180.27121094 186.63812012 180.10492188 185.83874023 179.93359375 185.01513672 C174.15648786 157.76110476 162.65612595 131.41622391 145.4375 109.4375 C144.78523438 108.57640625 144.13296875 107.7153125 143.4609375 106.828125 C112.0451886 66.23328898 65.87593727 41.7299611 15.33984375 35.015625 C11.4375 34.4375 11.4375 34.4375 9.4375 33.4375 C9.44638245 34.08816437 9.45526489 34.73882874 9.4644165 35.40921021 C9.55300834 42.19003502 9.61328373 48.97069504 9.65722656 55.75195312 C9.67732405 58.28164347 9.70460668 60.81128746 9.73925781 63.34082031 C9.78785556 66.97993417 9.81048812 70.618433 9.828125 74.2578125 C9.84877014 75.38615509 9.86941528 76.51449768 9.89068604 77.67703247 C9.89246856 83.93480688 9.66881668 87.69931693 5.4375 92.4375 C1.61819828 96.06583663 -1.44529006 96.74750458 -6.5625 96.9375 C-11.67970994 96.74750458 -14.74319828 96.06583663 -18.5625 92.4375 C-22.23860531 87.80618623 -23.06588797 84.75511243 -23.08007812 78.875 C-23.0870874 78.14249023 -23.09409668 77.40998047 -23.10131836 76.65527344 C-23.11883397 74.24895618 -23.10729954 71.84382791 -23.09375 69.4375 C-23.09644679 67.75650814 -23.10033077 66.07551779 -23.10534668 64.39453125 C-23.11123298 60.87745257 -23.10270709 57.3607812 -23.08398438 53.84375 C-23.06119501 49.34447811 -23.0743228 44.84616073 -23.09827423 40.34692383 C-23.11275591 36.87753153 -23.10811544 33.40836406 -23.09776306 29.93896484 C-23.09510231 28.28043504 -23.09834257 26.62188456 -23.10768127 24.96337891 C-23.11788646 22.64170579 -23.10229279 20.32155989 -23.08007812 18 C-23.07689575 16.68128906 -23.07371338 15.36257812 -23.07043457 14.00390625 C-22.31927429 8.72971766 -19.88730827 5.69932214 -16.09765625 2.08984375 C-10.77659304 -0.39723883 -5.80128653 -0.11238729 0 0 Z "  transform="translate(262.5625,31.5625)"></path>
    <path d="M0 0 C3.05745226 1.69336253 5.12794799 3.36062518 7.58768845 5.82093716 C8.84522682 7.06795406 8.84522682 7.06795406 10.12817001 8.34016323 C11.02917938 9.24881634 11.93018875 10.15746944 12.85850143 11.09365749 C13.83087084 12.06359658 14.80388529 13.03288938 15.77749252 14.00158596 C18.41016538 16.62488102 21.03337219 19.25745491 23.65467739 21.89210296 C26.4022509 24.65101913 29.15756019 27.40219069 31.91178513 30.15446377 C36.53352604 34.77532283 41.14925999 39.40211536 45.76133347 44.03262234 C51.09232854 49.38480213 56.43211817 54.72807989 61.77683139 60.0665583 C66.92228945 65.2063214 72.06205745 70.35173674 77.19905472 75.49995518 C79.3838652 77.68940795 81.57054567 79.87696758 83.75873184 82.06304646 C86.33412861 84.63655921 88.90447181 87.21501615 91.47099876 89.79737377 C92.86279828 91.19543656 94.2595011 92.58861262 95.65633774 93.98164272 C96.48341736 94.81580715 97.31049698 95.64997158 98.16263962 96.50941372 C98.88306316 97.23189013 99.60348671 97.95436655 100.34574127 98.69873619 C104.51204574 103.46219605 104.55353847 107.6577361 104.43369675 113.81460476 C103.86517519 119.11606827 101.34253891 121.56839221 97.62119675 125.10366726 C92.56341188 127.45192452 87.60433881 127.69964033 82.12119675 126.72866726 C76.01103487 123.30669813 71.3875737 118.28334977 66.47568893 113.35781765 C65.51294804 112.39942922 64.54979178 111.44145789 63.58625412 110.48387051 C60.98261121 107.89356663 58.38535648 105.29694756 55.7896452 102.69869828 C53.61932327 100.52730386 51.44602594 98.35889945 49.27277684 96.19043535 C44.14665727 91.07539185 39.02586095 85.95506179 33.90830612 80.83145046 C28.63193158 75.54902768 23.34642671 70.27586819 18.05640292 65.00711733 C13.50904476 60.47737322 8.96751286 55.9418452 4.43058133 51.401658 C1.72321625 48.69248069 -0.98632257 45.98557212 -3.70153427 43.28425694 C-6.25274787 40.74561494 -8.79660622 38.1998255 -11.33500671 35.6483736 C-12.71080103 34.26908569 -14.0939996 32.89719569 -15.47740555 31.52554226 C-16.29607101 30.69986248 -17.11473648 29.8741827 -17.95820999 29.02348232 C-19.02778379 27.95416013 -19.02778379 27.95416013 -20.11896515 26.86323547 C-23.84263378 22.34666962 -24.3308068 17.8975722 -24.187397 12.22866726 C-23.67606167 8.08620381 -22.46801606 6.04817085 -19.87880325 2.72866726 C-13.8762714 -1.95330758 -7.11200241 -3.14079175 0 0 Z "  transform="translate(167.87880325317383,145.2713327407837)"></path>
  </symbol>

  <symbol version="1.1" xmlns="http://www.w3.org/2000/svg" viewBox="0 0 512 512" id="circle">
    <path d="M0 0 C1.39887955 -0.01475876 1.39887955 -0.01475876 2.82601929 -0.02981567 C57.57088855 -0.4880434 109.12378205 11.10344388 155.04296875 42.23828125 C155.64254395 42.64256348 156.24211914 43.0468457 156.85986328 43.46337891 C165.73960159 49.50045241 173.97969134 56.15715546 182.04296875 63.23828125 C182.90535156 63.98851562 183.76773437 64.73875 184.65625 65.51171875 C195.02233699 74.67090885 204.52811934 84.32296898 213.04296875 95.23828125 C213.831875 96.22183594 214.62078125 97.20539063 215.43359375 98.21875 C240.22782769 129.38092878 256.76018156 166.39116127 265.04296875 205.23828125 C265.26742676 206.28483887 265.49188477 207.33139648 265.72314453 208.40966797 C272.12168314 239.96040516 271.78783799 275.78966266 265.04296875 307.23828125 C264.80690918 308.3454248 264.57084961 309.45256836 264.32763672 310.59326172 C253.53897122 359.34745673 229.18840437 401.28452038 195.04296875 437.23828125 C193.86541016 438.47964844 193.86541016 438.47964844 192.6640625 439.74609375 C187.16144323 445.39636828 181.2046152 450.32669544 175.04296875 455.23828125 C173.96208984 456.15480469 173.96208984 456.15480469 172.859375 457.08984375 C132.76229096 490.68276621 77.76221825 512.16589817 25.25 512.44140625 C24.3494136 512.44842056 23.44882721 512.45543488 22.52095032 512.46266174 C19.63240494 512.48005934 16.74406459 512.48651352 13.85546875 512.48828125 C12.86842957 512.48895599 11.88139038 512.48963074 10.86444092 512.49032593 C-3.60428676 512.47459617 -17.73044345 512.11839209 -31.95703125 509.23828125 C-32.87484375 509.05604004 -33.79265625 508.87379883 -34.73828125 508.68603516 C-41.18983382 507.37446783 -47.57993243 505.87183609 -53.95703125 504.23828125 C-55.07319824 503.95645996 -55.07319824 503.95645996 -56.21191406 503.66894531 C-106.70601314 490.66885831 -154.89548543 458.19648638 -186.95703125 417.23828125 C-187.74722656 416.2534375 -188.53742188 415.26859375 -189.3515625 414.25390625 C-221.37096899 373.99948682 -242.74459174 321.11323792 -243.1953125 269.28125 C-243.20506104 268.34834641 -243.21480957 267.41544281 -243.22485352 266.45426941 C-243.39694656 245.70899062 -243.22121504 225.62358404 -238.95703125 205.23828125 C-238.76979492 204.33126465 -238.58255859 203.42424805 -238.38964844 202.48974609 C-234.23023654 183.02527884 -227.65539996 164.12663439 -218.95703125 146.23828125 C-218.30541016 144.89612549 -218.30541016 144.89612549 -217.640625 143.52685547 C-201.19518064 110.0461754 -177.43261113 79.31137861 -147.95703125 56.23828125 C-146.9721875 55.44808594 -145.98734375 54.65789063 -144.97265625 53.84375 C-104.71789546 21.82407197 -51.83223408 0.45134053 0 0 Z M-151.95703125 85.23828125 C-152.52502441 85.77759277 -153.09301758 86.3169043 -153.67822266 86.87255859 C-162.27323235 95.09232332 -169.89113636 103.6782249 -176.95703125 113.23828125 C-177.37936035 113.7998291 -177.80168945 114.36137695 -178.23681641 114.93994141 C-202.08558703 146.70470812 -217.21711444 183.99019646 -222.95703125 223.23828125 C-223.14966553 224.54684082 -223.14966553 224.54684082 -223.34619141 225.88183594 C-231.90146095 287.26439924 -213.94915444 350.00315829 -176.95703125 399.23828125 C-171.09162671 406.99465598 -164.65559042 414.19836738 -157.95703125 421.23828125 C-157.41771973 421.80627441 -156.8784082 422.37426758 -156.32275391 422.95947266 C-148.10298918 431.55448235 -139.5170876 439.17238636 -129.95703125 446.23828125 C-129.3954834 446.66061035 -128.83393555 447.08293945 -128.25537109 447.51806641 C-96.43930762 471.40535029 -59.23099805 486.38122322 -19.95703125 492.23828125 C-18.71300537 492.43091553 -18.71300537 492.43091553 -17.44384766 492.62744141 C41.97761144 501.48429845 104.75667387 483.98165995 152.8359375 448.63671875 C161.72217954 442.01991851 170.01915055 434.87303673 178.04296875 427.23828125 C178.61096191 426.69896973 179.17895508 426.1596582 179.76416016 425.60400391 C188.35916985 417.38423918 195.97707386 408.7983376 203.04296875 399.23828125 C203.46529785 398.6767334 203.88762695 398.11518555 204.32275391 397.53662109 C241.81663488 347.59759484 257.17662464 284.6763596 249.078125 222.97265625 C241.77708676 172.88767896 218.77867371 127.74409763 184.04296875 91.23828125 C183.50365723 90.67028809 182.9643457 90.10229492 182.40869141 89.51708984 C174.18892668 80.92208015 165.6030251 73.30417614 156.04296875 66.23828125 C155.4814209 65.81595215 154.91987305 65.39362305 154.34130859 64.95849609 C122.52524512 41.07121221 85.31693555 26.09533928 46.04296875 20.23828125 C45.21361816 20.1098584 44.38426758 19.98143555 43.52978516 19.84912109 C-27.89973872 9.20244409 -100.34692226 36.13066782 -151.95703125 85.23828125 Z " 
     transform="translate(242.95703125,-0.23828125)"></path>
    <path d="M0 0 C5.94 0 11.88 0 18 0 C18 55.11 18 110.22 18 167 C72.78 167 127.56 167 184 167 C184 172.94 184 178.88 184 185 C129.22 185 74.44 185 18 185 C18 239.78 18 294.56 18 351 C12.06 351 6.12 351 0 351 C0 296.22 0 241.44 0 185 C-55.11 185 -110.22 185 -167 185 C-167 179.06 -167 173.12 -167 167 C-111.89 167 -56.78 167 0 167 C0 111.89 0 56.78 0 0 Z " transform="translate(248,81)"></path>
  </symbol>

  
  <symbol version="1.1" xmlns="http://www.w3.org/2000/svg" viewBox="0 0 512 512" id="chat">
    <path d="M0 0 C0.91297852 0.16628906 1.82595703 0.33257812 2.76660156 0.50390625 C44.3986228 8.16363077 83.16052206 26.40624883 116 53 C116.54446777 53.44005371 117.08893555 53.88010742 117.64990234 54.33349609 C131.72173929 65.81174863 144.93680647 78.57719064 156 93 C156.75925781 93.93070312 157.51851563 94.86140625 158.30078125 95.8203125 C184.1596216 128.07168914 200.62794761 167.52514646 208 208 C208.16371094 208.83563477 208.32742188 209.67126953 208.49609375 210.53222656 C213.78656862 238.24163521 213.41678597 270.35093304 208 298 C207.83371094 298.91297852 207.66742188 299.82595703 207.49609375 300.76660156 C199.83636923 342.3986228 181.59375117 381.16052206 155 414 C154.55994629 414.54446777 154.11989258 415.08893555 153.66650391 415.64990234 C142.18825137 429.72173929 129.42280936 442.93680647 115 454 C114.06929688 454.75925781 113.13859375 455.51851563 112.1796875 456.30078125 C79.92831086 482.1596216 40.47485354 498.62794761 0 506 C-0.83563477 506.16371094 -1.67126953 506.32742188 -2.53222656 506.49609375 C-30.25331812 511.7887992 -62.33809037 511.39940744 -90 506 C-90.89702637 505.83902832 -91.79405273 505.67805664 -92.71826172 505.51220703 C-123.6602089 499.91329046 -154.73012637 488.51324909 -181 471 C-186.35318103 471.31688331 -191.04817674 473.46874887 -195.93603516 475.51000977 C-197.25442886 476.05155197 -197.25442886 476.05155197 -198.59945679 476.60403442 C-200.5025456 477.38617218 -202.40456457 478.17091708 -204.3056221 478.9579792 C-207.32226839 480.20513438 -210.3429301 481.44201615 -213.36508179 482.67576599 C-221.95588278 486.18348854 -230.54321971 489.69931015 -239.11767578 493.24682617 C-244.36928964 495.41871842 -249.6289878 497.569895 -254.89435959 499.70820427 C-256.89161272 500.52385289 -258.88577621 501.34711246 -260.87660599 502.17831612 C-281.62749188 510.83575207 -281.62749188 510.83575207 -291 509 C-295.40526267 507.03336488 -298.09457168 504.44100382 -300.31590176 500.09784126 C-302.89254074 492.19637444 -300.60987636 484.4470565 -297.49584961 477.10986328 C-297.12360764 476.18969925 -296.75136566 475.26953522 -296.36784363 474.32148743 C-295.14654529 471.31374752 -293.89925977 468.31751053 -292.65234375 465.3203125 C-291.7959413 463.21891797 -290.94160823 461.116679 -290.08924866 459.01364136 C-287.85082533 453.50174895 -285.59197432 447.99850351 -283.32635498 442.4977417 C-279.6930882 433.67459561 -276.07869007 424.84392629 -272.48803902 416.00335312 C-271.23014279 412.92030972 -269.95590553 409.84437906 -268.68040466 406.76858521 C-267.91117297 404.8839249 -267.14258796 402.99900048 -266.37475586 401.11376953 C-265.83637085 399.8341761 -265.83637085 399.8341761 -265.28710938 398.5287323 C-262.95468716 392.88512604 -262.95468716 392.88512604 -264 387 C-265.30049663 384.68927077 -266.6346014 382.47786411 -268.0625 380.25 C-285.95375639 351.27095279 -295.74885411 317.58236779 -300 284 C-300.08588379 283.33912384 -300.17176758 282.67824768 -300.26025391 281.99734497 C-300.94073615 276.41987529 -301.17384085 270.92063676 -301.203125 265.3046875 C-301.21013931 264.40273148 -301.21715363 263.50077545 -301.22438049 262.57148743 C-301.24180732 259.67260703 -301.24823387 256.77393087 -301.25 253.875 C-301.25067474 252.88513092 -301.25134949 251.89526184 -301.25204468 250.87539673 C-301.23631099 236.36790321 -300.79657763 222.27465709 -298 208 C-297.83371094 207.08702148 -297.66742188 206.17404297 -297.49609375 205.23339844 C-289.83636923 163.6013772 -271.59375117 124.83947794 -245 92 C-244.55994629 91.45553223 -244.11989258 90.91106445 -243.66650391 90.35009766 C-232.18825137 76.27826071 -219.42280936 63.06319353 -205 52 C-204.06929688 51.24074219 -203.13859375 50.48148438 -202.1796875 49.69921875 C-169.92831086 23.8403784 -130.47485354 7.37205239 -90 0 C-89.16436523 -0.16371094 -88.32873047 -0.32742188 -87.46777344 -0.49609375 C-59.75836479 -5.78656862 -27.64906696 -5.41678597 0 0 Z M-201 93 C-201.49741699 93.47018555 -201.99483398 93.94037109 -202.50732422 94.42480469 C-210.51338763 102.02194934 -217.40749721 110.15944153 -224 119 C-224.42522949 119.55913086 -224.85045898 120.11826172 -225.28857422 120.69433594 C-232.54470107 130.25200244 -238.47860829 140.35557576 -244 151 C-244.39074707 151.74878418 -244.78149414 152.49756836 -245.18408203 153.26904297 C-260.93651516 183.84185171 -268.45349469 217.47359035 -268.375 251.75 C-268.37445618 252.64707672 -268.37391235 253.54415344 -268.37335205 254.46841431 C-268.29262396 283.56249535 -262.9793366 311.02714159 -252 338 C-251.53980469 339.1653125 -251.07960938 340.330625 -250.60546875 341.53125 C-245.26416637 354.59757649 -237.99752606 366.58332143 -230.53125 378.5234375 C-227.32913287 383.70237184 -227.30552147 387.97292044 -228 394 C-229.51003308 399.20866393 -231.56235699 404.15785027 -233.65234375 409.15234375 C-234.23461877 410.58364734 -234.81511889 412.01567413 -235.39393616 413.44837952 C-236.91080621 417.19043781 -238.44979626 420.92297386 -239.99432373 424.65368652 C-241.87126143 429.19851632 -243.72276823 433.75375014 -245.57696629 438.3078928 C-247.01856295 441.84773395 -248.46416654 445.38574069 -249.92259216 448.91868591 C-250.18931732 449.56733109 -250.45604248 450.21597626 -250.73085022 450.88427734 C-251.44972203 452.63201848 -252.1711097 454.37872422 -252.89268494 456.12535095 C-253.77853149 458.42505593 -254.48668421 460.5963003 -255 463 C-247.93234091 460.76564371 -241.11941149 458.07399413 -234.272892 455.23810768 C-230.9925285 453.88249559 -227.70459433 452.54541849 -224.41796875 451.20507812 C-220.26436249 449.51013423 -216.1132026 447.80987028 -211.97021484 446.08911133 C-208.59489284 444.68777005 -205.21224623 443.30563798 -201.82412338 441.9355526 C-200.54647552 441.41495245 -199.27155387 440.88760233 -197.99969864 440.35300636 C-189.98955999 436.99086471 -181.67659299 433.77027539 -173.00794983 436.66526794 C-171.21484375 437.5390625 -171.21484375 437.5390625 -167.9375 439.625 C-167.34372559 439.99109375 -166.74995117 440.3571875 -166.13818359 440.734375 C-164.41228974 441.80191897 -162.70557012 442.90027718 -161 444 C-113.37156263 473.61278036 -52.92879223 484.66827817 2 472 C43.52881751 462.24537901 80.22487235 442.4583809 111 413 C111.49741699 412.52981445 111.99483398 412.05962891 112.50732422 411.57519531 C120.51338763 403.97805066 127.40749721 395.84055847 134 387 C134.63784424 386.16130371 134.63784424 386.16130371 135.28857422 385.30566406 C142.54470107 375.74799756 148.47860829 365.64442424 154 355 C154.39074707 354.25121582 154.78149414 353.50243164 155.18408203 352.73095703 C171.04672991 321.9442401 178.45520261 288.18585659 178.375 253.6875 C178.37412384 252.76413849 178.37324768 251.84077698 178.37234497 250.88943481 C178.19094959 192.75190024 155.05581368 138.84625025 115 97 C114.52981445 96.50258301 114.05962891 96.00516602 113.57519531 95.49267578 C105.97805066 87.48661237 97.84055847 80.59250279 89 74 C88.16130371 73.36215576 88.16130371 73.36215576 87.30566406 72.71142578 C77.74799756 65.45529893 67.64442424 59.52139171 57 54 C56.25121582 53.60925293 55.50243164 53.21850586 54.73095703 52.81591797 C23.9442401 36.95327009 -9.81414341 29.54479739 -44.3125 29.625 C-45.69754227 29.62631424 -45.69754227 29.62631424 -47.11056519 29.62765503 C-105.24809976 29.80905041 -159.15374975 52.94418632 -201 93 Z "  transform="translate(301,3)"></path>
  </symbol>

</svg>

