<svg width="0" height="0" class="hidden">
  <symbol version="1.1" xmlns="http://www.w3.org/2000/svg" viewBox="0 0 512 512" id="sun (1)">
    <path d="M0 0 C1.17731689 0.00491455 2.35463379 0.0098291 3.56762695 0.01489258 C12.9382388 0.14015955 21.67135975 1.02197483 30.75 3.3125 C31.39372559 3.47347168 32.03745117 3.63444336 32.70068359 3.80029297 C66.50518451 12.53459067 95.41541139 35.00654309 113.13598633 64.90283203 C124.46282822 84.4915227 130.17567302 105.91969591 130.0625 128.5625 C130.05758545 129.73981689 130.0526709 130.91713379 130.04760742 132.13012695 C129.92234045 141.5007388 129.04052517 150.23385975 126.75 159.3125 C126.58902832 159.95622559 126.42805664 160.59995117 126.26220703 161.26318359 C117.52790933 195.06768451 95.05595691 223.97791139 65.15966797 241.69848633 C45.5709773 253.02532822 24.14280409 258.73817302 1.5 258.625 C0.32268311 258.62008545 -0.85463379 258.6151709 -2.06762695 258.61010742 C-11.4382388 258.48484045 -20.17135975 257.60302517 -29.25 255.3125 C-29.89372559 255.15152832 -30.53745117 254.99055664 -31.20068359 254.82470703 C-63.26584669 246.53981381 -91.97798344 225.59835068 -109.25 197.3125 C-126.6183024 167.70669063 -133.684497 133.05048798 -125.25 99.3125 C-125.08902832 98.66732422 -124.92805664 98.02214844 -124.76220703 97.35742188 C-116.02631735 63.55515134 -93.55430055 34.64610682 -63.65966797 16.92651367 C-44.0709773 5.59967178 -22.64280409 -0.11317302 0 0 Z M-70.91113281 68.73095703 C-87.24676716 88.02749958 -93.87763704 113.44134653 -92.25 138.3125 C-89.82294721 163.13384839 -77.25336789 186.22505488 -58.25 202.3125 C-37.59473226 218.03561264 -11.85269476 225.1144066 13.8984375 221.84765625 C37.52554101 218.22579416 60.43710223 205.80149688 75.03417969 186.62548828 C90.06234078 165.44513674 96.93174382 139.95246192 92.97827148 114.16210938 C88.77298685 90.6566898 76.00864631 67.7613592 56.31640625 53.7890625 C15.16259418 26.02270334 -37.44190772 31.93863095 -70.91113281 68.73095703 Z " 
     transform="translate(255.25,126.6875)"></path>
    <path d="M0 0 C1.19521774 -0.01283524 2.39043549 -0.02567047 3.62187195 -0.03889465 C4.91559219 -0.04628159 6.20931244 -0.05366852 7.54223633 -0.0612793 C8.53261115 -0.06739259 8.53261115 -0.06739259 9.54299355 -0.07362938 C13.04054066 -0.09447526 16.53804877 -0.10878099 20.03564453 -0.11816406 C23.63234932 -0.12920063 27.22843068 -0.16357168 30.82491589 -0.20333576 C33.6037758 -0.22960074 36.38248969 -0.23786476 39.16146278 -0.24144554 C41.12670866 -0.24863111 43.09185432 -0.27503078 45.05693054 -0.30183411 C52.95024093 -0.28276489 59.14315855 0.18490387 65.02661133 5.9934082 C65.56995117 6.85772461 65.56995117 6.85772461 66.12426758 7.73950195 C66.50454102 8.31829102 66.88481445 8.89708008 67.27661133 9.4934082 C69.48306549 13.57487492 69.76769107 17.65063974 69.18676758 22.17700195 C67.42854813 27.46121583 64.95245322 31.15485984 60.18676758 34.17700195 C56.38032211 35.98364817 53.34658089 36.43698842 49.14648438 36.4675293 C47.35388435 36.48666885 47.35388435 36.48666885 45.52507019 36.50619507 C44.24167252 36.50842072 42.95827484 36.51064636 41.63598633 36.51293945 C40.29466105 36.51937386 38.95333716 36.52610269 37.61201477 36.53311157 C34.80364736 36.54506474 31.99540276 36.54879452 29.18701172 36.54760742 C25.60601124 36.54740453 22.02580705 36.57468297 18.44499493 36.60915184 C15.67469235 36.63150239 12.9045788 36.63544247 10.13419533 36.63438797 C8.1778385 36.63786507 6.22154068 36.65947866 4.26530457 36.68148804 C-3.68527702 36.6408728 -9.60498533 36.03456178 -15.68823242 30.45825195 C-19.38954266 24.59784407 -19.84099366 18.9871208 -18.81323242 12.17700195 C-16.49349817 7.2698718 -13.09546311 4.36589715 -8.81323242 1.17700195 C-5.63853344 0.11876896 -3.336214 0.03119329 0 0 Z "  transform="translate(18.813232421875,237.822998046875)"></path>
    <path d="M0 0 C5.21166721 2.90218331 7.86441215 6.71229937 9.75 12.3125 C10.01069641 15.18919373 10.01069641 15.18919373 10.0246582 18.38452148 C10.03895622 20.18680458 10.03895622 20.18680458 10.05354309 22.02549744 C10.05263168 23.31516922 10.05172028 24.604841 10.05078125 25.93359375 C10.05467207 27.2797102 10.05900754 28.62582543 10.06376648 29.97193909 C10.07121321 32.78870632 10.07094867 35.60534817 10.06567383 38.42211914 C10.05988046 42.02112455 10.07681386 45.6196151 10.1000185 49.21853542 C10.11479266 51.99732941 10.11562259 54.77600043 10.11250877 57.55482674 C10.11326769 59.52342624 10.12710976 61.49200674 10.14118958 63.46055603 C10.13496078 64.66523026 10.12873199 65.86990448 10.12231445 67.11108398 C10.12294388 68.16633774 10.1235733 69.22159149 10.1242218 70.30882263 C9.47404127 75.52747244 7.26218715 79.35996991 3.1875 82.625 C2.28837891 83.36169922 2.28837891 83.36169922 1.37109375 84.11328125 C-3.2199931 87.50957923 -8.77424074 86.82203985 -14.25 86.3125 C-19.15713015 83.99276575 -22.0611048 80.59473069 -25.25 76.3125 C-26.30823299 73.13780102 -26.39580866 70.83548158 -26.42700195 67.49926758 C-26.43983719 66.30404984 -26.45267242 65.10883209 -26.46589661 63.87739563 C-26.47328354 62.58367538 -26.48067047 61.28995514 -26.48828125 59.95703125 C-26.49235678 59.29678137 -26.4964323 58.63653149 -26.50063133 57.95627403 C-26.52147721 54.45872691 -26.53578294 50.96121881 -26.54516602 47.46362305 C-26.55620258 43.86691826 -26.59057364 40.2708369 -26.63033772 36.67435169 C-26.65660269 33.89549178 -26.66486671 31.11677789 -26.66844749 28.33780479 C-26.67563307 26.37255892 -26.70203273 24.40741326 -26.72883606 22.44233704 C-26.70976684 14.54902665 -26.24209809 8.35610903 -20.43359375 2.47265625 C-19.85738281 2.11042969 -19.28117188 1.74820312 -18.6875 1.375 C-17.81931641 0.80458984 -17.81931641 0.80458984 -16.93359375 0.22265625 C-11.3849001 -2.77698556 -5.58878378 -2.59068856 0 0 Z "  transform="translate(264.25,425.6875)"></path>
    <path d="M0 0 C1.8022831 -0.01429802 1.8022831 -0.01429802 3.64097595 -0.02888489 C4.93064774 -0.02797348 6.22031952 -0.02706207 7.54907227 -0.02612305 C8.89518871 -0.03001387 10.24130394 -0.03434934 11.5874176 -0.03910828 C14.40418483 -0.04655501 17.22082669 -0.04629047 20.03759766 -0.04101562 C23.63660306 -0.03522225 27.23509361 -0.05215566 30.83401394 -0.0753603 C33.61280792 -0.09013446 36.39147895 -0.09096439 39.17030525 -0.08785057 C41.13890475 -0.08860949 43.10748525 -0.10245156 45.07603455 -0.11653137 C46.28070877 -0.11030258 47.485383 -0.10407379 48.7265625 -0.09765625 C50.30944313 -0.09860039 50.30944313 -0.09860039 51.92430115 -0.0995636 C57.14295096 0.55061693 60.97544842 2.76247105 64.24047852 6.8371582 C64.97717773 7.7362793 64.97717773 7.7362793 65.72875977 8.65356445 C69.12505775 13.2446513 68.43751837 18.79889894 67.92797852 24.2746582 C65.60824426 29.18178836 62.21020921 32.08576301 57.92797852 35.2746582 C54.75327953 36.3328912 52.4509601 36.42046687 49.11474609 36.45166016 C47.91952835 36.46449539 46.72431061 36.47733063 45.49287415 36.49055481 C44.1991539 36.49794174 42.90543365 36.50532867 41.57250977 36.51293945 C40.58213494 36.51905274 40.58213494 36.51905274 39.57175255 36.52528954 C36.07420543 36.54613541 32.57669732 36.56044114 29.07910156 36.56982422 C25.48239677 36.58086078 21.88631542 36.61523184 18.28983021 36.65499592 C15.51097029 36.68126089 12.7322564 36.68952491 9.95328331 36.6931057 C7.98803743 36.70029127 6.02289178 36.72669094 4.05781555 36.75349426 C-3.83549484 36.73442505 -10.02841246 36.26675629 -15.91186523 30.45825195 C-16.45520508 29.59393555 -16.45520508 29.59393555 -17.00952148 28.7121582 C-17.38979492 28.13336914 -17.77006836 27.55458008 -18.16186523 26.95825195 C-20.3683194 22.87678523 -20.65294498 18.80102042 -20.07202148 14.2746582 C-18.31380204 8.99044433 -15.83770712 5.29680032 -11.07202148 2.2746582 C-7.25198999 0.45832543 -4.2162254 0.01842254 0 0 Z "  transform="translate(444.072021484375,237.725341796875)"></path>
    <path d="M0 0 C4.90713015 2.31973425 7.8111048 5.71776931 11 10 C12.05823299 13.17469898 12.14580866 15.47701842 12.17700195 18.81323242 C12.19625481 20.60605904 12.19625481 20.60605904 12.21589661 22.43510437 C12.22328354 23.72882462 12.23067047 25.02254486 12.23828125 26.35546875 C12.24235678 27.01571863 12.2464323 27.67596851 12.25063133 28.35622597 C12.27147721 31.85377309 12.28578294 35.35128119 12.29516602 38.84887695 C12.30620258 42.44558174 12.34057364 46.0416631 12.38033772 49.63814831 C12.40660269 52.41700822 12.41486671 55.19572211 12.41844749 57.97469521 C12.42563307 59.93994108 12.45203273 61.90508674 12.47883606 63.87016296 C12.45976684 71.76347335 11.99209809 77.95639097 6.18359375 83.83984375 C5.31927734 84.38318359 5.31927734 84.38318359 4.4375 84.9375 C3.85871094 85.31777344 3.27992188 85.69804688 2.68359375 86.08984375 C-1.39787297 88.29629792 -5.47363779 88.58092349 -10 88 C-15.28421388 86.24178055 -18.97785789 83.76568564 -22 79 C-23.81633278 75.1799685 -24.25623566 72.14420391 -24.2746582 67.92797852 C-24.28419022 66.72645645 -24.29372223 65.52493439 -24.30354309 64.28700256 C-24.30263168 62.99733078 -24.30172028 61.707659 -24.30078125 60.37890625 C-24.30467207 59.0327898 -24.30900754 57.68667457 -24.31376648 56.34056091 C-24.32121321 53.52379368 -24.32094867 50.70715183 -24.31567383 47.89038086 C-24.30988046 44.29137545 -24.32681386 40.6928849 -24.3500185 37.09396458 C-24.36479266 34.31517059 -24.36562259 31.53649957 -24.36250877 28.75767326 C-24.36326769 26.78907376 -24.37710976 24.82049326 -24.39118958 22.85194397 C-24.38496078 21.64726974 -24.37873199 20.44259552 -24.37231445 19.20141602 C-24.37294388 18.14616226 -24.3735733 17.09090851 -24.3742218 16.00367737 C-23.72404127 10.78502756 -21.51218715 6.95253009 -17.4375 3.6875 C-16.83808594 3.19636719 -16.23867187 2.70523437 -15.62109375 2.19921875 C-11.0300069 -1.19707923 -5.47575926 -0.50953985 0 0 Z " transform="translate(262,0)"></path>
    <path d="M0 0 C0.91265625 -0.03738281 1.8253125 -0.07476562 2.765625 -0.11328125 C10.90874251 1.0484986 16.33732619 7.4598628 21.859375 13.0234375 C22.7080011 13.86919342 23.5566272 14.71494934 24.43096924 15.58633423 C26.2162951 17.36962547 27.99786557 19.15668341 29.77587891 20.94726562 C32.49444675 23.6819139 35.22866624 26.40017159 37.96484375 29.1171875 C39.7014837 30.8558096 41.43719296 32.59536193 43.171875 34.3359375 C44.39532623 35.55027969 44.39532623 35.55027969 45.64349365 36.78915405 C54.19650212 45.44886774 54.19650212 45.44886774 55.1484375 52.09375 C55.09516877 58.27292325 54.92630976 63.1275118 50.3203125 67.74609375 C46.18402938 71.37820306 42.96268932 72.48946767 37.5625 72.6875 C36.66144531 72.73648438 35.76039063 72.78546875 34.83203125 72.8359375 C26.50982597 71.42253382 20.46193746 64.46722548 14.76171875 58.72265625 C13.93670364 57.90051132 13.11168854 57.07836639 12.26167297 56.23130798 C10.52940339 54.50106998 8.80087672 52.76707734 7.07592773 51.02954102 C4.43866814 48.37617527 1.7857307 45.73924655 -0.86914062 43.10351562 C-2.55565057 41.41502389 -4.24123001 39.72560212 -5.92578125 38.03515625 C-6.71640457 37.25060562 -7.50702789 36.46605499 -8.3216095 35.6577301 C-12.81118891 31.11036753 -16.70722617 27.10127416 -17.6484375 20.53125 C-17.59516877 14.35207675 -17.42630976 9.4974882 -12.8203125 4.87890625 C-8.64223385 1.21009589 -5.4509547 0.14464824 0 0 Z "  transform="translate(387.25,369.6875)"></path>
    <path d="M0 0 C4.39501144 3.96622984 7.31752403 7.42715906 8.5625 13.3125 C8.70077164 21.85461474 5.28903578 26.64336666 -0.48413086 32.63378906 C-2.11793766 34.28745012 -3.75768639 35.93525504 -5.40234375 37.578125 C-6.27266739 38.45273376 -7.14299103 39.32734253 -8.03968811 40.22845459 C-9.87539174 42.06988583 -11.71370106 43.90872272 -13.55444336 45.74511719 C-16.37045642 48.55796153 -19.17286441 51.38388962 -21.97460938 54.2109375 C-23.76220991 56.00081026 -25.55059495 57.78989993 -27.33984375 59.578125 C-28.17644028 60.42393127 -29.0130368 61.26973755 -29.87498474 62.14117432 C-30.6625264 62.92248718 -31.45006805 63.70380005 -32.26147461 64.50878906 C-32.94890244 65.19684631 -33.63633026 65.88490356 -34.34458923 66.59381104 C-39.02392396 70.43645979 -43.78799363 70.81786268 -49.6484375 70.68359375 C-54.9142787 69.98295662 -58.59146753 67.71809471 -61.81640625 63.515625 C-64.56375831 58.72929737 -65.47523278 53.75358538 -64.4375 48.3125 C-62.57276477 44.11174795 -60.55847342 41.05595769 -57.32080078 37.80761719 C-56.49629425 36.97365417 -55.67178772 36.13969116 -54.82229614 35.28045654 C-53.93476654 34.39899963 -53.04723694 33.51754272 -52.1328125 32.609375 C-51.21668182 31.69037415 -50.30055115 30.77137329 -49.35665894 29.82452393 C-47.4231088 27.88656697 -45.48427811 25.95409915 -43.54150391 24.02539062 C-41.05760157 21.55860319 -38.58744488 19.07855729 -36.1210804 16.59424973 C-33.75727278 14.21697114 -31.38207397 11.85121356 -29.0078125 9.484375 C-28.12433136 8.59482117 -27.24085022 7.70526733 -26.33059692 6.78875732 C-25.49978607 5.96740295 -24.66897522 5.14604858 -23.81298828 4.29980469 C-23.08701447 3.57621765 -22.36104065 2.85263062 -21.61306763 2.1071167 C-15.51316133 -2.92467067 -6.97713161 -3.42513733 0 0 Z " transform="translate(133.4375,371.6875)"></path>
    <path d="M0 0 C4.39561435 2.4447518 7.06119522 5.34909665 9.02734375 9.98046875 C10.91056269 16.58950124 9.9300253 21.2056618 6.6484375 27.16015625 C4.72683716 29.46270752 4.72683716 29.46270752 2.53173828 31.66503906 C1.70723175 32.49900208 0.88272522 33.33296509 0.03323364 34.19219971 C-0.85429596 35.07365662 -1.74182556 35.95511353 -2.65625 36.86328125 C-3.57238068 37.7822821 -4.48851135 38.70128296 -5.43240356 39.64813232 C-7.3659537 41.58608928 -9.30478439 43.5185571 -11.24755859 45.44726562 C-13.73146093 47.91405306 -16.20161762 50.39409896 -18.6679821 52.87840652 C-21.03178972 55.25568511 -23.40698853 57.62144269 -25.78125 59.98828125 C-27.10647171 61.322612 -27.10647171 61.322612 -28.45846558 62.68389893 C-29.28927643 63.5052533 -30.12008728 64.32660767 -30.97607422 65.17285156 C-31.70204803 65.8964386 -32.42802185 66.62002563 -33.17599487 67.36553955 C-37.96639747 71.31712276 -42.69510368 71.59753445 -48.6953125 71.4765625 C-53.66935408 70.88406637 -56.27908535 68.29221547 -59.6015625 64.78515625 C-63.04479295 59.62031058 -63.57737452 55.5331209 -63.03125 49.50390625 C-60.9290011 42.2547721 -54.5508792 37.05307932 -49.38671875 31.89453125 C-48.51639511 31.01992249 -47.64607147 30.14531372 -46.74937439 29.24420166 C-44.91367076 27.40277042 -43.07536144 25.56393353 -41.23461914 23.72753906 C-38.41860608 20.91469472 -35.61619809 18.08876663 -32.81445312 15.26171875 C-31.02685259 13.47184599 -29.23846755 11.68275632 -27.44921875 9.89453125 C-26.61262222 9.04872498 -25.7760257 8.2029187 -24.91407776 7.33148193 C-23.73276527 6.15951263 -23.73276527 6.15951263 -22.52758789 4.96386719 C-21.84016006 4.27580994 -21.15273224 3.58775269 -20.44447327 2.87884521 C-14.75584904 -1.79262757 -6.84330999 -2.44403928 0 0 Z "  transform="translate(433.3515625,70.83984375)"></path>
    <path d="M0 0 C4.99221255 2.96511704 8.77934504 6.92239699 12.87036133 11.01245117 C13.76479446 11.89927078 14.6592276 12.78609039 15.58076477 13.69978333 C17.46651633 15.57474758 19.34868224 17.45266746 21.22607422 19.3359375 C23.61992322 21.73567868 26.03150517 24.11667276 28.4484129 26.49315929 C30.76722335 28.7797423 33.06766899 31.08465479 35.37036133 33.38745117 C36.2328801 34.23357468 37.09539886 35.07969818 37.98405457 35.95146179 C43.27984285 41.30875278 46.97875658 45.80378429 47.63598633 53.57104492 C46.78494502 59.9718345 44.74251114 63.93708884 39.85864258 68.34448242 C36.27023961 70.8287614 33.38095367 71.23220869 29.10864258 71.34448242 C28.18438477 71.38186523 27.26012695 71.41924805 26.30786133 71.45776367 C18.67004731 70.33121194 13.12008455 63.03720147 7.93676758 57.84838867 C7.03996277 56.95586899 6.14315796 56.0633493 5.21917725 55.14378357 C3.33061443 53.26094935 1.44432015 51.37612168 -0.4387207 49.48779297 C-2.84667803 47.07402449 -5.26585199 44.67185471 -7.68825912 42.27259922 C-10.00768748 39.97146918 -12.31608305 37.6593274 -14.62573242 35.34838867 C-15.49341248 34.48991837 -16.36109253 33.63144806 -17.25506592 32.7469635 C-18.05639954 31.93940109 -18.85773315 31.13183868 -19.68334961 30.29980469 C-20.38917175 29.59461197 -21.0949939 28.88941925 -21.82220459 28.16285706 C-25.32497443 23.91388806 -26.04387035 19.72491413 -25.88354492 14.37182617 C-25.25022493 9.50825342 -23.44320615 5.83930401 -19.91870117 2.42260742 C-13.96813086 -1.92729613 -6.88120635 -2.58297673 0 0 Z " transform="translate(94.578857421875,70.968017578125)"></path>
  </symbol>
  <symbol version="1.1" xmlns="http://www.w3.org/2000/svg" viewBox="0 0 512 512" id="moon (1)">
    <path d="M0 0 C5.0725952 3.50250621 8.43352364 6.6168229 9.625 12.8125 C9.75783703 21.89523213 5.60465324 27.80630949 0 34.625 C-28.35035288 70.46242815 -39.43119009 121.43190634 -34.60351562 166.25317383 C-30.60721531 198.71759413 -19.6698237 230.22193682 -0.375 256.8125 C0.34816406 257.82054687 1.07132813 258.82859375 1.81640625 259.8671875 C30.20529677 298.1243744 72.01622288 324.22788902 118.625 333.8125 C119.35364258 333.96348145 120.08228516 334.11446289 120.83300781 334.27001953 C145.98740188 339.22078881 172.66303007 338.2263978 197.625 332.8125 C198.36862793 332.65233398 199.11225586 332.49216797 199.87841797 332.32714844 C228.11896941 326.00673992 254.40327613 311.98233211 276.79296875 293.90625 C283.34593813 289.06157195 288.60560847 287.77510778 296.625 288.8125 C300.57551579 290.09787003 303.16546107 292.34117802 306.0625 295.3125 C310.18146989 304.53899255 307.01744454 314.69388125 304.125 323.875 C303.7640625 325.05239746 303.403125 326.22979492 303.03125 327.44287109 C300.10303069 336.77275736 296.681886 345.77993915 292.60742188 354.66552734 C291.63772698 356.78468662 290.69999599 358.91585219 289.765625 361.05078125 C279.53009159 384.03803889 265.04495676 403.90863258 248.625 422.8125 C248.00109375 423.54855469 247.3771875 424.28460938 246.734375 425.04296875 C238.84747439 434.27506503 230.12685953 442.27701661 220.625 449.8125 C219.84769531 450.45703125 219.07039063 451.1015625 218.26953125 451.765625 C172.7926493 489.24406038 114.32449917 509.35960774 55.625 509.125 C54.20435242 509.12226578 54.20435242 509.12226578 52.75500488 509.11947632 C38.18609824 509.07232229 23.97985548 508.48229981 9.625 505.8125 C8.7268457 505.6568457 7.82869141 505.50119141 6.90332031 505.34082031 C-33.57641445 498.19230177 -74.22727273 480.5845203 -105.81591797 454.11132812 C-107.31874081 452.85936797 -108.84843616 451.6398824 -110.37890625 450.421875 C-126.00512143 437.72931707 -140.61600035 423.17580994 -152.375 406.8125 C-153.2387527 405.64261544 -154.10335469 404.4733575 -154.96875 403.3046875 C-177.37989563 372.77952342 -192.66291357 338.02681381 -200.1875 300.9375 C-200.38239014 299.97690674 -200.57728027 299.01631348 -200.77807617 298.02661133 C-203.84435061 282.00873964 -204.78241071 266.27875021 -204.75 250 C-204.74978851 249.01515625 -204.74957703 248.0303125 -204.74935913 247.015625 C-204.71439649 230.64184279 -203.66621906 214.89544732 -200.375 198.8125 C-200.18776367 197.87164551 -200.00052734 196.93079102 -199.80761719 195.96142578 C-195.74795082 176.07326748 -189.10539885 157.11121286 -180.375 138.8125 C-180.05418457 138.13380859 -179.73336914 137.45511719 -179.40283203 136.75585938 C-166.40102594 109.41838999 -149.06361602 85.88437812 -127.375 64.8125 C-126.56160156 63.9978125 -125.74820313 63.183125 -124.91015625 62.34375 C-97.49370368 34.96954158 -63.820768 15.59238816 -27.375 2.8125 C-26.38669189 2.45454346 -26.38669189 2.45454346 -25.37841797 2.08935547 C-16.92962945 -0.95511005 -8.72659474 -3.07046852 0 0 Z "  transform="translate(204.375,2.1875)"></path>
  </symbol>
</svg>