<svg width="0" height="0" class="hidden">
  <symbol version="1.1" xmlns="http://www.w3.org/2000/svg" viewBox="0 0 512 512" id="like">
    <path d="M0 0 C5.9410135 3.87806035 11.17110854 8.24250285 16.1875 13.25 C16.81140625 13.86230469 17.4353125 14.47460938 18.078125 15.10546875 C34.73862045 32.70405516 38.60647701 56.22480829 38.5 79.5 C38.49676727 80.76472137 38.49676727 80.76472137 38.49346924 82.05499268 C38.39238368 106.71928453 34.98661466 130.31180583 26.58154297 153.61303711 C26.35071518 154.25456474 26.11988739 154.89609238 25.88206482 155.55706024 C25.31876005 157.12193237 24.75334907 158.68604607 24.1875 160.25 C26.12283852 160.25879936 26.12283852 160.25879936 28.09727478 160.26777649 C40.32121499 160.32526017 52.54498168 160.39815336 64.76874447 160.48571491 C71.05146411 160.53023552 77.33412163 160.56953103 83.61694336 160.59643555 C89.6925244 160.62265236 95.76786399 160.66318177 101.84329414 160.71318626 C104.14860569 160.72973165 106.45395888 160.74132196 108.75932121 160.74761391 C138.07602729 160.83563829 162.8728398 165.83411972 184.66015625 186.59765625 C202.4989147 205.3187026 208.86810774 227.3525806 208.54721069 252.58609009 C208.1181927 265.76495384 205.61517761 278.71940194 203.30393052 291.6719873 C202.60433555 295.61679649 201.92836934 299.56566858 201.24894714 303.51399231 C200.10787082 310.12470866 198.95010419 316.73231967 197.78100586 323.33813477 C196.43740099 330.93075902 195.11750041 338.52720506 193.81072408 346.12624854 C192.54062067 353.51043866 191.25707913 360.89222566 189.96643639 368.27285194 C189.42259028 371.38304862 188.88269553 374.49389057 188.34604836 377.60533714 C187.71268595 381.27248142 187.06725312 384.93731724 186.41307449 388.60080338 C186.06654538 390.55608837 185.73106126 392.51332124 185.39613342 394.47062683 C180.94049364 419.1478893 170.35450678 441.53700112 149.37890625 456.22265625 C139.04405443 462.78788036 129.19718563 467.50359902 117.1875 470.25 C116.45877686 470.42593689 115.73005371 470.60187378 114.97924805 470.78314209 C111.47690876 471.36883062 108.03590101 471.40555451 104.49609375 471.41113281 C103.73549652 471.41609772 102.97489929 471.42106262 102.19125366 471.42617798 C99.66915968 471.4407899 97.14712944 471.44761414 94.625 471.453125 C93.74903168 471.45595238 92.87306335 471.45877975 91.97055054 471.46169281 C87.29839784 471.47671137 82.62627601 471.48591321 77.95410156 471.49023438 C74.1668904 471.49454983 70.37991601 471.50816071 66.59277344 471.53125 C6.43577214 471.89065969 -52.9417477 465.21921903 -110.3125 446.3125 C-111.47982666 445.9299707 -112.64715332 445.54744141 -113.84985352 445.15332031 C-120.96398424 442.74929989 -127.87115798 440.01748356 -134.77929688 437.07983398 C-135.65181091 436.71055534 -136.52432495 436.3412767 -137.42327881 435.9608078 C-139.55372376 435.05885196 -141.68343991 434.15521875 -143.8125 433.25 C-144.11015878 399.38920467 -144.3391763 365.52873524 -144.47634928 331.6669218 C-144.49260816 327.6678383 -144.50943438 323.66875739 -144.52661133 319.66967773 C-144.53002136 318.87354438 -144.5334314 318.07741103 -144.53694477 317.25715243 C-144.59348838 304.37181104 -144.69597298 291.48722484 -144.81548635 278.60233123 C-144.9371255 265.37779978 -145.00927809 252.15366338 -145.03565043 238.92859548 C-145.05347534 230.76972159 -145.10972975 222.61298213 -145.21541407 214.45476549 C-145.29236455 208.19515748 -145.30040163 201.9371709 -145.28289986 195.67715454 C-145.28647547 193.11199751 -145.312327 190.54675948 -145.36217117 187.98208427 C-145.7116512 169.07190336 -145.7116512 169.07190336 -142.54537368 164.36720729 C-139.13448579 160.96060383 -135.20436381 159.18630202 -130.8125 157.25 C-129.12742269 156.03168182 -127.47240332 154.76869772 -125.875 153.4375 C-125.08222656 152.78910156 -124.28945312 152.14070312 -123.47265625 151.47265625 C-122.59480469 150.73917969 -121.71695313 150.00570312 -120.8125 149.25 C-120.2747998 148.80253418 -119.73709961 148.35506836 -119.18310547 147.89404297 C-93.75166476 126.66450371 -69.33959517 99.40752452 -64.8125 65.25 C-64.24438443 58.20514756 -64.04258044 51.12917881 -63.78344727 44.06762695 C-62.41661941 8.00822307 -62.41661941 8.00822307 -51.53125 -3.27734375 C-37.27430381 -15.49295446 -14.26209784 -8.3209439 0 0 Z "  transform="translate(303.8125,24.75)"></path>
    <path d="M0 0 C1.23899048 -0.01283524 2.47798096 -0.02567047 3.7545166 -0.03889465 C5.10131423 -0.04706769 6.44811646 -0.05451034 7.79492188 -0.0612793 C8.48019455 -0.06535482 9.16546722 -0.06943035 9.87150574 -0.07362938 C13.50450329 -0.09444803 17.13746364 -0.10876328 20.77050781 -0.11816406 C24.48772343 -0.1291713 28.204331 -0.16351606 31.92133331 -0.20333576 C34.80933594 -0.22973297 37.6971993 -0.23787647 40.58531189 -0.24144554 C42.61071372 -0.248571 44.63601943 -0.27491366 46.66125488 -0.30183411 C59.31803656 -0.2725444 70.54511464 2.05174995 79.76367188 11.17700195 C87.61638749 19.64596206 90.37433782 28.92892379 90.27160645 40.29675293 C90.27784641 41.37221579 90.28408637 42.44767865 90.29051542 43.5557313 C90.3063875 47.13609572 90.29386329 50.71577388 90.28125 54.29614258 C90.28667366 56.87249649 90.29379768 59.4488473 90.30249023 62.02519226 C90.32022465 68.2824038 90.31645828 74.5394228 90.30483967 80.79664171 C90.29578552 85.88452945 90.29458989 90.97236346 90.29893494 96.06025696 C90.29954787 96.78593484 90.3001608 97.51161271 90.30079231 98.25928083 C90.30207128 99.73373919 90.30336813 101.20819754 90.30468267 102.68265587 C90.31607359 116.4905275 90.3029982 130.2982927 90.28148121 144.10614687 C90.26361155 155.93955158 90.26671608 167.7727993 90.28515625 179.60620117 C90.30658933 193.36654476 90.31497509 207.1267952 90.3027072 220.88715315 C90.30143307 222.35601773 90.30017559 223.82488233 90.29893494 225.29374695 C90.29800928 226.37765295 90.29800928 226.37765295 90.29706493 227.48345605 C90.29361933 232.56193565 90.29942328 237.64035589 90.30885315 242.71882629 C90.32127949 249.56108718 90.31236172 256.40304746 90.28927612 263.24527931 C90.28399601 265.75344667 90.28549079 268.26163902 90.29432678 270.76979637 C90.30529281 274.19928185 90.29150438 277.62782516 90.27160645 281.05725098 C90.28052933 282.04462077 90.28945222 283.03199056 90.2986455 284.04928064 C90.17342855 295.21181705 85.80622794 303.90203989 78.13867188 311.86450195 C71.04217827 318.43532936 62.78767978 321.27340864 53.24194336 321.35400391 C52.59578568 321.3605751 51.94962799 321.3671463 51.28388977 321.37391663 C49.150847 321.39358183 47.01787464 321.40530085 44.88476562 321.4152832 C43.78554118 321.42139649 43.78554118 321.42139649 42.66411018 321.42763329 C38.78055227 321.44847143 34.89702939 321.46277935 31.01342773 321.47216797 C27.02808588 321.48319033 23.04330884 321.5175475 19.05816555 321.55733967 C15.97208212 321.58366099 12.88612969 321.59187372 9.79994392 321.59544945 C8.33251216 321.60028039 6.86508484 321.61179304 5.39776421 321.63048744 C-7.22085556 321.78118274 -17.68867711 319.92726673 -27.23632812 311.17700195 C-33.01013956 305.48356841 -37.86846347 298.31794698 -38.36627996 290.00765228 C-38.3686106 289.21674446 -38.37094125 288.42583664 -38.37334251 287.61096191 C-38.37841706 286.69426507 -38.3834916 285.77756823 -38.38871992 284.83309269 C-38.38921767 283.82961009 -38.38971543 282.82612749 -38.39022827 281.79223633 C-38.39461053 280.72331115 -38.39899278 279.65438597 -38.40350783 278.55306911 C-38.41689885 274.95896162 -38.42307544 271.36487866 -38.42919922 267.77075195 C-38.43710002 265.19853098 -38.44536896 262.62631111 -38.45397949 260.05409241 C-38.47848513 252.32557214 -38.49312899 244.59704548 -38.50603956 236.86849833 C-38.50975317 234.68432861 -38.51372627 232.50015953 -38.51779222 230.31599045 C-38.54303306 216.74313236 -38.56507912 203.17027322 -38.57752037 189.59739685 C-38.58044992 186.45449825 -38.5834116 183.31159969 -38.58642578 180.16870117 C-38.58717183 179.38757922 -38.58791788 178.60645726 -38.58868654 177.80166495 C-38.60133036 165.1581981 -38.63454118 152.51487219 -38.67622761 139.87147117 C-38.71870706 126.88066311 -38.74222242 113.88992707 -38.74744093 100.89904976 C-38.75084851 93.60928004 -38.76252593 86.31973047 -38.79554367 79.0300293 C-38.82657325 72.16814288 -38.83192736 65.30664524 -38.82015991 58.44470024 C-38.81993937 55.93090829 -38.82822829 53.41709844 -38.84581375 50.903368 C-39.03666602 22.04307639 -39.03666602 22.04307639 -27.75195312 10.2199707 C-19.68722222 3.67050756 -10.37015158 0.09394646 0 0 Z "  transform="translate(38.236328125,169.822998046875)"></path>
  </symbol>
  <symbol version="1.1" xmlns="http://www.w3.org/2000/svg" viewBox="0 0 512 512" id="alarm-clock">
    <path d="M0 0 C31.42599615 31.58688695 49.80193573 72.88407872 56.3125 116.625 C56.4170752 117.30361084 56.52165039 117.98222168 56.62939453 118.68139648 C57.67381217 126.5070553 57.5563508 134.43141153 57.5625 142.3125 C57.56317474 143.08989532 57.56384949 143.86729065 57.56454468 144.66824341 C57.49148074 197.80894355 37.1244681 247.36374182 0.3125 285.625 C4.5027034 290.63453709 8.88105217 295.30483635 13.5390625 299.87890625 C14.9141958 301.24140194 16.28919173 302.60403628 17.6640625 303.96679688 C19.80602193 306.08391273 21.94956389 308.19937692 24.09570312 310.31225586 C26.18543844 312.37169479 28.26883096 314.43738793 30.3515625 316.50390625 C31.30949203 317.44164635 31.30949203 317.44164635 32.28677368 318.39833069 C38.21456008 324.29279036 43.21762689 330.18417005 43.34765625 339.01171875 C42.92207582 345.78986554 41.38052262 351.36884392 36.65625 356.3828125 C31.47833346 360.77555317 26.04493127 362.330149 19.3125 362.625 C9.07105585 361.74363648 2.77818118 354.36918274 -4.0234375 347.484375 C-4.90278961 346.60219299 -5.78214172 345.72001099 -6.68814087 344.81109619 C-9.0097172 342.48025554 -11.32689097 340.14515422 -13.64196777 337.80786133 C-16.01153846 335.41772463 -18.38687729 333.03333519 -20.76171875 330.6484375 C-25.40894801 325.97920554 -30.05041425 321.30430461 -34.6875 316.625 C-38.41378299 318.08517998 -41.89069252 319.73368356 -45.4140625 321.63671875 C-95.7023073 348.49233646 -150.278168 356.07245013 -205.6875 340.625 C-206.4309668 340.42068359 -207.17443359 340.21636719 -207.94042969 340.00585938 C-224.95258818 335.1975777 -241.91922525 327.46742683 -256.53125 317.53125 C-258.6310607 316.35892552 -258.6310607 316.35892552 -260.57034302 317.32765198 C-262.98307006 318.80611894 -264.73640953 320.45535815 -266.71826172 322.47631836 C-267.49942352 323.2673143 -268.28058533 324.05831024 -269.0854187 324.87327576 C-269.9209024 325.72849319 -270.75638611 326.58371063 -271.6171875 327.46484375 C-273.39961858 329.26769777 -275.18217454 331.07042832 -276.96484375 332.87304688 C-279.76738974 335.71908319 -282.56754122 338.56741749 -285.36474609 341.41870117 C-288.06743096 344.16970778 -290.77928949 346.91141377 -293.4921875 349.65234375 C-294.32362274 350.50553696 -295.15505798 351.35873016 -296.01168823 352.23777771 C-301.61395988 357.88758695 -306.29939598 361.89420898 -314.55078125 362.6171875 C-322.32607022 362.64561634 -328.14583666 360.04128634 -333.6875 354.625 C-338.17265411 349.43985074 -338.86767028 343.31026565 -338.6875 336.625 C-337.28253472 322.69441201 -318.92735603 309.74035704 -309.5 300.375 C-308.15275823 299.03278949 -306.80575163 297.69034289 -305.45898438 296.34765625 C-302.204518 293.10405232 -298.94691952 289.86362628 -295.6875 286.625 C-296.63626471 285.51770049 -297.58508802 284.4104512 -298.53393555 283.30322266 C-299.32648994 282.37831528 -299.32648994 282.37831528 -300.13505554 281.4347229 C-301.46946328 279.8791708 -302.80672038 278.32606379 -304.14453125 276.7734375 C-341.15179613 233.19937769 -356.72005588 178.33673446 -352.38720703 121.69970703 C-350.79459023 106.60332282 -347.4964965 92.00948574 -342.6875 77.625 C-342.32785156 76.5417041 -342.32785156 76.5417041 -341.9609375 75.43652344 C-338.44412559 65.04550362 -333.8551615 55.28971045 -328.6875 45.625 C-328.36523438 45.01914063 -328.04296875 44.41328125 -327.7109375 43.7890625 C-302.42051709 -3.29635436 -257.8021895 -38.13645417 -207.02539062 -53.86181641 C-132.56883229 -75.81947691 -54.73908371 -53.90938938 0 0 Z M-165.4609375 49.84375 C-168.49962946 54.25662749 -168.98488058 57.80127539 -168.97802734 63.11230469 C-168.98474457 63.86081696 -168.99146179 64.60932922 -168.99838257 65.38052368 C-169.01736409 67.85270855 -169.02128721 70.32462181 -169.0234375 72.796875 C-169.02986676 74.52077342 -169.03659522 76.24467075 -169.04360962 77.96856689 C-169.05558379 81.58323697 -169.05929045 85.19781149 -169.05810547 88.8125 C-169.0579026 93.43038332 -169.08517051 98.047649 -169.11964989 102.6653862 C-169.1419601 106.22746559 -169.14594171 109.78939752 -169.14488602 113.35153961 C-169.14723709 115.0530942 -169.15603269 116.75465316 -169.17155075 118.45613861 C-169.19128915 120.84456218 -169.18534241 123.2316695 -169.17333984 125.62011719 C-169.18457886 126.31442841 -169.19581787 127.00873962 -169.20739746 127.72409058 C-169.09026398 136.96076152 -164.19580043 142.71505861 -157.91870117 148.91137695 C-157.24661118 149.59047623 -156.57452118 150.2695755 -155.88206482 150.96925354 C-153.674768 153.19404511 -151.45329378 155.40401226 -149.23046875 157.61328125 C-147.68295291 159.1634941 -146.13603106 160.71430012 -144.5896759 162.26567078 C-141.35392382 165.50730615 -138.11108309 168.74163159 -134.86303711 171.97094727 C-130.70674044 176.10443679 -126.56868636 180.25565132 -122.43577099 184.41250324 C-119.24735823 187.61538883 -116.04945638 190.80866317 -112.84862709 193.99913597 C-111.31912162 195.52597929 -109.79256487 197.05578254 -108.26906395 198.58861732 C-106.13708402 200.73078861 -103.99264188 202.85966569 -101.84448242 204.9855957 C-101.22138184 205.61679321 -100.59828125 206.24799072 -99.95629883 206.89831543 C-94.78924856 211.96705687 -89.73711342 215.05137502 -82.25 215.0625 C-75.98600257 214.85656036 -71.55738581 213.26478361 -66.93359375 209.01171875 C-62.61053639 204.31364919 -60.94117254 200.20400416 -60.3125 193.8125 C-60.59844562 187.2807665 -62.75497294 182.55713637 -67.40463257 177.90841675 C-70.3324338 175.30591163 -73.35210114 172.81438344 -76.37598228 170.3247757 C-126.86920682 128.32698871 -126.86920682 128.32698871 -129.58326149 103.8741436 C-130.6668631 90.88092155 -129.70505305 77.57025281 -127.52571106 64.73114014 C-126.35462429 57.5839511 -126.35462429 57.5839511 -128.91015625 51.01489258 C-132.44116132 46.26312887 -136.82947538 42.08950616 -142.6875 40.625 C-152.63738512 39.50412906 -159.16213536 42.10220548 -165.4609375 49.84375 Z " fill="#000000" transform="translate(403.6875,128.375)"></path>
    <path d="M0 0 C0.886875 0.41765625 1.77375 0.8353125 2.6875 1.265625 C12.71154696 6.33592782 22.41371699 13.68918435 30 22 C30 22.66 30 23.32 30 24 C29.43418213 24.17950195 28.86836426 24.35900391 28.28540039 24.54394531 C-6.44313057 35.7155068 -36.66393666 52.76928239 -63 78 C-63.87591797 78.82709473 -63.87591797 78.82709473 -64.76953125 79.67089844 C-87.26758256 100.99668287 -102.28536956 126.47701728 -116 154 C-132.98560934 138.60679153 -140.4298208 115.57193024 -141.89794922 93.27148438 C-143.05330993 67.55503458 -134.52015427 42.97436773 -117.4375 23.6875 C-115.96419849 22.11946845 -114.485556 20.55642656 -113 19 C-112.47277344 18.39800781 -111.94554688 17.79601562 -111.40234375 17.17578125 C-95.91618063 0.18456903 -70.81139845 -8.84982182 -48.29296875 -9.96875 C-31.32807211 -10.12974546 -15.36811737 -7.42210214 0 0 Z " fill="#000000" transform="translate(163,31)"></path>
    <path d="M0 0 C0.62874023 0.19867676 1.25748047 0.39735352 1.90527344 0.60205078 C27.97220454 8.99552715 48.28615785 27.19271635 60.75390625 51.40625 C71.82263199 75.59654787 72.80892532 102.82609704 63.84960938 127.84423828 C59.49064448 138.90448542 53.10184265 152.26543824 43 159 C42.75991211 158.46334717 42.51982422 157.92669434 42.27246094 157.3737793 C31.51310083 133.53972171 17.78323814 111.42478335 -0.47802734 92.57324219 C-1.54721702 91.46803554 -2.6094547 90.35608155 -3.66650391 89.23925781 C-13.02002056 79.36913005 -22.94164061 70.90261654 -34 63 C-34.6074707 62.55849609 -35.21494141 62.11699219 -35.84082031 61.66210938 C-52.66200798 49.51502877 -71.34118962 40.74523579 -90.82421875 33.80419922 C-93.93818648 32.65323314 -96.96417536 31.34245471 -100 30 C-76.88174444 1.40636812 -35.39408621 -11.52264477 0 0 Z " fill="#000000" transform="translate(421,25)"></path>
  </symbol>
</svg>