<svg width="0" height="0" class="hidden">
  <symbol version="1.1" xmlns="http://www.w3.org/2000/svg" viewBox="0 0 512 512" id="up-right-arrow">
    <path d="M0 0 C1.80421654 -0.00668677 1.80421654 -0.00668677 3.6448819 -0.01350862 C4.98647957 -0.01341932 6.32807723 -0.01322946 7.66967487 -0.01294994 C9.08961965 -0.01624865 10.50956349 -0.01997424 11.92950612 -0.02409142 C15.84082755 -0.03411876 19.75213363 -0.03782939 23.6634661 -0.04048073 C27.87833632 -0.04438161 32.09319437 -0.05396009 36.30805683 -0.0626936 C46.49158003 -0.08246408 56.67510424 -0.09252493 66.85864183 -0.10142139 C71.6528039 -0.10580331 76.44696487 -0.11117036 81.24112606 -0.11641026 C97.1755316 -0.13342308 113.10993644 -0.14791764 129.04434967 -0.155159 C133.1802257 -0.15706893 137.31610172 -0.15898926 141.45197773 -0.16094494 C142.99392839 -0.16167055 142.99392839 -0.16167055 144.56702957 -0.16241082 C161.22247412 -0.17071257 177.87784688 -0.1960517 194.53326007 -0.22852562 C211.62822272 -0.26158514 228.72314888 -0.27960675 245.81814367 -0.28280324 C255.41829842 -0.28496935 265.01834848 -0.29373288 274.6184721 -0.31926441 C282.7937885 -0.34095629 290.96897478 -0.34902929 299.1443167 -0.33929763 C303.31545421 -0.33474853 307.48632318 -0.3366744 311.65742397 -0.35605907 C315.47776603 -0.37366028 319.29764303 -0.37271808 323.11798982 -0.35716178 C325.15095459 -0.35365526 327.18392408 -0.36983469 329.21682137 -0.38676625 C337.26895463 -0.32993811 343.34844315 0.26204724 349.3238039 6.16937733 C349.77884296 6.83840076 350.23388203 7.5074242 350.70271015 8.19672108 C351.17579609 8.86832264 351.64888203 9.5399242 352.1363039 10.23187733 C354.26870166 13.8252258 354.39242383 16.78508596 354.39943123 20.87180424 C354.40388907 22.07523196 354.40834692 23.27865969 354.41293985 24.51855493 C354.41285055 25.8608416 354.41266069 27.20312827 354.41238117 28.54541492 C354.41567987 29.96607239 354.41940546 31.38672892 354.42352265 32.80738425 C354.43354995 36.72063629 354.43726061 40.633873 354.43991196 44.54713607 C354.44381281 48.76403217 354.45339126 52.98091611 354.46212482 57.19780445 C354.4818947 67.38577175 354.49195579 77.57374005 354.50085261 87.76172173 C354.50523437 92.55750698 354.51060144 97.35329113 354.51584148 102.14907551 C354.53285375 118.08777226 354.54734868 134.02646833 354.55459023 149.96517277 C354.55650017 154.10208862 354.55842049 158.23900447 354.56037617 162.3759203 C354.56085991 163.40414971 354.56134365 164.43237913 354.56184205 165.49176702 C354.57014519 182.15435363 354.59548691 198.81686851 354.62795684 215.47942379 C354.66100921 232.58003168 354.67903731 249.68060308 354.68223447 266.78124309 C354.68440118 276.38527832 354.69317342 285.98920894 354.71869564 295.59321308 C354.74037769 303.7711199 354.74846535 311.9488967 354.73872886 320.126829 C354.73417699 324.2998678 354.73612168 328.4726382 354.7554903 332.64564037 C354.77307169 336.466547 354.77216552 340.28698841 354.75659301 344.10789964 C354.75308071 346.14359185 354.76928061 348.17928866 354.78619748 350.21491361 C354.72933625 358.25854054 354.02051785 362.99246114 348.5191164 369.06000233 C347.96095234 369.51761951 347.40278828 369.9752367 346.82771015 370.44672108 C346.27212421 370.91722889 345.71653828 371.3877367 345.1441164 371.87250233 C339.23554684 375.8402112 333.16017424 375.84254639 326.26521015 375.13422108 C320.15034839 373.43508312 315.59099872 369.49361284 312.26521015 364.13422108 C309.75385544 358.41640152 309.97571875 352.87208749 309.98673725 346.7448473 C309.98094485 345.59224254 309.97515245 344.43963777 309.96918452 343.25210559 C309.95513929 340.06178541 309.9499556 336.87159346 309.94853592 333.68124723 C309.94483632 330.23753233 309.92967805 326.79386547 309.91592121 323.35017872 C309.89366213 317.38671975 309.87864072 311.42327791 309.86855412 305.45978642 C309.85396014 296.83761659 309.8284213 288.21550641 309.80022283 279.59337161 C309.7547679 265.60407422 309.71814772 251.61476823 309.68708515 237.62543201 C309.65689429 224.03720052 309.62254156 210.44899004 309.58259296 196.86078358 C309.57890064 195.60412945 309.57890064 195.60412945 309.57513373 194.32208838 C309.56275902 190.11918796 309.55030251 185.91628778 309.53780532 181.71338773 C309.43425696 146.85369436 309.34504729 111.9939765 309.26521015 77.13422108 C307.8974793 78.50366067 307.8974793 78.50366067 306.50211751 79.90076572 C266.3266912 120.12618704 226.14940911 160.34975412 185.96262836 200.56383228 C185.35445009 201.17242473 184.74627181 201.78101718 184.11966389 202.40805182 C170.90306701 215.63362692 157.68613624 228.85886831 144.46886136 242.08376585 C137.98734128 248.56902803 131.505895 255.05436396 125.0244875 261.53973866 C124.37950001 262.18511842 123.73451252 262.83049819 123.06997995 263.49543492 C102.15504381 284.4231606 81.24498797 305.35575446 60.33745096 326.29087193 C38.85653644 347.80007186 17.37072077 369.30436392 -4.12129528 390.80247148 C-7.15521222 393.83725291 -10.18907294 396.87209054 -13.22289944 399.90696239 C-14.11857414 400.8029405 -14.11857414 400.8029405 -15.03234328 401.71701918 C-24.6534581 411.34168247 -34.26937522 420.97152272 -43.88337012 430.60329745 C-53.54313884 440.28070987 -63.20833477 449.95267446 -72.87913139 459.61906675 C-78.62821154 465.36586101 -84.37304886 471.11682278 -90.11195431 476.87377817 C-94.39246246 481.16683104 -98.68072104 485.45205219 -102.97210686 489.73423477 C-104.71103635 491.4718913 -106.4474064 493.21211353 -108.18100639 494.95508716 C-110.53043245 497.31648065 -112.88884239 499.66851655 -115.24979877 502.01837349 C-115.92711392 502.70356968 -116.60442907 503.38876587 -117.30226892 504.09472558 C-122.89934045 509.63215811 -127.50392583 512.5626945 -135.60978985 512.57172108 C-141.48771514 512.41703883 -146.13787161 511.98454007 -150.73478985 508.13422108 C-155.88208585 502.51179006 -157.89382852 498.12996078 -158.10978985 490.44672108 C-158.15877422 489.26722889 -158.2077586 488.0877367 -158.25822735 486.87250233 C-157.11518643 478.7091429 -151.06095971 473.02536909 -145.40408134 467.43436909 C-144.30642649 466.33152193 -144.30642649 466.33152193 -143.18659678 465.20639503 C-140.73447717 462.74633932 -138.27181177 460.29712481 -135.80905437 457.84772205 C-134.0304342 456.0677935 -132.25247348 454.28720576 -130.47511607 452.50601625 C-126.61031282 448.63590364 -122.74090217 444.77048974 -118.86733532 440.90915012 C-113.10755068 435.1674962 -107.35641604 429.41723587 -101.60700641 423.66519525 C-91.93460669 413.98885669 -82.25524769 404.31950818 -72.57189274 394.6541338 C-62.98518995 385.08518649 -53.40159968 375.51313947 -43.82214069 365.93694019 C-43.22635528 365.34136099 -42.63056986 364.7457818 -42.01673034 364.13215474 C-38.99101176 361.10745117 -35.9653486 358.08269217 -32.93970678 355.05791181 C-11.51305888 333.63756393 9.92053497 312.22417874 31.35822773 290.81488514 C52.18369162 270.01697753 73.00599976 249.21591877 93.82404804 228.41058826 C94.78672766 227.44850052 94.78672766 227.44850052 95.76885535 226.46697665 C102.21397756 220.02581002 108.65903572 213.5845793 115.10404695 207.14330162 C128.2330957 194.02186137 141.36257193 180.90084889 154.49230671 167.7800951 C155.0959805 167.17683318 155.69965428 166.57357127 156.32162122 165.95202868 C196.62899011 125.67225839 236.94635379 85.40249234 277.26521015 45.13422108 C276.67328072 45.13324427 276.08135129 45.13226746 275.4714846 45.13126105 C240.39075853 45.07299201 205.31009858 44.99919749 170.22944951 44.9052348 C166.01749307 44.8939666 161.80553629 44.88282815 157.59357929 44.87176991 C156.75505271 44.86956622 155.91652614 44.86736254 155.05258966 44.86509208 C141.47438945 44.82971742 127.89618929 44.80485424 114.31796008 44.78387406 C100.3859665 44.76211335 86.45403273 44.72906035 72.52209002 44.68551952 C63.92498363 44.65900746 55.32795178 44.64130881 46.73080654 44.63487504 C40.83582583 44.62961979 34.94093891 44.61339822 29.04600846 44.58855542 C25.64467298 44.57454506 22.24350538 44.56536784 18.84213924 44.56921291 C15.15284185 44.57086067 11.46406461 44.55420772 7.77483845 44.53294849 C6.70187187 44.53779607 5.62890529 44.54264365 4.52342457 44.54763812 C-3.9818966 44.46662157 -9.87006956 42.63598584 -16.2230711 36.78265858 C-21.02212718 31.54957934 -21.28753101 25.89365756 -21.0746336 19.06390858 C-20.19419471 11.4739182 -16.33297595 7.28125313 -10.6371336 2.48187733 C-7.15325841 0.01383433 -4.13811528 0.00709922 0 0 Z "  transform="translate(157.73478984832764,-0.13422107696533203)"></path>
  </symbol>
</svg>